<?xml version="1.0" standalone="no"?>
<!DOCTYPE svg PUBLIC "-//W3C//DTD SVG 1.1//EN" "http://www.w3.org/Graphics/SVG/1.1/DTD/svg11.dtd" >
<svg xmlns="http://www.w3.org/2000/svg">
<metadata></metadata>
<defs>
<font id="siemens_sansbold" horiz-adv-x="1179" >
<font-face units-per-em="2048" ascent="1638" descent="-410" />
<missing-glyph horiz-adv-x="512" />
<glyph unicode="&#xfb01;" horiz-adv-x="1310" d="M57 862v182h166v82q0 209 78 302.5t252 93.5q85 0 192 -29l-20 -190q-60 28 -121 28q-75 0 -108 -56t-33 -183v-48h239v-182h-239v-862h-240v862h-166zM877 1382q0 64 42 106t107 42q64 0 106 -42t42 -106q0 -66 -41.5 -107.5t-106.5 -41.5q-66 0 -107.5 41.5 t-41.5 107.5zM905 0v1044h240v-1044h-240z" />
<glyph unicode="&#xfb02;" horiz-adv-x="1314" d="M57 862v182h166v82q0 209 78 302.5t252 93.5q85 0 192 -29l-20 -190q-60 28 -121 28q-75 0 -108 -56t-33 -183v-48h239v-182h-239v-862h-240v862h-166zM905 0v1497h240v-1497h-240z" />
<glyph horiz-adv-x="2048" />
<glyph horiz-adv-x="2048" />
<glyph unicode="&#xd;" horiz-adv-x="2048" />
<glyph unicode=" "  horiz-adv-x="512" />
<glyph unicode="&#x09;" horiz-adv-x="512" />
<glyph unicode="&#xa0;" horiz-adv-x="512" />
<glyph unicode="!" horiz-adv-x="694" d="M219 137q0 67 46 112.5t114 45.5q67 0 112.5 -45.5t45.5 -112.5q0 -69 -45 -114.5t-113 -45.5q-69 0 -114.5 45.5t-45.5 114.5zM254 1417h246l-19 -989h-209z" />
<glyph unicode="&#x22;" horiz-adv-x="663" d="M41 1495h244l-11 -526h-223zM379 1497h242l-11 -526h-221z" />
<glyph unicode="#" d="M76 395v178h194l37 265h-168v178h193l55 401h197l-56 -401h205l55 401h195l-55 -401h176v-178h-201l-35 -265h172v-178h-198l-54 -395h-196l55 395h-205l-53 -395h-196l53 395h-170zM467 573h205l37 265h-205z" />
<glyph unicode="$" d="M109 1034q0 126 56.5 220.5t160.5 140.5q60 27 188 41v166h131v-164q88 -6 160.5 -21.5t177.5 -48.5l-45 -215q-143 72 -293 86v-412q17 -6 156 -59q252 -93 252 -371q0 -136 -63 -232.5t-185 -146.5q-50 -18 -168 -36v-172h-131v167q-124 3 -205 19t-190 59l32 219 q99 -52 181.5 -74.5t181.5 -25.5v449q-21 9 -57 24q-102 43 -126 54.5t-55 31.5q-83 54 -121 126t-38 175zM358 1059q0 -68 34.5 -109t121.5 -78v361q-75 -15 -115.5 -60t-40.5 -114zM637 182q80 14 123 65t43 134q0 75 -36 117.5t-130 79.5v-396z" />
<glyph unicode="%" horiz-adv-x="1544" d="M57 1032q0 195 77.5 296.5t227.5 101.5q151 0 228.5 -102t77.5 -300t-77.5 -299.5t-228.5 -101.5q-305 0 -305 405zM238 1030q0 -266 124 -266q125 0 125 264t-125 264q-124 0 -124 -262zM412 -37l561 1491h162l-562 -1491h-161zM877 393q0 195 77.5 296.5t227.5 101.5 q151 0 228 -102t77 -300t-77 -299.5t-228 -101.5q-305 0 -305 405zM1057 391q0 -266 125 -266t125 264t-125 264t-125 -262z" />
<glyph unicode="&#x26;" horiz-adv-x="1429" d="M104 391q0 137 70 229.5t225 159.5q-91 101 -125 171t-34 153q0 154 111 245t300 91q197 0 306.5 -89t109.5 -249q0 -131 -76.5 -218t-249.5 -153l277 -303q45 58 75.5 153.5t36.5 194.5h220q-9 -152 -53 -273.5t-130 -234.5l246 -268h-303l-106 119q-93 -76 -188.5 -109 t-223.5 -33q-223 0 -355.5 112.5t-132.5 301.5zM358 397q0 -101 70 -164t184 -63q135 0 250 100l-336 371q-88 -47 -128 -105.5t-40 -138.5zM485 1092q0 -57 33.5 -112.5t106.5 -119.5l22 10q99 44 141.5 93t42.5 118q0 78 -47 123t-127 45q-78 0 -125 -43t-47 -114z" />
<glyph unicode="'" horiz-adv-x="368" d="M63 1497h244l-10 -526h-223z" />
<glyph unicode="(" horiz-adv-x="737" d="M109 621q0 563 473 944l131 -144q-365 -315 -365 -800q0 -239 92.5 -442.5t272.5 -358.5l-131 -144q-473 378 -473 945z" />
<glyph unicode=")" horiz-adv-x="737" d="M25 -180q179 155 271.5 358.5t92.5 442.5q0 486 -364 800l131 144q234 -186 353.5 -424.5t119.5 -519.5q0 -567 -473 -945z" />
<glyph unicode="*" d="M184 1100l60 196l278 -122l-33 301h203l-35 -301l279 122l61 -196l-292 -56l196 -219l-168 -120l-143 260l-141 -260l-168 120l196 219z" />
<glyph unicode="+" d="M94 428v188h395v428h203v-428h395v-188h-395v-428h-203v428h-395z" />
<glyph unicode="," horiz-adv-x="589" d="M49 -250l160 535h276l-204 -535h-232z" />
<glyph unicode="-" horiz-adv-x="636" d="M82 483v189h473v-189h-473z" />
<glyph unicode="." horiz-adv-x="589" d="M137 137q0 67 46 112.5t114 45.5q67 0 112.5 -45.5t45.5 -112.5q0 -69 -45 -114.5t-113 -45.5q-69 0 -114.5 45.5t-45.5 114.5z" />
<glyph unicode="/" horiz-adv-x="544" d="M-25 -49l369 1495h219l-368 -1495h-220z" />
<glyph unicode="0" d="M92 717q0 365 123 544t375 179q253 0 375 -179.5t122 -551.5t-122 -552t-375 -180q-255 0 -376.5 180.5t-121.5 559.5zM342 715q0 -275 60.5 -406t187.5 -131q126 0 187 130.5t61 400.5t-61 400t-187 130t-187 -129t-61 -395z" />
<glyph unicode="1" d="M168 1163l391 254h215v-1417h-242v1143l-258 -174z" />
<glyph unicode="2" d="M111 0v197q383 352 525 530t142 307q0 92 -67 149.5t-176 57.5q-153 0 -340 -106l-60 206q208 99 426 99q221 0 344 -102.5t123 -288.5q0 -132 -63 -252t-224 -295q-152 -162 -303 -301h600v-201h-927z" />
<glyph unicode="3" d="M96 51l54 203q173 -80 335 -80q132 0 207.5 64t75.5 176q0 117 -88.5 174t-271.5 57q-56 0 -119 -4v193q64 -5 94 -5q184 0 277.5 56.5t93.5 165.5q0 89 -64 139.5t-178 50.5q-135 0 -324 -78l-49 201q194 76 404 76q220 0 340.5 -96t120.5 -271q0 -280 -289 -336 q303 -43 303 -334q0 -98 -37.5 -181t-108.5 -140q-128 -107 -370 -107q-210 0 -406 76z" />
<glyph unicode="4" d="M49 358v207l576 852h284v-870h191v-189h-191v-358h-239v358h-621zM281 547h393v598z" />
<glyph unicode="5" d="M113 63l69 205q171 -92 318 -92q135 0 215 79t80 212q0 125 -77 191.5t-222 66.5q-144 0 -326 -59l23 751h800v-200h-561l-12 -316q83 14 153 14q225 0 348 -118t123 -334q0 -232 -145 -365q-130 -121 -375 -121q-223 0 -411 86z" />
<glyph unicode="6" d="M117 571q0 222 60.5 407.5t168.5 293.5q162 168 453 168q54 0 186 -15l-18 -208q-104 24 -166 24q-173 0 -283.5 -117.5t-132.5 -324.5q117 123 293 123q189 0 297 -120.5t108 -330.5q0 -229 -128.5 -361.5t-352.5 -132.5q-238 0 -361.5 151t-123.5 443zM371 453 q0 -129 63 -205t172 -76q104 0 167 77t63 206q0 126 -60.5 199t-163.5 73q-107 0 -174 -75.5t-67 -198.5z" />
<glyph unicode="7" d="M113 1217v200h936v-192l-580 -1225h-268l585 1217h-673z" />
<glyph unicode="8" d="M96 385q0 177 129 279q39 32 144 75q-132 69 -185 141.5t-53 186.5q0 172 123.5 272.5t335.5 100.5t335.5 -100.5t123.5 -272.5q0 -109 -51 -179.5t-179 -139.5q141 -63 201.5 -145t60.5 -210q0 -195 -130.5 -305.5t-362.5 -110.5q-229 0 -360.5 109t-131.5 299zM346 385 q0 -98 67 -157.5t177 -59.5q107 0 174 60t67 155q0 91 -61 155.5t-190 108.5q-234 -76 -234 -262zM377 1067q0 -80 56 -136t177 -97l11 4q86 32 134 91.5t48 133.5q0 86 -57.5 136t-155.5 50t-155.5 -49.5t-57.5 -132.5z" />
<glyph unicode="9" d="M94 946q0 228 128 361t349 133q242 0 366 -150.5t124 -443.5q0 -222 -60 -407t-167 -294q-165 -168 -453 -168q-53 0 -188 15l20 209q108 -25 164 -25q173 0 283.5 117.5t132.5 324.5q-116 -122 -293 -122q-188 0 -297 120.5t-109 329.5zM342 961q0 -125 60 -198t163 -73 q107 0 174.5 76t67.5 197q0 130 -63.5 206t-172.5 76q-104 0 -166.5 -77t-62.5 -207z" />
<glyph unicode=":" horiz-adv-x="589" d="M168 137q0 67 46 112.5t114 45.5q67 0 112 -45t45 -113q0 -69 -44.5 -114.5t-112.5 -45.5q-69 0 -114.5 45.5t-45.5 114.5zM168 874q0 67 46 112.5t114 45.5q67 0 112 -45t45 -113q0 -69 -44.5 -114t-112.5 -45q-70 0 -115 45t-45 114z" />
<glyph unicode=";" horiz-adv-x="589" d="M31 -250l159 535h277l-205 -535h-231zM166 874q0 67 46 112.5t114 45.5q67 0 112 -45t45 -113q0 -69 -44.5 -114t-112.5 -45q-70 0 -115 45t-45 114z" />
<glyph unicode="&#x3c;" d="M88 442v160l993 471v-217l-704 -334l704 -334v-217z" />
<glyph unicode="=" d="M94 246v188h993v-188h-993zM94 608v189h993v-189h-993z" />
<glyph unicode="&#x3e;" d="M98 -29v217l705 334l-705 334v217l994 -471v-160z" />
<glyph unicode="?" horiz-adv-x="925" d="M90 1337q109 56 201.5 80.5t193.5 24.5q189 0 299.5 -93t110.5 -253q0 -99 -51.5 -175.5t-190.5 -183.5q-83 -64 -104 -101.5t-21 -117.5v-92h-223v98q0 53 1 83.5t8 63t16 50.5t31 43.5t46 46t68 55.5q102 82 132 122t30 95q0 77 -49.5 123.5t-132.5 46.5 q-123 0 -297 -98zM260 137q0 67 46 112.5t114 45.5t113 -45.5t45 -112.5q0 -69 -45 -114.5t-113 -45.5q-69 0 -114.5 45.5t-45.5 114.5z" />
<glyph unicode="@" horiz-adv-x="1699" d="M86 711q0 210 101 376.5t282 259.5t410 93q217 0 384 -78.5t259 -222.5t92 -330q0 -209 -118 -352.5t-290 -143.5q-79 0 -124.5 36.5t-53.5 105.5q-53 -74 -117 -108t-153 -34q-139 0 -221 81.5t-82 219.5q0 201 141 337t348 136q162 0 295 -49l-65 -415q-11 -56 -11 -91 q0 -69 62 -69q57 0 108 50t81 133.5t30 176.5q0 212 -150 334q-79 63 -186.5 97t-224.5 34q-179 0 -322 -74.5t-224 -207.5t-81 -299q0 -257 177 -416.5t464 -159.5q153 0 324 57l28 -153q-180 -58 -368 -58q-175 0 -323.5 53.5t-252 149.5t-161.5 232.5t-58 298.5zM657 614 q0 -70 36 -110.5t98 -40.5q44 0 84.5 20.5t66.5 57.5q18 24 27.5 52.5t19.5 90.5l41 250q-55 14 -82 14q-115 0 -203 -101t-88 -233z" />
<glyph unicode="A" horiz-adv-x="1374" d="M20 0l525 1417h274l537 -1417h-264l-146 406h-532l-146 -406h-248zM481 600h398l-119 336q-36 99 -80 244q-30 -105 -80 -244z" />
<glyph unicode="B" horiz-adv-x="1218" d="M176 0v1417h379q147 0 227.5 -14t145.5 -51q75 -41 117 -124t42 -186q0 -256 -247 -319q278 -58 278 -332q0 -104 -42 -187t-120 -134q-62 -39 -140.5 -54.5t-215.5 -15.5h-424zM420 188h117q103 0 150 6.5t83 26.5q43 23 67.5 72.5t24.5 114.5q0 136 -108 188 q-39 20 -85.5 27.5t-129.5 7.5h-119v-443zM420 805h115q164 0 225 41q76 51 76 166q0 125 -78 174q-38 25 -87 34t-147 9h-104v-424z" />
<glyph unicode="C" horiz-adv-x="1251" d="M102 698q0 341 183.5 541.5t496.5 200.5q111 0 208 -21.5t210 -72.5l-82 -195q-172 88 -323 88q-200 0 -317.5 -144t-117.5 -390q0 -244 120 -385.5t327 -141.5q89 0 161.5 20t176.5 74l69 -200q-118 -54 -209 -74.5t-210 -20.5q-324 0 -508.5 191.5t-184.5 529.5z" />
<glyph unicode="D" horiz-adv-x="1404" d="M176 0v1417h356q204 0 329.5 -32t219.5 -107q224 -181 224 -567q0 -209 -67 -362.5t-196 -239.5q-91 -60 -209.5 -84.5t-320.5 -24.5h-336zM424 201h98q233 0 348 80q85 58 131 170.5t46 257.5t-44 258t-126 174q-62 45 -136.5 60.5t-228.5 15.5h-88v-1016z" />
<glyph unicode="E" horiz-adv-x="1146" d="M176 0v1417h830v-200h-582v-398h553v-201h-553v-417h612v-201h-860z" />
<glyph unicode="F" horiz-adv-x="1110" d="M176 0v1417h834v-200h-586v-398h557v-201h-557v-618h-248z" />
<glyph unicode="G" horiz-adv-x="1445" d="M102 692q0 346 192 547t523 201q236 0 457 -99l-82 -198q-101 52 -187.5 74t-183.5 22q-240 0 -360 -172q-47 -69 -74 -167t-27 -202q0 -238 124 -379t335 -141q108 0 215 37v350h-260v201h504v-700q-257 -89 -473 -89q-329 0 -516 190.5t-187 524.5z" />
<glyph unicode="H" horiz-adv-x="1439" d="M176 0v1417h248v-594h594v594h248v-1417h-248v623h-594v-623h-248z" />
<glyph unicode="I" horiz-adv-x="600" d="M176 0v1417h248v-1417h-248z" />
<glyph unicode="J" horiz-adv-x="808" d="M-2 18l22 207q100 -43 185 -43q124 0 166 82q17 33 22.5 87t5.5 171v895h248v-887q0 -192 -16 -277.5t-64 -148.5q-100 -127 -321 -127q-136 0 -248 41z" />
<glyph unicode="K" horiz-adv-x="1300" d="M176 0v1417h248v-667l559 667h287l-563 -663l585 -754h-303l-565 735v-735h-248z" />
<glyph unicode="L" horiz-adv-x="1034" d="M176 0v1417h248v-1216h612v-201h-860z" />
<glyph unicode="M" horiz-adv-x="1849" d="M176 0v1417h361l317 -899q23 -72 76 -248q35 130 76 248l313 899h354v-1417h-241v1161q-31 -112 -97 -309l-295 -852h-235l-293 834q-47 135 -104 327v-1161h-232z" />
<glyph unicode="N" horiz-adv-x="1482" d="M176 0v1417h277l454 -753q83 -138 140 -258l26 -52q-4 88 -4 244v819h238v-1417h-275l-444 731q-58 97 -86.5 151t-91.5 183q4 -117 4 -309v-756h-238z" />
<glyph unicode="O" horiz-adv-x="1517" d="M102 717q0 164 54.5 309.5t152.5 243.5q164 170 451 170q326 0 500 -226q157 -204 157 -505q0 -171 -53 -316t-154 -246q-164 -170 -450 -170q-326 0 -500 226q-158 204 -158 514zM360 715q0 -249 107 -393t293 -144q184 0 291.5 143t107.5 388t-107.5 387.5 t-291.5 142.5q-183 0 -291.5 -142.5t-108.5 -381.5z" />
<glyph unicode="P" horiz-adv-x="1128" d="M176 0v1417h342q161 0 252 -19t158 -65q77 -56 118 -144t41 -198q0 -227 -165 -342q-66 -45 -154.5 -64.5t-228.5 -19.5h-115v-565h-248zM420 760h80q94 0 145.5 7.5t89.5 27.5q46 24 72.5 73.5t26.5 116.5q0 64 -24 114.5t-67 78.5q-38 25 -89.5 35t-141.5 10h-92v-463z " />
<glyph unicode="Q" horiz-adv-x="1517" d="M102 709q0 170 53.5 315t153.5 246q164 170 451 170q326 0 500 -226q157 -204 157 -505q0 -247 -103.5 -426t-291.5 -256q94 -94 297 -222l-125 -170q-141 77 -244.5 153.5t-224.5 188.5q-122 8 -204.5 35t-155.5 84q-125 95 -194 256.5t-69 356.5zM360 715 q0 -249 107 -393t293 -144q184 0 291.5 143t107.5 388t-107.5 387.5t-291.5 142.5q-183 0 -291.5 -142.5t-108.5 -381.5z" />
<glyph unicode="R" horiz-adv-x="1210" d="M176 0v1417h416q126 0 207 -17t139 -57q72 -47 112 -126.5t40 -176.5q0 -138 -73.5 -231t-209.5 -127q72 -26 106 -70t101 -200l178 -412h-266l-129 307q-42 100 -70 152.5t-64.5 85.5t-74.5 42t-103 9h-61v-596h-248zM420 791h94q146 0 215 34q50 26 78.5 75t28.5 110 q0 120 -86 174q-66 39 -224 39h-106v-432z" />
<glyph unicode="S" horiz-adv-x="1128" d="M102 1024q0 192 127 304t346 112q172 0 398 -72l-49 -211q-193 82 -338 82q-103 0 -164.5 -48t-61.5 -130q0 -71 51.5 -115.5t204.5 -107.5q128 -53 190.5 -85t106.5 -69q117 -102 117 -283q0 -201 -132 -312.5t-368 -111.5q-209 0 -421 72l32 217q127 -49 211.5 -68.5 t169.5 -19.5q114 0 180 55t66 150q0 55 -20.5 88t-76 66.5t-177.5 85.5q-130 56 -181.5 82t-93.5 59q-117 94 -117 260z" />
<glyph unicode="T" horiz-adv-x="1116" d="M20 1217v200h1078v-200h-418v-1217h-248v1217h-412z" />
<glyph unicode="U" horiz-adv-x="1423" d="M164 629v788h248v-839q0 -123 14.5 -194t48.5 -114q35 -44 97.5 -68t140.5 -24q94 0 163 32t101 91q45 79 45 264v852h240v-788q0 -222 -17.5 -314t-73.5 -163q-135 -175 -458 -175q-362 0 -486 211q-38 66 -50.5 153.5t-12.5 287.5z" />
<glyph unicode="V" horiz-adv-x="1302" d="M0 1417h262l281 -782q73 -207 116 -356q57 191 119 358l281 780h246l-517 -1417h-270z" />
<glyph unicode="W" horiz-adv-x="1892" d="M61 1417h250l170 -774q35 -150 66 -324q30 142 76 314l200 784h262l193 -758q53 -207 78 -325q30 167 67 323l174 760h236l-340 -1417h-264l-197 760q-40 149 -84 350q-49 -210 -86 -346l-203 -764h-266z" />
<glyph unicode="X" horiz-adv-x="1392" d="M41 0l506 725l-481 692h288l348 -504l357 504h280l-493 -694l504 -723h-299l-357 522l-362 -522h-291z" />
<glyph unicode="Y" horiz-adv-x="1259" d="M-12 1417h288l263 -416q57 -95 100 -178q71 131 102 181l260 413h273l-518 -811v-606h-248v606z" />
<glyph unicode="Z" horiz-adv-x="1173" d="M66 0v186l714 1031h-690v200h991v-186l-712 -1030h735v-201h-1038z" />
<glyph unicode="[" horiz-adv-x="737" d="M188 -301v1837h433v-190h-203v-1457h203v-190h-433z" />
<glyph unicode="\" horiz-adv-x="544" d="M-18 1446h219l368 -1495h-219z" />
<glyph unicode="]" horiz-adv-x="737" d="M119 -111h200v1457h-200v190h430v-1837h-430v190z" />
<glyph unicode="^" d="M55 633l447 784h176l446 -784h-245l-289 526l-289 -526h-246z" />
<glyph unicode="_" horiz-adv-x="1024" d="M-70 -258h1166v-182h-1166v182z" />
<glyph unicode="`" horiz-adv-x="1024" d="M182 1497h291l248 -299h-223z" />
<glyph unicode="a" horiz-adv-x="1134" d="M78 293q0 98 43 174t123 119q100 53 309 53q29 0 170 -6v20q0 116 -58.5 177t-172.5 61q-130 0 -283 -88l-64 172q185 92 379 92q254 0 361 -137q45 -56 61.5 -130t16.5 -222v-312q0 -178 10 -266h-228l-8 119q-76 -77 -148.5 -109.5t-174.5 -32.5q-158 0 -247 84 t-89 232zM326 299q0 -72 44 -115t117 -43q135 0 236 146v196q-47 4 -109 4q-148 0 -218 -45.5t-70 -142.5z" />
<glyph unicode="b" horiz-adv-x="1220" d="M156 0q10 149 10 367v1130h240v-584q121 154 305 154q190 0 304.5 -148.5t114.5 -394.5q0 -266 -131 -418q-108 -129 -288 -129q-103 0 -176 39.5t-140 133.5l-8 -150h-231zM406 340q56 -91 115.5 -134.5t131.5 -43.5q104 0 167 99t63 265q0 164 -64 260.5t-172 96.5 q-69 0 -131.5 -45t-109.5 -129v-369z" />
<glyph unicode="c" horiz-adv-x="987" d="M92 518q0 258 131.5 403.5t364.5 145.5q177 0 338 -80l-72 -178q-123 76 -242 76q-131 0 -201.5 -94t-70.5 -269q0 -171 77 -265.5t216 -94.5q66 0 120.5 18.5t116.5 61.5l78 -174q-143 -91 -338 -91q-243 0 -380.5 143.5t-137.5 397.5z" />
<glyph unicode="d" horiz-adv-x="1220" d="M92 524q0 246 115 394.5t305 148.5q184 0 305 -154v584h240v-1130q0 -235 10 -367h-231l-9 150q-68 -94 -139.5 -133.5t-175.5 -39.5q-207 0 -322 170q-98 152 -98 377zM340 526q0 -166 62.5 -265t166.5 -99q138 0 248 178v369q-47 84 -110 129t-132 45 q-107 0 -171 -96.5t-64 -260.5z" />
<glyph unicode="e" horiz-adv-x="1159" d="M92 520q0 255 134 401t366 146q163 0 273 -65.5t157 -190.5q28 -72 38.5 -150.5t12.5 -214.5h-729q13 -147 87 -217.5t214 -70.5q155 0 311 100l84 -176q-182 -105 -401 -105q-263 0 -405 141t-142 402zM344 614h483q-3 132 -64.5 204.5t-170.5 72.5t-175.5 -74 t-72.5 -203z" />
<glyph unicode="f" horiz-adv-x="757" d="M57 862v182h166v70q0 190 58 279q79 129 274 129q83 0 190 -29l-20 -190q-60 28 -121 28q-76 0 -108.5 -55t-32.5 -184v-48h239v-182h-239v-862h-240v862h-166z" />
<glyph unicode="g" horiz-adv-x="1230" d="M92 543q0 238 114.5 381t305.5 143q206 0 322 -168l8 145h229q-10 -317 -10 -411v-514q0 -180 -18 -265.5t-72 -152.5q-133 -164 -428 -164q-223 0 -406 92l74 178q155 -88 313 -88q197 0 264 140q33 70 33 243v74q-71 -80 -143.5 -115.5t-167.5 -35.5q-191 0 -304.5 141 t-113.5 377zM340 539q0 -151 63.5 -240.5t169.5 -89.5q74 0 140 47t108 131v305q-40 89 -107 140t-145 51q-106 0 -167.5 -93t-61.5 -251z" />
<glyph unicode="h" horiz-adv-x="1255" d="M170 0v1497h240v-592q147 162 354 162q100 0 174.5 -37.5t112.5 -109.5q45 -83 45 -291v-629h-240v616q0 121 -20 177q-17 43 -56.5 66.5t-93.5 23.5q-147 0 -276 -176v-707h-240z" />
<glyph unicode="i" horiz-adv-x="573" d="M139 1382q0 64 42.5 106t107.5 42q64 0 105.5 -41.5t41.5 -106.5q0 -66 -41 -107.5t-106 -41.5q-66 0 -108 41.5t-42 107.5zM168 0v1044h240v-1044h-240z" />
<glyph unicode="j" horiz-adv-x="591" d="M-80 -440l21 186q68 -18 102 -18q76 0 108.5 53t32.5 178v1085h240v-1050q0 -141 -13 -215t-46 -121q-83 -121 -273 -121q-69 0 -172 23zM156 1384q0 63 42.5 105.5t106.5 42.5q66 0 108 -42t42 -108q0 -65 -42 -107t-108 -42t-107.5 42t-41.5 109z" />
<glyph unicode="k" horiz-adv-x="1103" d="M170 0v1497h240v-893l370 440h277l-404 -458l443 -586h-291l-395 537v-537h-240z" />
<glyph unicode="l" horiz-adv-x="577" d="M170 0v1497h240v-1497h-240z" />
<glyph unicode="m" horiz-adv-x="1851" d="M162 1044h227l8 -153q88 97 165.5 136.5t178.5 39.5q219 0 283 -190q92 106 170.5 148t181.5 42q94 0 164 -37.5t107 -109.5q43 -87 43 -291v-629h-240v616q0 127 -18 177q-15 42 -50.5 66t-83.5 24q-130 0 -247 -176v-707h-240v641q0 128 -34.5 185t-112.5 57 q-130 0 -252 -176v-707h-240v678q0 153 -10 366z" />
<glyph unicode="n" horiz-adv-x="1255" d="M162 1044h227l6 -153q97 98 179 137t192 39q99 0 173 -38t112 -109q45 -83 45 -291v-629h-240v616q0 121 -20 177q-36 90 -150 90q-142 0 -274 -176v-707h-240v678q0 158 -10 366z" />
<glyph unicode="o" horiz-adv-x="1206" d="M92 528q0 249 138 394t374 145q238 0 375 -146t137 -399t-137 -399t-375 -146q-239 0 -375.5 146.5t-136.5 404.5zM340 526q0 -172 70 -269t194 -97q123 0 193.5 96.5t70.5 265.5t-70.5 266t-193.5 97t-193.5 -96.5t-70.5 -262.5z" />
<glyph unicode="p" horiz-adv-x="1220" d="M156 1044h231l8 -143q70 89 143.5 127.5t172.5 38.5q190 0 304.5 -148.5t114.5 -394.5q0 -266 -131 -418q-108 -129 -290 -129q-98 0 -169 36.5t-134 119.5v-573h-240v1067q0 258 -10 417zM406 340q57 -93 116 -135.5t131 -42.5q104 0 167 99t63 265q0 164 -64 260.5 t-172 96.5q-135 0 -241 -172v-371z" />
<glyph unicode="q" horiz-adv-x="1220" d="M90 524q0 246 115 394.5t305 148.5q98 0 171.5 -38.5t145.5 -127.5l9 143h231q-10 -149 -10 -417v-1067h-240v573q-63 -83 -134.5 -119.5t-170.5 -36.5q-209 0 -324 170q-98 152 -98 377zM338 526q0 -166 62.5 -265t166.5 -99q72 0 132 42.5t118 135.5v371 q-106 172 -244 172q-107 0 -171 -96.5t-64 -260.5z" />
<glyph unicode="r" horiz-adv-x="782" d="M162 1044h225l6 -196q91 213 277 213q45 0 92 -12l-14 -211q-49 8 -82 8q-90 0 -157 -62.5t-101 -177.5v-606h-238v651q0 142 -8 393z" />
<glyph unicode="s" horiz-adv-x="931" d="M92 59l64 183q84 -46 145 -65t131 -19q82 0 127 35t45 98q0 61 -41 88q-20 15 -50.5 28t-117.5 44q-94 34 -138 55.5t-79 52.5q-80 74 -80 193q0 146 103 230.5t282 84.5q166 0 340 -76l-61 -182q-138 80 -268 80q-74 0 -117 -32t-43 -87q0 -56 57 -90q39 -21 164 -68 q161 -60 224 -126t63 -173q0 -154 -111 -245t-297 -91q-179 0 -342 82z" />
<glyph unicode="t" horiz-adv-x="763" d="M57 862v182h168v228l240 45v-273h237v-182h-237v-485q0 -116 30.5 -161.5t108.5 -45.5q42 0 113 25l22 -183q-106 -35 -213 -35q-179 0 -250 109q-28 41 -39.5 105.5t-11.5 173.5v497h-168z" />
<glyph unicode="u" horiz-adv-x="1245" d="M162 416v628h239v-616q0 -125 21 -176q36 -90 143 -90q69 0 139 45.5t132 130.5v706h239v-677q0 -193 10 -367h-227l-6 154q-92 -96 -175.5 -136.5t-189.5 -40.5q-99 0 -171 38t-109 110q-25 47 -35 112.5t-10 178.5z" />
<glyph unicode="v" horiz-adv-x="1103" d="M25 1044h247l217 -577q49 -132 78 -229q17 64 76 231l211 575h227l-391 -1044h-270z" />
<glyph unicode="w" horiz-adv-x="1697" d="M49 1044h238l139 -503q27 -97 70 -293q41 179 77 301l148 495h256l153 -491q54 -188 84 -305q25 108 29 129q38 140 47 170l142 497h217l-308 -1044h-254l-157 502q-49 162 -88 313q-34 -135 -86 -317l-148 -498h-258z" />
<glyph unicode="x" horiz-adv-x="1126" d="M31 0l403 528l-381 516h277l241 -348l256 348h265l-390 -505l398 -539h-275l-258 367l-272 -367h-264z" />
<glyph unicode="y" horiz-adv-x="1099" d="M12 -428l41 186q72 -30 131 -30q83 0 138 63.5t112 224.5l-420 1028h254l209 -528q32 -77 88 -240q38 113 88 250l197 518h233l-421 -1067q-55 -137 -98.5 -219t-95 -134t-108 -70.5t-139.5 -18.5q-94 0 -209 37z" />
<glyph unicode="z" horiz-adv-x="950" d="M61 0v162l512 700h-485v182h780v-170l-508 -692h525v-182h-824z" />
<glyph unicode="{" horiz-adv-x="737" d="M70 537v161q80 4 115 21t48 58.5t13 133.5v263q0 114 13.5 181t51.5 109.5t98.5 57t163.5 14.5h117v-174h-92q-75 0 -98 -34t-23 -148v-308q0 -136 -37 -184t-159 -70q123 -23 159.5 -71t36.5 -185v-307q0 -114 23 -148t98 -34h92v-174h-117q-103 0 -163.5 14.5t-98.5 57 t-51.5 109.5t-13.5 181v263q0 92 -13 133.5t-48 58.5t-115 21z" />
<glyph unicode="|" horiz-adv-x="589" d="M178 -440v1857h236v-1857h-236z" />
<glyph unicode="}" horiz-adv-x="737" d="M47 -127h92q75 0 98 34t23 148v307q0 137 37 185t160 71q-122 22 -159.5 70t-37.5 184v308q0 114 -23 148t-98 34h-92v174h117q103 0 163.5 -14.5t99 -57t52 -109.5t13.5 -181v-263q0 -92 13 -133.5t48 -58.5t115 -21v-161q-80 -4 -115 -21t-48 -58.5t-13 -133.5v-263 q0 -114 -13.5 -181t-52 -109.5t-99 -57t-163.5 -14.5h-117v174z" />
<glyph unicode="~" d="M74 444q85 145 152 201.5t153 56.5q53 0 103.5 -19t152.5 -79q73 -41 105.5 -54t60.5 -13q43 0 81.5 34t92.5 119l133 -90q-83 -149 -146 -203.5t-151 -54.5q-56 0 -108.5 18.5t-141.5 69.5q-91 53 -120 65.5t-60 12.5q-41 0 -74 -30t-98 -126z" />
<glyph unicode="&#xa1;" horiz-adv-x="694" d="M219 907q0 67 45.5 112.5t112.5 45.5q69 0 114.5 -45.5t45.5 -114.5q0 -67 -46 -112t-114 -45t-113 45t-45 114zM254 -334l18 950h209l19 -950h-246z" />
<glyph unicode="&#xa2;" d="M158 874q0 166 57.5 293t163.5 193q44 28 95.5 42t137.5 21v174h133v-176q78 -8 129 -21.5t113 -43.5l-57 -191q-97 55 -185 72v-707q51 6 95.5 24.5t105.5 59.5l49 -190q-57 -35 -112.5 -53t-137.5 -27v-168h-133v168q-97 9 -161 30.5t-117 63.5q-176 135 -176 436z M408 887q0 -153 52 -243t152 -109v702q-204 -41 -204 -350z" />
<glyph unicode="&#xa3;" d="M94 0v195h154q25 46 33 111.5t8 219.5v119h-176v176h176v101q0 165 19.5 244.5t74.5 140.5q119 131 352 131q90 0 170 -18.5t187 -63.5l-62 -203q-99 49 -157.5 66.5t-120.5 17.5q-118 0 -169 -76.5t-51 -255.5v-84h314v-176h-314v-119q0 -155 -6.5 -217t-29.5 -114h577 v-195h-979z" />
<glyph unicode="&#xa4;" d="M10 268l133 135q-90 137 -90 312q0 176 90 313l-133 135l123 123l129 -131q137 105 328 105t328 -105l129 131l120 -123l-133 -135q48 -74 69 -147t21 -166t-20.5 -165.5t-69.5 -146.5l133 -135l-120 -123l-129 129q-136 -102 -328 -102q-194 0 -328 102l-129 -129z M246 721q0 -87 23.5 -151.5t74.5 -118.5q49 -52 107.5 -75.5t138.5 -23.5q154 0 248 100t94 263q0 164 -94.5 264t-249.5 100q-152 0 -247 -99t-95 -259z" />
<glyph unicode="&#xa5;" d="M8 1417h281l307 -557l307 557h268l-372 -643h241v-131h-309l-20 -37v-96h327v-131h-327v-379h-242v379h-328v131h328v96l-20 37h-312v131h244z" />
<glyph unicode="&#xa6;" horiz-adv-x="589" d="M178 0v573h236v-573h-236zM178 844v573h236v-573h-236z" />
<glyph unicode="&#xa7;" d="M156 -219l63 194q168 -79 320 -79q97 0 148.5 36t51.5 103q0 61 -53 102q-28 21 -60.5 36t-144.5 60q-93 36 -141 62t-82 57q-41 35 -63.5 87t-22.5 110q0 83 41.5 152t132.5 135q-82 55 -114.5 113.5t-32.5 148.5q0 162 110 252t309 90q186 0 367 -82l-63 -195 q-161 76 -291 76q-82 0 -128 -35t-46 -98t55 -100q34 -22 65.5 -37t139.5 -58q94 -35 141.5 -60.5t81.5 -57.5q80 -71 80 -193q0 -87 -39 -155t-127 -136q75 -50 109 -111t34 -147q0 -167 -117 -261.5t-323 -94.5q-212 0 -401 86zM399 602q0 -37 23 -66.5t74 -58.5 q35 -20 168 -76l45 -18q84 87 84 162q0 65 -78 117q-47 27 -176 79l-45 21q-95 -80 -95 -160z" />
<glyph unicode="&#xa8;" horiz-adv-x="1024" d="M160 1362q0 60 39.5 98.5t99.5 38.5q63 0 102 -38.5t39 -100.5t-39 -101.5t-100 -39.5q-63 0 -102 40t-39 103zM584 1362q0 60 39.5 98.5t99.5 38.5q63 0 102 -38.5t39 -100.5t-39 -101.5t-100 -39.5q-63 0 -102 40t-39 103z" />
<glyph unicode="&#xa9;" horiz-adv-x="1638" d="M90 719q0 202 95 367t262 258.5t372 93.5q156 0 291.5 -55t231.5 -151t151 -231.5t55 -291.5q0 -155 -55 -290.5t-150.5 -232t-231 -151.5t-290.5 -55q-158 0 -294 55t-232 151.5t-150.5 234t-54.5 298.5zM184 717q0 -191 81 -341.5t226.5 -234.5t329.5 -84q181 0 326 84 t226 233t81 335q0 139 -48 260.5t-131.5 207t-201.5 134.5t-254 49q-180 0 -325.5 -83.5t-227.5 -230.5t-82 -329zM467 702q0 179 104.5 283.5t284.5 104.5q121 0 246 -52l-41 -129q-92 43 -180 43q-106 0 -168 -66t-62 -181q0 -114 65.5 -180t180.5 -66q46 0 84.5 10.5 t95.5 38.5l39 -133q-121 -56 -252 -56q-184 0 -290.5 103t-106.5 280z" />
<glyph unicode="&#xaa;" horiz-adv-x="737" d="M80 999q0 101 72 150t221 49q28 0 73 -2v16q0 53 -28.5 78t-91.5 25q-77 0 -179 -41l-22 110q85 29 127 37.5t106 8.5q162 0 217 -84q20 -31 25.5 -64t5.5 -125v-158q0 -77 6 -163h-147l-6 61q-44 -41 -86 -57.5t-99 -16.5q-91 0 -142.5 47t-51.5 129zM244 1008 q0 -32 21.5 -50t58.5 -18q71 0 122 57v105q-23 2 -47 2q-155 0 -155 -96z" />
<glyph unicode="&#xab;" horiz-adv-x="1138" d="M63 522l367 463l158 -119l-258 -344l258 -346l-158 -119zM530 522l365 463l158 -119l-256 -344l256 -346l-158 -119z" />
<glyph unicode="&#xac;" d="M84 592v188h958v-626h-208v438h-750z" />
<glyph unicode="&#xad;" horiz-adv-x="636" d="M82 483v189h473v-189h-473z" />
<glyph unicode="&#xae;" horiz-adv-x="1228" d="M90 1022q0 223 150 372.5t374 149.5q227 0 376 -150t149 -380q0 -150 -67.5 -272t-187.5 -190.5t-268 -68.5q-231 0 -378.5 151t-147.5 388zM180 1020q0 -203 122 -333t314 -130q188 0 310.5 129.5t122.5 327.5t-123 327t-312 129q-186 0 -310 -128.5t-124 -321.5z M428 735v553h166q129 0 178 -24q34 -17 53 -51.5t19 -77.5q0 -109 -119 -142q31 -14 45.5 -30.5t34.5 -61.5l69 -166h-135l-47 115q-26 64 -48 83t-69 19h-18v-217h-129zM557 1036h21q69 0 94 15q37 23 37 71q0 41 -27 59.5t-90 18.5h-35v-164z" />
<glyph unicode="&#xaf;" horiz-adv-x="1024" d="M174 1268v153h678v-153h-678z" />
<glyph unicode="&#xb0;" horiz-adv-x="679" d="M18 1126q0 137 90.5 224.5t231.5 87.5q144 0 234 -88t90 -228q0 -141 -89.5 -229t-232.5 -88q-147 0 -235.5 87.5t-88.5 233.5zM141 1124q0 -97 53.5 -153t147.5 -56q91 0 145 55.5t54 149.5t-54.5 149.5t-146.5 55.5q-91 0 -145 -55t-54 -146z" />
<glyph unicode="&#xb1;" d="M94 0v186h993v-186h-993zM94 596v186h395v277h203v-277h395v-186h-395v-272h-203v272h-395z" />
<glyph unicode="&#xb2;" horiz-adv-x="794" d="M106 639v135q114 83 248 203q74 69 107 120t33 97q0 44 -36 71t-96 27q-83 0 -217 -63l-36 137q140 64 274 64q136 0 212.5 -59t76.5 -163q0 -68 -32 -128t-108 -136q-109 -105 -192 -170h338v-135h-572z" />
<glyph unicode="&#xb3;" horiz-adv-x="794" d="M98 670l31 137q122 -43 219 -43q72 0 112 28.5t40 79.5q0 111 -191 111q-6 0 -76 -4v123q37 -4 72 -4q89 0 138 27.5t49 78.5q0 41 -38 65.5t-104 24.5q-82 0 -194 -37l-27 134q133 39 254 39q139 0 215 -53.5t76 -151.5q0 -135 -150 -178q83 -22 122.5 -67t39.5 -120 q0 -112 -82.5 -172.5t-236.5 -60.5q-141 0 -269 43z" />
<glyph unicode="&#xb4;" horiz-adv-x="1024" d="M326 1198l247 299h291l-315 -299h-223z" />
<glyph unicode="&#xb5;" d="M152 -440v1484h239v-602q0 -147 29 -204q44 -80 133 -80q63 0 115 45t114 151v690h240v-696q0 -152 8 -348h-225l-8 129q-54 -79 -114.5 -115.5t-137.5 -36.5q-99 0 -158 70v-487h-235z" />
<glyph unicode="&#xb6;" horiz-adv-x="1351" d="M41 1001q0 121 53.5 217t147.5 146q60 31 130.5 42t205.5 11h571v-1659h-227v1459h-238v-1459h-227v838q-196 9 -306 116t-110 289z" />
<glyph unicode="&#xb7;" horiz-adv-x="589" d="M137 586q0 66 46 110.5t114 44.5t113 -45t45 -112q0 -69 -45 -114.5t-113 -45.5q-69 0 -114.5 46t-45.5 116z" />
<glyph unicode="&#xb8;" horiz-adv-x="1024" d="M238 -375l241 307h269l-287 -307h-223z" />
<glyph unicode="&#xb9;" horiz-adv-x="794" d="M121 1274l250 143h149v-778h-170v610l-166 -96z" />
<glyph unicode="&#xba;" horiz-adv-x="737" d="M76 1130q0 138 79 219t214 81q136 0 214.5 -81.5t78.5 -222.5t-78.5 -222t-214.5 -81q-138 0 -215.5 81t-77.5 226zM240 1126q0 -83 34.5 -130.5t94.5 -47.5t94.5 48.5t34.5 131.5q0 81 -35 129t-94 48q-60 0 -94.5 -48t-34.5 -131z" />
<glyph unicode="&#xbb;" horiz-adv-x="1138" d="M84 174l256 346l-256 346l158 119l366 -465l-366 -463zM551 174l256 346l-256 346l158 119l364 -465l-364 -463z" />
<glyph unicode="&#xbc;" horiz-adv-x="1759" d="M98 1274l250 143h150v-778h-170v610l-166 -96zM471 -37l561 1491h164l-561 -1491h-164zM975 178v135l332 465h219v-475h114v-125h-114v-178h-168v178h-383zM1124 303h242v344z" />
<glyph unicode="&#xbd;" horiz-adv-x="1759" d="M94 1274l250 143h150v-778h-170v610l-166 -96zM444 -37l562 1491h161l-561 -1491h-162zM1036 0v135q114 83 248 203q139 130 139 217q0 44 -35.5 71t-95.5 27q-84 0 -217 -65l-37 139q140 64 275 64q136 0 212.5 -59t76.5 -163q0 -68 -32 -128t-108 -136 q-108 -105 -192 -170h338v-135h-572z" />
<glyph unicode="&#xbe;" horiz-adv-x="1759" d="M104 670l31 137q122 -43 219 -43q72 0 112 28.5t40 79.5q0 111 -191 111q-5 0 -75 -4v123q37 -4 71 -4q89 0 138 27.5t49 78.5q0 41 -38 65.5t-104 24.5q-82 0 -194 -37l-27 134q133 39 254 39q139 0 215 -53.5t76 -151.5q0 -135 -150 -178q83 -22 122.5 -67t39.5 -120 q0 -112 -82.5 -172.5t-236.5 -60.5q-141 0 -269 43zM526 -37l561 1491h164l-561 -1491h-164zM979 178v135l332 465h219v-475h117v-125h-117v-178h-168v178h-383zM1128 303h242v344z" />
<glyph unicode="&#xbf;" horiz-adv-x="925" d="M29 -29q0 99 51 175.5t190 183.5q83 64 104 101.5t21 117.5v69h223v-75q0 -54 -1 -84t-8 -62.5t-16 -50.5t-30.5 -43.5t-45.5 -46.5t-68 -55q-102 -82 -132 -121.5t-30 -93.5q0 -69 49.5 -111.5t130.5 -42.5q122 0 299 98l68 -182q-109 -56 -201.5 -80t-196.5 -24 q-188 0 -297.5 88t-109.5 239zM348 907q0 67 45 112.5t113 45.5q69 0 114.5 -45.5t45.5 -114.5q0 -67 -46 -112t-114 -45t-113 45t-45 114z" />
<glyph unicode="&#xc0;" horiz-adv-x="1374" d="M20 0l525 1417h274l537 -1417h-264l-146 406h-532l-146 -406h-248zM336 1849h291l247 -299h-223zM481 600h398l-119 336q-36 99 -80 244q-30 -105 -80 -244z" />
<glyph unicode="&#xc1;" horiz-adv-x="1374" d="M20 0l525 1417h274l537 -1417h-264l-146 406h-532l-146 -406h-248zM481 600h398l-119 336q-36 99 -80 244q-30 -105 -80 -244zM526 1550l248 299h291l-315 -299h-224z" />
<glyph unicode="&#xc2;" horiz-adv-x="1374" d="M20 0l525 1417h274l537 -1417h-264l-146 406h-532l-146 -406h-248zM319 1550l226 299h284l228 -299h-226l-143 187l-143 -187h-226zM481 600h398l-119 336q-36 99 -80 244q-30 -105 -80 -244z" />
<glyph unicode="&#xc3;" horiz-adv-x="1374" d="M20 0l525 1417h274l537 -1417h-264l-146 406h-532l-146 -406h-248zM309 1573q9 117 64 183.5t143 66.5q68 0 193 -45q101 -35 137 -35q75 0 84 84h139q-24 -252 -211 -252q-38 0 -72.5 7.5t-109.5 33.5q-116 39 -148 39q-59 0 -77 -82h-142zM481 600h398l-119 336 q-36 99 -80 244q-30 -105 -80 -244z" />
<glyph unicode="&#xc4;" horiz-adv-x="1374" d="M20 0l525 1417h274l537 -1417h-264l-146 406h-532l-146 -406h-248zM332 1704q0 63 41 103t104 40t104.5 -41t41.5 -104t-41.5 -104.5t-104.5 -41.5q-64 0 -104.5 41.5t-40.5 106.5zM481 600h398l-119 336q-36 99 -80 244q-30 -105 -80 -244zM756 1704q0 63 41 103t104 40 t104.5 -41t41.5 -104t-41.5 -104.5t-104.5 -41.5q-64 0 -104.5 41.5t-40.5 106.5z" />
<glyph unicode="&#xc5;" horiz-adv-x="1374" d="M20 0l527 1419q-96 68 -96 193q0 101 67 168t170 67t170.5 -67t67.5 -168q0 -63 -27 -115t-78 -84l535 -1413h-264l-146 406h-532l-146 -406h-248zM481 600h398l-119 336q-25 66 -80 244q-25 -84 -35 -115q-15 -49 -45 -129zM575 1612q0 -56 30.5 -88.5t82.5 -32.5 q51 0 82 32.5t31 86.5q0 55 -31 88t-82 33t-82 -33t-31 -86z" />
<glyph unicode="&#xc6;" horiz-adv-x="1898" d="M-82 0l854 1417h985v-200h-581v-398h553v-201h-553v-417h610v-201h-858v365h-514l-211 -365h-285zM520 559h408v674h-17z" />
<glyph unicode="&#xc7;" horiz-adv-x="1251" d="M102 698q0 341 183.5 541.5t496.5 200.5q111 0 208 -21.5t210 -72.5l-82 -195q-172 88 -323 88q-200 0 -317.5 -144t-117.5 -390q0 -244 120 -385.5t327 -141.5q89 0 161.5 20t176.5 74l69 -200q-118 -54 -209 -74.5t-210 -20.5q-324 0 -508.5 191.5t-184.5 529.5z M377 -375l241 307h269l-287 -307h-223z" />
<glyph unicode="&#xc8;" horiz-adv-x="1146" d="M176 0v1417h830v-200h-582v-398h553v-201h-553v-417h612v-201h-860zM244 1849h291l247 -299h-223z" />
<glyph unicode="&#xc9;" horiz-adv-x="1146" d="M176 0v1417h830v-200h-582v-398h553v-201h-553v-417h612v-201h-860zM424 1550l248 299h291l-316 -299h-223z" />
<glyph unicode="&#xca;" horiz-adv-x="1146" d="M176 0v1417h830v-200h-582v-398h553v-201h-553v-417h612v-201h-860zM223 1550l226 299h284l228 -299h-226l-143 187l-143 -187h-226z" />
<glyph unicode="&#xcb;" horiz-adv-x="1146" d="M176 0v1417h830v-200h-582v-398h553v-201h-553v-417h612v-201h-860zM233 1704q0 63 41.5 103t104.5 40t104 -41t41 -104t-41 -104.5t-104 -41.5q-64 0 -105 41.5t-41 106.5zM657 1704q0 63 41.5 103t104.5 40t104 -41t41 -104t-41 -104.5t-104 -41.5q-64 0 -105 41.5 t-41 106.5z" />
<glyph unicode="&#xcc;" horiz-adv-x="600" d="M-57 1849h290l248 -299h-223zM176 0v1417h248v-1417h-248z" />
<glyph unicode="&#xcd;" horiz-adv-x="600" d="M139 1550l248 299h291l-316 -299h-223zM176 0v1417h248v-1417h-248z" />
<glyph unicode="&#xce;" horiz-adv-x="600" d="M-68 1550l226 299h284l228 -299h-226l-143 187l-143 -187h-226zM176 0v1417h248v-1417h-248z" />
<glyph unicode="&#xcf;" horiz-adv-x="600" d="M-57 1704q0 63 41 103t104 40t104 -41t41 -104t-41 -104.5t-104 -41.5q-64 0 -104.5 41.5t-40.5 106.5zM176 0v1417h248v-1417h-248zM367 1704q0 63 41 103t104 40t104 -41t41 -104t-41 -104.5t-104 -41.5q-64 0 -104.5 41.5t-40.5 106.5z" />
<glyph unicode="&#xd0;" horiz-adv-x="1404" d="M4 649v148h172v620h356q205 0 330 -32t219 -107q224 -181 224 -565q0 -211 -67 -364.5t-196 -239.5q-91 -60 -209.5 -84.5t-320.5 -24.5h-336v649h-172zM424 201h98q233 0 348 80q84 59 130.5 171.5t46.5 256.5t-45 257t-125 175q-62 45 -136.5 60.5t-228.5 15.5h-88 v-420h285v-148h-285v-448z" />
<glyph unicode="&#xd1;" horiz-adv-x="1482" d="M176 0v1417h277l454 -753q83 -138 140 -258l26 -52q-4 88 -4 244v819h238v-1417h-275l-444 731q-58 97 -86.5 151t-91.5 183q4 -117 4 -309v-756h-238zM387 1573q9 117 64 183.5t143 66.5q67 0 192 -45q101 -35 138 -35q75 0 84 84h139q-24 -252 -211 -252 q-38 0 -72.5 7.5t-109.5 33.5q-116 39 -148 39q-60 0 -78 -82h-141z" />
<glyph unicode="&#xd2;" horiz-adv-x="1517" d="M102 717q0 164 54.5 309.5t152.5 243.5q164 170 451 170q326 0 500 -226q157 -204 157 -505q0 -171 -53 -316t-154 -246q-164 -170 -450 -170q-326 0 -500 226q-158 204 -158 514zM360 715q0 -249 107 -393t293 -144q184 0 291.5 143t107.5 388t-107.5 387.5 t-291.5 142.5q-183 0 -291.5 -142.5t-108.5 -381.5zM430 1849h291l248 -299h-224z" />
<glyph unicode="&#xd3;" horiz-adv-x="1517" d="M102 717q0 164 54.5 309.5t152.5 243.5q164 170 451 170q326 0 500 -226q157 -204 157 -505q0 -171 -53 -316t-154 -246q-164 -170 -450 -170q-326 0 -500 226q-158 204 -158 514zM360 715q0 -249 107 -393t293 -144q184 0 291.5 143t107.5 388t-107.5 387.5 t-291.5 142.5q-183 0 -291.5 -142.5t-108.5 -381.5zM573 1550l248 299h291l-315 -299h-224z" />
<glyph unicode="&#xd4;" horiz-adv-x="1517" d="M102 717q0 164 54.5 309.5t152.5 243.5q164 170 451 170q326 0 500 -226q157 -204 157 -505q0 -171 -53 -316t-154 -246q-164 -170 -450 -170q-326 0 -500 226q-158 204 -158 514zM360 715q0 -249 107 -393t293 -144q184 0 291.5 143t107.5 388t-107.5 387.5 t-291.5 142.5q-183 0 -291.5 -142.5t-108.5 -381.5zM391 1550l225 299h285l227 -299h-225l-143 187l-144 -187h-225z" />
<glyph unicode="&#xd5;" horiz-adv-x="1517" d="M102 717q0 164 54.5 309.5t152.5 243.5q164 170 451 170q326 0 500 -226q157 -204 157 -505q0 -171 -53 -316t-154 -246q-164 -170 -450 -170q-326 0 -500 226q-158 204 -158 514zM360 715q0 -249 107 -393t293 -144q184 0 291.5 143t107.5 388t-107.5 387.5 t-291.5 142.5q-183 0 -291.5 -142.5t-108.5 -381.5zM379 1573q9 117 64 183.5t143 66.5q67 0 192 -45q101 -35 137 -35q75 0 84 84h140q-24 -252 -211 -252q-38 0 -73 7.5t-110 33.5q-116 39 -147 39q-60 0 -78 -82h-141z" />
<glyph unicode="&#xd6;" horiz-adv-x="1517" d="M102 717q0 164 54.5 309.5t152.5 243.5q164 170 451 170q326 0 500 -226q157 -204 157 -505q0 -171 -53 -316t-154 -246q-164 -170 -450 -170q-326 0 -500 226q-158 204 -158 514zM360 715q0 -249 107 -393t293 -144q184 0 291.5 143t107.5 388t-107.5 387.5 t-291.5 142.5q-183 0 -291.5 -142.5t-108.5 -381.5zM403 1704q0 63 41.5 103t104.5 40t104 -41t41 -104t-41 -104.5t-104 -41.5q-64 0 -105 41.5t-41 106.5zM827 1704q0 63 41.5 103t104.5 40t104 -41t41 -104t-41 -104.5t-104 -41.5q-64 0 -105 41.5t-41 106.5z" />
<glyph unicode="&#xd7;" d="M133 199l324 323l-324 324l133 131l324 -322l323 322l131 -131l-321 -324l321 -323l-133 -133l-321 323l-324 -323z" />
<glyph unicode="&#xd8;" horiz-adv-x="1517" d="M100 709q0 171 53 315.5t154 245.5q167 170 453 170q251 0 416 -140l131 154l98 -88l-139 -164q78 -113 113.5 -229.5t35.5 -263.5q0 -170 -53.5 -315.5t-153.5 -246.5q-167 -170 -454 -170q-249 0 -414 140l-129 -152l-102 88l139 162q-148 215 -148 494zM358 705 q0 -84 13 -146t47 -145l608 710q-60 61 -123 88t-147 27q-185 0 -291.5 -142.5t-106.5 -391.5zM489 293q109 -115 269 -115q184 0 291.5 143.5t107.5 389.5q0 86 -12.5 149.5t-46.5 145.5z" />
<glyph unicode="&#xd9;" horiz-adv-x="1423" d="M164 629v788h248v-839q0 -123 14.5 -194t48.5 -114q35 -44 97.5 -68t140.5 -24q94 0 163 32t101 91q45 79 45 264v852h240v-788q0 -222 -17.5 -314t-73.5 -163q-135 -175 -458 -175q-362 0 -486 211q-38 66 -50.5 153.5t-12.5 287.5zM383 1849h291l248 -299h-224z" />
<glyph unicode="&#xda;" horiz-adv-x="1423" d="M164 629v788h248v-839q0 -123 14.5 -194t48.5 -114q35 -44 97.5 -68t140.5 -24q94 0 163 32t101 91q45 79 45 264v852h240v-788q0 -222 -17.5 -314t-73.5 -163q-135 -175 -458 -175q-362 0 -486 211q-38 66 -50.5 153.5t-12.5 287.5zM571 1550l248 299h291l-315 -299 h-224z" />
<glyph unicode="&#xdb;" horiz-adv-x="1423" d="M164 629v788h248v-839q0 -123 14.5 -194t48.5 -114q35 -44 97.5 -68t140.5 -24q94 0 163 32t101 91q45 79 45 264v852h240v-788q0 -222 -17.5 -314t-73.5 -163q-135 -175 -458 -175q-362 0 -486 211q-38 66 -50.5 153.5t-12.5 287.5zM344 1550l225 299h285l227 -299h-225 l-143 187l-144 -187h-225z" />
<glyph unicode="&#xdc;" horiz-adv-x="1423" d="M164 629v788h248v-839q0 -123 14.5 -194t48.5 -114q35 -44 97.5 -68t140.5 -24q94 0 163 32t101 91q45 79 45 264v852h240v-788q0 -222 -17.5 -314t-73.5 -163q-135 -175 -458 -175q-362 0 -486 211q-38 66 -50.5 153.5t-12.5 287.5zM356 1704q0 63 41.5 103t104.5 40 t104 -41t41 -104t-41 -104.5t-104 -41.5q-64 0 -105 41.5t-41 106.5zM780 1704q0 63 41.5 103t104.5 40t104 -41t41 -104t-41 -104.5t-104 -41.5q-64 0 -105 41.5t-41 106.5z" />
<glyph unicode="&#xdd;" horiz-adv-x="1259" d="M-12 1417h288l263 -416q57 -95 100 -178q71 131 102 181l260 413h273l-518 -811v-606h-248v606zM492 1550l247 299h291l-315 -299h-223z" />
<glyph unicode="&#xde;" horiz-adv-x="1128" d="M176 0v1417h248v-278h94q160 0 251 -19t159 -65q76 -54 117.5 -142.5t41.5 -197.5q0 -110 -42.5 -198.5t-122.5 -145.5q-122 -84 -375 -84h-123v-287h-248zM424 487h76q93 0 143 7.5t88 27.5q46 23 72 73t26 114q0 62 -23.5 111t-66.5 77q-37 23 -88 33t-139 10h-88v-453 z" />
<glyph unicode="&#xdf;" horiz-adv-x="1224" d="M164 0v993q0 152 16.5 234.5t59.5 140.5q115 154 364 154q207 0 329 -107t122 -289q0 -121 -60 -205t-166 -112q78 -19 122 -41.5t81 -62.5q101 -107 101 -285q0 -204 -122.5 -323.5t-332.5 -119.5q-73 0 -168 19l27 188q57 -14 100 -14q117 0 182.5 68.5t65.5 191.5 q0 127 -74.5 201t-202.5 74q-16 0 -37 -3v183q236 3 236 235q0 103 -53.5 161t-147.5 58q-138 0 -182 -129q-21 -64 -21 -213v-997h-239z" />
<glyph unicode="&#xe0;" horiz-adv-x="1134" d="M78 293q0 98 43 174t123 119q100 53 309 53q29 0 170 -6v20q0 116 -58.5 177t-172.5 61q-130 0 -283 -88l-64 172q185 92 379 92q254 0 361 -137q45 -56 61.5 -130t16.5 -222v-312q0 -178 10 -266h-228l-8 119q-76 -77 -148.5 -109.5t-174.5 -32.5q-158 0 -247 84 t-89 232zM238 1497h290l248 -299h-223zM326 299q0 -72 44 -115t117 -43q135 0 236 146v196q-47 4 -109 4q-148 0 -218 -45.5t-70 -142.5z" />
<glyph unicode="&#xe1;" horiz-adv-x="1134" d="M78 293q0 98 43 174t123 119q100 53 309 53q29 0 170 -6v20q0 116 -58.5 177t-172.5 61q-130 0 -283 -88l-64 172q185 92 379 92q254 0 361 -137q45 -56 61.5 -130t16.5 -222v-312q0 -178 10 -266h-228l-8 119q-76 -77 -148.5 -109.5t-174.5 -32.5q-158 0 -247 84 t-89 232zM326 299q0 -72 44 -115t117 -43q135 0 236 146v196q-47 4 -109 4q-148 0 -218 -45.5t-70 -142.5zM381 1198l248 299h291l-316 -299h-223z" />
<glyph unicode="&#xe2;" horiz-adv-x="1134" d="M78 293q0 98 43 174t123 119q100 53 309 53q29 0 170 -6v20q0 116 -58.5 177t-172.5 61q-130 0 -283 -88l-64 172q185 92 379 92q254 0 361 -137q45 -56 61.5 -130t16.5 -222v-312q0 -178 10 -266h-228l-8 119q-76 -77 -148.5 -109.5t-174.5 -32.5q-158 0 -247 84 t-89 232zM186 1198l226 299h284l228 -299h-226l-143 186l-143 -186h-226zM326 299q0 -72 44 -115t117 -43q135 0 236 146v196q-47 4 -109 4q-148 0 -218 -45.5t-70 -142.5z" />
<glyph unicode="&#xe3;" horiz-adv-x="1134" d="M78 293q0 98 43 174t123 119q100 53 309 53q29 0 170 -6v20q0 116 -58.5 177t-172.5 61q-130 0 -283 -88l-64 172q185 92 379 92q254 0 361 -137q45 -56 61.5 -130t16.5 -222v-312q0 -178 10 -266h-228l-8 119q-76 -77 -148.5 -109.5t-174.5 -32.5q-158 0 -247 84 t-89 232zM164 1217q9 117 64 184t143 67q67 0 192 -45q98 -34 137 -34q75 0 84 84h140q-24 -254 -211 -254q-38 0 -73 7.5t-110 33.5q-113 38 -147 38q-60 0 -78 -81h-141zM326 299q0 -72 44 -115t117 -43q135 0 236 146v196q-47 4 -109 4q-148 0 -218 -45.5t-70 -142.5z " />
<glyph unicode="&#xe4;" horiz-adv-x="1134" d="M78 293q0 98 43 174t123 119q100 53 309 53q29 0 170 -6v20q0 116 -58.5 177t-172.5 61q-130 0 -283 -88l-64 172q185 92 379 92q254 0 361 -137q45 -56 61.5 -130t16.5 -222v-312q0 -178 10 -266h-228l-8 119q-76 -77 -148.5 -109.5t-174.5 -32.5q-158 0 -247 84 t-89 232zM209 1362q0 60 39.5 98.5t99.5 38.5q63 0 102 -38.5t39 -100.5t-39 -101.5t-100 -39.5q-63 0 -102 40t-39 103zM326 299q0 -72 44 -115t117 -43q135 0 236 146v196q-47 4 -109 4q-148 0 -218 -45.5t-70 -142.5zM633 1362q0 60 39.5 98.5t99.5 38.5q63 0 102 -38.5 t39 -100.5t-39 -101.5t-100 -39.5q-63 0 -102 40t-39 103z" />
<glyph unicode="&#xe5;" horiz-adv-x="1134" d="M78 293q0 98 43 174t123 119q100 53 309 53q29 0 170 -6v20q0 116 -58.5 177t-172.5 61q-130 0 -283 -88l-64 172q185 92 379 92q254 0 361 -137q45 -56 61.5 -130t16.5 -222v-312q0 -178 10 -266h-228l-8 119q-76 -77 -148.5 -109.5t-174.5 -32.5q-158 0 -247 84 t-89 232zM326 299q0 -72 44 -115t117 -43q135 0 236 146v196q-47 4 -109 4q-148 0 -218 -45.5t-70 -142.5zM346 1380q0 92 63.5 154.5t157.5 62.5q95 0 158 -62.5t63 -156.5q0 -95 -63 -158t-158 -63t-158 63t-63 160zM465 1378q0 -51 27.5 -80.5t74.5 -29.5q46 0 74.5 30 t28.5 80q0 49 -28.5 79t-74.5 30t-74 -30t-28 -79z" />
<glyph unicode="&#xe6;" horiz-adv-x="1755" d="M78 291q0 96 44 171t126 116q97 53 305 53q65 0 172 -8v30q0 40 -13 86t-32 72q-62 80 -188 80q-130 0 -283 -88l-64 172q185 92 379 92q244 0 357 -131q69 69 146 100t181 31q154 0 260 -66t150 -190q28 -72 38.5 -151t10.5 -214h-698q12 -147 82 -217.5t202 -70.5 q150 0 297 100l84 -176q-171 -105 -395 -105q-152 0 -244.5 41.5t-163.5 141.5q-78 -99 -169.5 -141t-227.5 -42q-172 0 -264 81t-92 233zM326 295q0 -69 44 -111.5t117 -42.5q98 0 167 61.5t69 149.5v121q-94 4 -111 4q-146 0 -216 -45t-70 -137zM969 614h454 q-5 132 -62.5 203.5t-160.5 71.5q-101 0 -163 -73.5t-68 -201.5z" />
<glyph unicode="&#xe7;" horiz-adv-x="987" d="M92 518q0 258 131.5 403.5t364.5 145.5q177 0 338 -80l-72 -178q-123 76 -242 76q-131 0 -201.5 -94t-70.5 -269q0 -171 77 -265.5t216 -94.5q66 0 120.5 18.5t116.5 61.5l78 -174q-143 -91 -338 -91q-243 0 -380.5 143.5t-137.5 397.5zM221 -375l242 307h268l-287 -307 h-223z" />
<glyph unicode="&#xe8;" horiz-adv-x="1159" d="M92 520q0 255 134 401t366 146q163 0 273 -65.5t157 -190.5q28 -72 38.5 -150.5t12.5 -214.5h-729q13 -147 87 -217.5t214 -70.5q155 0 311 100l84 -176q-182 -105 -401 -105q-263 0 -405 141t-142 402zM252 1497h291l248 -299h-224zM344 614h483q-3 132 -64.5 204.5 t-170.5 72.5t-175.5 -74t-72.5 -203z" />
<glyph unicode="&#xe9;" horiz-adv-x="1159" d="M92 520q0 255 134 401t366 146q163 0 273 -65.5t157 -190.5q28 -72 38.5 -150.5t12.5 -214.5h-729q13 -147 87 -217.5t214 -70.5q155 0 311 100l84 -176q-182 -105 -401 -105q-263 0 -405 141t-142 402zM344 614h483q-3 132 -64.5 204.5t-170.5 72.5t-175.5 -74 t-72.5 -203zM422 1198l248 299h291l-316 -299h-223z" />
<glyph unicode="&#xea;" horiz-adv-x="1159" d="M92 520q0 255 134 401t366 146q163 0 273 -65.5t157 -190.5q28 -72 38.5 -150.5t12.5 -214.5h-729q13 -147 87 -217.5t214 -70.5q155 0 311 100l84 -176q-182 -105 -401 -105q-263 0 -405 141t-142 402zM229 1198l226 299h284l228 -299h-226l-143 186l-143 -186h-226z M344 614h483q-3 132 -64.5 204.5t-170.5 72.5t-175.5 -74t-72.5 -203z" />
<glyph unicode="&#xeb;" horiz-adv-x="1159" d="M92 520q0 255 134 401t366 146q163 0 273 -65.5t157 -190.5q28 -72 38.5 -150.5t12.5 -214.5h-729q13 -147 87 -217.5t214 -70.5q155 0 311 100l84 -176q-182 -105 -401 -105q-263 0 -405 141t-142 402zM248 1362q0 60 39.5 98.5t99.5 38.5q63 0 102 -38.5t39 -100.5 t-39 -101.5t-100 -39.5q-63 0 -102 40t-39 103zM344 614h483q-3 132 -64.5 204.5t-170.5 72.5t-175.5 -74t-72.5 -203zM672 1362q0 60 39.5 98.5t99.5 38.5q63 0 102 -38.5t39 -100.5t-39 -101.5t-100 -39.5q-63 0 -102 40t-39 103z" />
<glyph unicode="&#xec;" horiz-adv-x="573" d="M-59 1497h290l248 -299h-223zM166 0v1044h240v-1044h-240z" />
<glyph unicode="&#xed;" horiz-adv-x="573" d="M125 1198l248 299h291l-316 -299h-223zM166 0v1044h240v-1044h-240z" />
<glyph unicode="&#xee;" horiz-adv-x="573" d="M-82 1198l225 299h285l227 -299h-225l-143 186l-144 -186h-225zM166 0v1044h240v-1044h-240z" />
<glyph unicode="&#xef;" horiz-adv-x="573" d="M-66 1362q0 60 40 98.5t100 38.5q63 0 102 -38.5t39 -100.5t-39 -101.5t-100 -39.5q-63 0 -102.5 40t-39.5 103zM168 0v1044h240v-1044h-240zM358 1362q0 60 40 98.5t100 38.5q63 0 102 -38.5t39 -100.5t-39 -101.5t-100 -39.5q-63 0 -102.5 40t-39.5 103z" />
<glyph unicode="&#xf0;" horiz-adv-x="1161" d="M92 483q0 224 116.5 357t313.5 133q57 0 97 -9t96 -34q-79 138 -189 229l-286 -131l-45 107l219 102q-100 57 -226 92l60 187q220 -38 399 -170l266 122l50 -106l-218 -100q158 -158 242 -353.5t84 -402.5q0 -253 -130 -391t-368 -138q-225 0 -353 134.5t-128 371.5z M340 481q0 -151 63.5 -236t176.5 -85q110 0 176.5 87.5t66.5 233.5q0 145 -66 227.5t-182 82.5q-112 0 -173.5 -81t-61.5 -229z" />
<glyph unicode="&#xf1;" horiz-adv-x="1255" d="M162 1044h227l6 -153q97 98 179 137t192 39q99 0 173 -38t112 -109q45 -83 45 -291v-629h-240v616q0 121 -20 177q-36 90 -150 90q-142 0 -274 -176v-707h-240v678q0 158 -10 366zM276 1217q9 117 64 184t143 67q68 0 193 -45q98 -34 137 -34q75 0 84 84h139 q-24 -254 -211 -254q-38 0 -72.5 7.5t-109.5 33.5q-113 38 -147 38q-60 0 -78 -81h-142z" />
<glyph unicode="&#xf2;" horiz-adv-x="1206" d="M92 528q0 249 138 394t374 145q238 0 375 -146t137 -399t-137 -399t-375 -146q-239 0 -375.5 146.5t-136.5 404.5zM274 1497h291l248 -299h-223zM340 526q0 -172 70 -269t194 -97q123 0 193.5 96.5t70.5 265.5t-70.5 266t-193.5 97t-193.5 -96.5t-70.5 -262.5z" />
<glyph unicode="&#xf3;" horiz-adv-x="1206" d="M92 528q0 249 138 394t374 145q238 0 375 -146t137 -399t-137 -399t-375 -146q-239 0 -375.5 146.5t-136.5 404.5zM340 526q0 -172 70 -269t194 -97q123 0 193.5 96.5t70.5 265.5t-70.5 266t-193.5 97t-193.5 -96.5t-70.5 -262.5zM418 1198l248 299h290l-315 -299h-223z " />
<glyph unicode="&#xf4;" horiz-adv-x="1206" d="M92 528q0 249 138 394t374 145q238 0 375 -146t137 -399t-137 -399t-375 -146q-239 0 -375.5 146.5t-136.5 404.5zM236 1198l225 299h284l228 -299h-225l-144 186l-143 -186h-225zM340 526q0 -172 70 -269t194 -97q123 0 193.5 96.5t70.5 265.5t-70.5 266t-193.5 97 t-193.5 -96.5t-70.5 -262.5z" />
<glyph unicode="&#xf5;" horiz-adv-x="1206" d="M92 528q0 249 138 394t374 145q238 0 375 -146t137 -399t-137 -399t-375 -146q-239 0 -375.5 146.5t-136.5 404.5zM223 1217q9 117 64 184t143 67q68 0 193 -45q98 -34 137 -34q75 0 84 84h139q-24 -254 -211 -254q-38 0 -72.5 7.5t-109.5 33.5q-113 38 -148 38 q-59 0 -77 -81h-142zM340 526q0 -172 70 -269t194 -97q123 0 193.5 96.5t70.5 265.5t-70.5 266t-193.5 97t-193.5 -96.5t-70.5 -262.5z" />
<glyph unicode="&#xf6;" horiz-adv-x="1206" d="M92 528q0 249 138 394t374 145q238 0 375 -146t137 -399t-137 -399t-375 -146q-239 0 -375.5 146.5t-136.5 404.5zM252 1362q0 60 39.5 98.5t99.5 38.5q63 0 102 -38.5t39 -100.5t-39 -101.5t-100 -39.5q-63 0 -102 40t-39 103zM340 526q0 -172 70 -269t194 -97 q123 0 193.5 96.5t70.5 265.5t-70.5 266t-193.5 97t-193.5 -96.5t-70.5 -262.5zM676 1362q0 60 39.5 98.5t99.5 38.5q63 0 102 -38.5t39 -100.5t-39 -101.5t-100 -39.5q-63 0 -102 40t-39 103z" />
<glyph unicode="&#xf7;" d="M94 428v188h993v-188h-993zM449 164q0 62 40 101.5t103 39.5t103 -40t40 -103t-40 -103.5t-103 -40.5q-64 0 -103.5 40.5t-39.5 105.5zM449 881q0 63 41 103t104 40t103 -40t40 -103q0 -64 -40 -105t-103 -41q-64 0 -104.5 40.5t-40.5 105.5z" />
<glyph unicode="&#xf8;" horiz-adv-x="1206" d="M53 45l131 137q-49 76 -70.5 156t-21.5 184q0 253 137 399t373 146q106 0 182 -24.5t150 -81.5l125 129l90 -91l-129 -133q51 -78 73.5 -159.5t22.5 -186.5q0 -252 -137.5 -397.5t-376.5 -145.5q-196 0 -332 109l-127 -131zM334 518q0 -37 3 -56.5t17 -82.5l4 -17 l430 447q-72 78 -186 78q-126 0 -197 -98.5t-71 -270.5zM418 240q73 -82 188 -82q126 0 197 97t71 269q0 46 -4.5 76t-21.5 88z" />
<glyph unicode="&#xf9;" horiz-adv-x="1245" d="M162 416v628h239v-616q0 -125 21 -176q36 -90 143 -90q69 0 139 45.5t132 130.5v706h239v-677q0 -193 10 -367h-227l-6 154q-92 -96 -175.5 -136.5t-189.5 -40.5q-99 0 -171 38t-109 110q-25 47 -35 112.5t-10 178.5zM293 1497h291l247 -299h-223z" />
<glyph unicode="&#xfa;" horiz-adv-x="1245" d="M162 416v628h239v-616q0 -125 21 -176q36 -90 143 -90q69 0 139 45.5t132 130.5v706h239v-677q0 -193 10 -367h-227l-6 154q-92 -96 -175.5 -136.5t-189.5 -40.5q-99 0 -171 38t-109 110q-25 47 -35 112.5t-10 178.5zM467 1198l248 299h291l-316 -299h-223z" />
<glyph unicode="&#xfb;" horiz-adv-x="1245" d="M162 416v628h239v-616q0 -125 21 -176q36 -90 143 -90q69 0 139 45.5t132 130.5v706h239v-677q0 -193 10 -367h-227l-6 154q-92 -96 -175.5 -136.5t-189.5 -40.5q-99 0 -171 38t-109 110q-25 47 -35 112.5t-10 178.5zM254 1198l225 299h285l227 -299h-225l-143 186 l-144 -186h-225z" />
<glyph unicode="&#xfc;" horiz-adv-x="1245" d="M162 416v628h239v-616q0 -125 21 -176q36 -90 143 -90q69 0 139 45.5t132 130.5v706h239v-677q0 -193 10 -367h-227l-6 154q-92 -96 -175.5 -136.5t-189.5 -40.5q-99 0 -171 38t-109 110q-25 47 -35 112.5t-10 178.5zM270 1362q0 60 40 98.5t100 38.5q63 0 102 -38.5 t39 -100.5t-39 -101.5t-100 -39.5q-63 0 -102.5 40t-39.5 103zM694 1362q0 60 40 98.5t100 38.5q63 0 102 -38.5t39 -100.5t-39 -101.5t-100 -39.5q-63 0 -102.5 40t-39.5 103z" />
<glyph unicode="&#xfd;" horiz-adv-x="1099" d="M12 -428l41 186q72 -30 131 -30q83 0 138 63.5t112 224.5l-420 1028h254l209 -528q32 -77 88 -240q38 113 88 250l197 518h233l-421 -1067q-55 -137 -98.5 -219t-95 -134t-108 -70.5t-139.5 -18.5q-94 0 -209 37zM412 1198l247 299h291l-315 -299h-223z" />
<glyph unicode="&#xfe;" horiz-adv-x="1220" d="M164 -440v1937h239v-590q76 88 146 124t162 36q190 0 303.5 -150t113.5 -401q0 -244 -114 -391.5t-303 -147.5q-192 0 -308 158v-575h-239zM403 340q97 -180 248 -180q105 0 167.5 98.5t62.5 263.5q0 167 -64 265t-172 98q-68 0 -126.5 -42.5t-115.5 -133.5v-369z" />
<glyph unicode="&#xff;" horiz-adv-x="1099" d="M12 -428l41 186q72 -30 131 -30q83 0 138 63.5t112 224.5l-420 1028h254l209 -528q32 -77 88 -240q38 113 88 250l197 518h233l-421 -1067q-55 -137 -98.5 -219t-95 -134t-108 -70.5t-139.5 -18.5q-94 0 -209 37zM197 1362q0 60 39.5 98.5t99.5 38.5q63 0 102 -38.5 t39 -100.5t-39 -101.5t-100 -39.5q-63 0 -102 40t-39 103zM621 1362q0 60 39.5 98.5t99.5 38.5q63 0 102 -38.5t39 -100.5t-39 -101.5t-100 -39.5q-63 0 -102 40t-39 103z" />
<glyph unicode="&#x100;" horiz-adv-x="1374" d="M20 0l525 1417h274l537 -1417h-264l-146 406h-532l-146 -406h-248zM350 1581v154h678v-154h-678zM481 600h398l-119 336q-36 99 -80 244q-30 -105 -80 -244z" />
<glyph unicode="&#x101;" horiz-adv-x="1134" d="M78 293q0 98 43 174t123 119q100 53 309 53q29 0 170 -6v20q0 116 -58.5 177t-172.5 61q-130 0 -283 -88l-64 172q185 92 379 92q254 0 361 -137q45 -56 61.5 -130t16.5 -222v-312q0 -178 10 -266h-228l-8 119q-76 -77 -148.5 -109.5t-174.5 -32.5q-158 0 -247 84 t-89 232zM211 1268v153h678v-153h-678zM326 299q0 -72 44 -115t117 -43q135 0 236 146v196q-47 4 -109 4q-148 0 -218 -45.5t-70 -142.5z" />
<glyph unicode="&#x102;" horiz-adv-x="1374" d="M20 0l525 1417h274l537 -1417h-264l-146 406h-532l-146 -406h-248zM352 1860h154q6 -86 49 -124t135 -38q91 0 133.5 38t50.5 124h152q-3 -164 -85 -242t-251 -78q-209 0 -289 121q-25 37 -36.5 82t-12.5 117zM481 600h398l-119 336q-36 99 -80 244q-30 -105 -80 -244z " />
<glyph unicode="&#x103;" horiz-adv-x="1134" d="M78 293q0 98 43 174t123 119q100 53 309 53q29 0 170 -6v20q0 116 -58.5 177t-172.5 61q-130 0 -283 -88l-64 172q185 92 379 92q254 0 361 -137q45 -56 61.5 -130t16.5 -222v-312q0 -178 10 -266h-228l-8 119q-76 -77 -148.5 -109.5t-174.5 -32.5q-158 0 -247 84 t-89 232zM215 1497h154q6 -86 49 -124t135 -38q91 0 133.5 38t50.5 124h152q-3 -164 -85 -241.5t-251 -77.5q-204 0 -287 118q-26 37 -38 82.5t-13 118.5zM326 299q0 -72 44 -115t117 -43q135 0 236 146v196q-47 4 -109 4q-148 0 -218 -45.5t-70 -142.5z" />
<glyph unicode="&#x104;" horiz-adv-x="1374" d="M20 0l525 1417h274l537 -1417q-129 -78 -173 -124t-44 -103q0 -43 34 -70t89 -27q35 0 86 13l14 -119q-100 -21 -160 -21q-118 0 -188 51.5t-70 137.5q0 80 62.5 143.5t197.5 118.5h-112l-146 406h-532l-146 -406h-248zM481 600h398l-119 336q-36 99 -80 244l-21 -72 q-13 -39 -22 -70q-2 -4 -37 -102z" />
<glyph unicode="&#x105;" horiz-adv-x="1134" d="M78 293q0 98 43 174t123 119q100 53 307 53q37 0 172 -6v20q0 116 -58.5 177t-172.5 61q-130 0 -283 -88l-64 172q185 92 379 92q254 0 361 -137q45 -56 61.5 -130t16.5 -222v-312q0 -178 10 -266q-130 -77 -173.5 -123.5t-43.5 -103.5q0 -43 34 -70t89 -27q35 0 86 13 l14 -119q-100 -21 -160 -21q-118 0 -188 51.5t-70 137.5q0 80 62.5 143.5t197.5 118.5h-76l-8 119q-76 -77 -148.5 -109.5t-174.5 -32.5q-158 0 -247 84t-89 232zM326 299q0 -72 44 -115t117 -43q135 0 236 146v196q-47 4 -107 4q-149 0 -219.5 -45.5t-70.5 -142.5z" />
<glyph unicode="&#x106;" horiz-adv-x="1251" d="M102 698q0 341 183.5 541.5t496.5 200.5q111 0 208 -21.5t210 -72.5l-82 -195q-172 88 -323 88q-200 0 -317.5 -144t-117.5 -390q0 -244 120 -385.5t327 -141.5q89 0 161.5 20t176.5 74l69 -200q-118 -54 -209 -74.5t-210 -20.5q-324 0 -508.5 191.5t-184.5 529.5z M608 1550l248 299h291l-316 -299h-223z" />
<glyph unicode="&#x107;" horiz-adv-x="987" d="M92 518q0 258 131.5 403.5t364.5 145.5q177 0 338 -80l-72 -178q-123 76 -242 76q-131 0 -201.5 -94t-70.5 -269q0 -171 77 -265.5t216 -94.5q66 0 120.5 18.5t116.5 61.5l78 -174q-143 -91 -338 -91q-243 0 -380.5 143.5t-137.5 397.5zM410 1198l247 299h291l-315 -299 h-223z" />
<glyph unicode="&#x108;" horiz-adv-x="1251" d="M102 698q0 341 183.5 541.5t496.5 200.5q111 0 208 -21.5t210 -72.5l-82 -195q-172 88 -323 88q-200 0 -317.5 -144t-117.5 -390q0 -244 120 -385.5t327 -141.5q89 0 161.5 20t176.5 74l69 -200q-118 -54 -209 -74.5t-210 -20.5q-324 0 -508.5 191.5t-184.5 529.5z M401 1550l226 299h284l228 -299h-226l-143 187l-143 -187h-226z" />
<glyph unicode="&#x109;" horiz-adv-x="987" d="M92 518q0 258 131.5 403.5t364.5 145.5q177 0 338 -80l-72 -178q-123 76 -242 76q-131 0 -201.5 -94t-70.5 -269q0 -171 77 -265.5t216 -94.5q66 0 120.5 18.5t116.5 61.5l78 -174q-143 -91 -338 -91q-243 0 -380.5 143.5t-137.5 397.5zM211 1198l225 299h285l227 -299 h-225l-143 186l-144 -186h-225z" />
<glyph unicode="&#x10a;" horiz-adv-x="1251" d="M102 698q0 341 183.5 541.5t496.5 200.5q111 0 208 -21.5t210 -72.5l-82 -195q-172 88 -323 88q-200 0 -317.5 -144t-117.5 -390q0 -244 120 -385.5t327 -141.5q89 0 161.5 20t176.5 74l69 -200q-118 -54 -209 -74.5t-210 -20.5q-324 0 -508.5 191.5t-184.5 529.5z M655 1704q0 63 41.5 103t104.5 40t104 -41t41 -104t-41 -104.5t-104 -41.5q-64 0 -105 41.5t-41 106.5z" />
<glyph unicode="&#x10b;" horiz-adv-x="987" d="M92 518q0 258 131.5 403.5t364.5 145.5q177 0 338 -80l-72 -178q-123 76 -242 76q-131 0 -201.5 -94t-70.5 -269q0 -171 77 -265.5t216 -94.5q66 0 120.5 18.5t116.5 61.5l78 -174q-143 -91 -338 -91q-243 0 -380.5 143.5t-137.5 397.5zM449 1356q0 63 41 103t104 40 t104 -41t41 -104t-41 -104.5t-104 -41.5q-64 0 -104.5 41.5t-40.5 106.5z" />
<glyph unicode="&#x10c;" horiz-adv-x="1251" d="M102 698q0 341 183.5 541.5t496.5 200.5q111 0 208 -21.5t210 -72.5l-82 -195q-172 88 -323 88q-200 0 -317.5 -144t-117.5 -390q0 -244 120 -385.5t327 -141.5q89 0 161.5 20t176.5 74l69 -200q-118 -54 -209 -74.5t-210 -20.5q-324 0 -508.5 191.5t-184.5 529.5z M418 1864h223l145 -187l144 187h225l-227 -299h-285z" />
<glyph unicode="&#x10d;" horiz-adv-x="987" d="M92 518q0 258 131.5 403.5t364.5 145.5q177 0 338 -80l-72 -178q-123 76 -242 76q-131 0 -201.5 -94t-70.5 -269q0 -171 77 -265.5t216 -94.5q66 0 120.5 18.5t116.5 61.5l78 -174q-143 -91 -338 -91q-243 0 -380.5 143.5t-137.5 397.5zM203 1497h223l145 -186l144 186 h225l-227 -299h-285z" />
<glyph unicode="&#x10e;" horiz-adv-x="1404" d="M176 0v1417h356q204 0 329.5 -32t219.5 -107q224 -181 224 -567q0 -209 -67 -362.5t-196 -239.5q-91 -60 -209.5 -84.5t-320.5 -24.5h-336zM289 1864h223l145 -187l144 187h225l-227 -299h-285zM424 201h98q233 0 348 80q85 58 131 170.5t46 257.5t-44 258t-126 174 q-62 45 -136.5 60.5t-228.5 15.5h-88v-1016z" />
<glyph unicode="&#x10f;" horiz-adv-x="1458" d="M92 524q0 246 115 394.5t305 148.5q184 0 305 -154v584h240v-1130q0 -235 10 -367h-231l-9 150q-68 -94 -139.5 -133.5t-175.5 -39.5q-207 0 -322 170q-98 152 -98 377zM340 526q0 -166 62.5 -265t166.5 -99q138 0 248 178v369q-47 84 -110 129t-132 45 q-107 0 -171 -96.5t-64 -260.5zM1128 971l162 526h269l-207 -526h-224z" />
<glyph unicode="&#x110;" horiz-adv-x="1404" d="M4 649v148h172v620h356q205 0 330 -32t219 -107q224 -181 224 -565q0 -211 -67 -364.5t-196 -239.5q-91 -60 -209.5 -84.5t-320.5 -24.5h-336v649h-172zM424 201h98q233 0 348 80q84 59 130.5 171.5t46.5 256.5t-45 257t-125 175q-62 45 -136.5 60.5t-228.5 15.5h-88 v-420h285v-148h-285v-448z" />
<glyph unicode="&#x111;" horiz-adv-x="1220" d="M92 524q0 246 115 394.5t305 148.5q184 0 305 -154v293h-297v144h297v147h240v-147h160v-144h-160v-839q0 -207 10 -367h-231l-9 150q-68 -94 -139.5 -133.5t-175.5 -39.5q-207 0 -322 170q-98 152 -98 377zM340 526q0 -166 62.5 -265t166.5 -99q138 0 248 178v369 q-47 84 -110 129t-132 45q-107 0 -171 -96.5t-64 -260.5z" />
<glyph unicode="&#x112;" horiz-adv-x="1146" d="M176 0v1417h830v-200h-582v-398h553v-201h-553v-417h612v-201h-860zM236 1581v154h677v-154h-677z" />
<glyph unicode="&#x113;" horiz-adv-x="1159" d="M92 520q0 255 134 401t366 146q163 0 273 -65.5t157 -190.5q28 -72 38.5 -150.5t12.5 -214.5h-729q13 -147 87 -217.5t214 -70.5q155 0 311 100l84 -176q-182 -105 -401 -105q-263 0 -405 141t-142 402zM248 1268v153h678v-153h-678zM344 614h483q-3 132 -64.5 204.5 t-170.5 72.5t-175.5 -74t-72.5 -203z" />
<glyph unicode="&#x114;" horiz-adv-x="1146" d="M176 0v1417h830v-200h-582v-398h553v-201h-553v-417h612v-201h-860zM262 1860h154q6 -86 49 -124t135 -38q91 0 133.5 38t50.5 124h152q-3 -164 -85 -242t-251 -78q-209 0 -289 121q-25 37 -36.5 82t-12.5 117z" />
<glyph unicode="&#x116;" horiz-adv-x="1146" d="M176 0v1417h830v-200h-582v-398h553v-201h-553v-417h612v-201h-860zM463 1704q0 63 41 103t104 40t104.5 -41t41.5 -104t-41.5 -104.5t-104.5 -41.5q-64 0 -104.5 41.5t-40.5 106.5z" />
<glyph unicode="&#x117;" horiz-adv-x="1159" d="M92 520q0 255 134 401t366 146q163 0 273 -65.5t157 -190.5q28 -72 38.5 -150.5t12.5 -214.5h-729q13 -147 87 -217.5t214 -70.5q155 0 311 100l84 -176q-182 -105 -401 -105q-263 0 -405 141t-142 402zM344 614h483q-3 132 -64.5 204.5t-170.5 72.5t-175.5 -74 t-72.5 -203zM461 1356q0 63 41 103t104 40t104.5 -41t41.5 -104t-41.5 -104.5t-104.5 -41.5q-64 0 -104.5 41.5t-40.5 106.5z" />
<glyph unicode="&#x118;" horiz-adv-x="1146" d="M176 0v1417h830v-200h-582v-398h553v-201h-553v-417h612v-201q-130 -77 -173.5 -123.5t-43.5 -103.5q0 -43 34 -70t89 -27q35 0 86 13l14 -119q-100 -21 -159 -21q-118 0 -188 51.5t-70 137.5q0 79 63 142.5t197 119.5h-709z" />
<glyph unicode="&#x119;" horiz-adv-x="1159" d="M92 518q0 256 134 402.5t366 146.5q163 0 273 -65.5t157 -190.5q28 -72 38.5 -150.5t12.5 -214.5h-729q13 -147 87 -217.5t214 -70.5q155 0 311 100l84 -176q-60 -37 -141.5 -64t-157.5 -34q-106 -66 -146 -110.5t-40 -98.5q0 -43 34 -70t89 -27q32 0 86 11l14 -119 q-103 -19 -160 -19q-119 0 -188.5 50.5t-69.5 138.5q0 142 213 240q-237 22 -359 158t-122 380zM344 614h483q-3 132 -64.5 204.5t-170.5 72.5t-175.5 -74t-72.5 -203z" />
<glyph unicode="&#x11a;" horiz-adv-x="1146" d="M176 0v1417h830v-200h-582v-398h553v-201h-553v-417h612v-201h-860zM223 1864h223l146 -187l143 187h226l-228 -299h-284z" />
<glyph unicode="&#x11b;" horiz-adv-x="1159" d="M92 520q0 255 134 401t366 146q163 0 273 -65.5t157 -190.5q28 -72 38.5 -150.5t12.5 -214.5h-729q13 -147 87 -217.5t214 -70.5q155 0 311 100l84 -176q-182 -105 -401 -105q-263 0 -405 141t-142 402zM227 1497h224l145 -186l143 186h226l-228 -299h-284zM344 614h483 q-3 132 -64.5 204.5t-170.5 72.5t-175.5 -74t-72.5 -203z" />
<glyph unicode="&#x11c;" horiz-adv-x="1445" d="M102 692q0 346 192 547t523 201q236 0 457 -99l-82 -198q-101 52 -187.5 74t-183.5 22q-240 0 -360 -172q-47 -69 -74 -167t-27 -202q0 -238 124 -379t335 -141q108 0 215 37v350h-260v201h504v-700q-257 -89 -473 -89q-329 0 -516 190.5t-187 524.5zM428 1550l225 299 h285l227 -299h-225l-143 187l-144 -187h-225z" />
<glyph unicode="&#x11d;" horiz-adv-x="1230" d="M92 543q0 238 114.5 381t305.5 143q206 0 322 -168l8 145h229q-10 -317 -10 -411v-514q0 -180 -18 -265.5t-72 -152.5q-133 -164 -428 -164q-223 0 -406 92l74 178q155 -88 313 -88q197 0 264 140q33 70 33 243v74q-71 -80 -143.5 -115.5t-167.5 -35.5q-191 0 -304.5 141 t-113.5 377zM248 1198l225 299h285l227 -299h-225l-144 186l-143 -186h-225zM340 539q0 -151 63.5 -240.5t169.5 -89.5q74 0 140 47t108 131v305q-40 89 -107 140t-145 51q-106 0 -167.5 -93t-61.5 -251z" />
<glyph unicode="&#x11e;" horiz-adv-x="1445" d="M102 692q0 346 192 547t523 201q236 0 457 -99l-82 -198q-101 52 -187.5 74t-183.5 22q-240 0 -360 -172q-47 -69 -74 -167t-27 -202q0 -238 124 -379t335 -141q108 0 215 37v350h-260v201h504v-700q-257 -89 -473 -89q-329 0 -516 190.5t-187 524.5zM453 1860h153 q6 -86 49.5 -124t135.5 -38q91 0 133.5 38t50.5 124h151q-3 -164 -84.5 -242t-250.5 -78q-209 0 -289 121q-25 37 -36.5 82t-12.5 117z" />
<glyph unicode="&#x11f;" horiz-adv-x="1230" d="M92 543q0 238 114.5 381t305.5 143q206 0 322 -168l8 145h229q-10 -317 -10 -411v-514q0 -180 -18 -265.5t-72 -152.5q-133 -164 -428 -164q-223 0 -406 92l74 178q155 -88 313 -88q197 0 264 140q33 70 33 243v74q-71 -80 -143.5 -115.5t-167.5 -35.5q-191 0 -304.5 141 t-113.5 377zM279 1497h153q6 -86 49 -124t135 -38q91 0 134.5 38t50.5 124h151q-3 -164 -85 -241.5t-251 -77.5q-203 0 -286 118q-26 37 -38 82.5t-13 118.5zM340 539q0 -151 63.5 -240.5t169.5 -89.5q74 0 140 47t108 131v305q-40 89 -107 140t-145 51q-106 0 -167.5 -93 t-61.5 -251z" />
<glyph unicode="&#x120;" horiz-adv-x="1445" d="M102 692q0 346 192 547t523 201q236 0 457 -99l-82 -198q-101 52 -187.5 74t-183.5 22q-240 0 -360 -172q-47 -69 -74 -167t-27 -202q0 -238 124 -379t335 -141q108 0 215 37v350h-260v201h504v-700q-257 -89 -473 -89q-329 0 -516 190.5t-187 524.5zM662 1704 q0 63 41 103t104 40t104 -41t41 -104t-41 -104.5t-104 -41.5q-64 0 -104.5 41.5t-40.5 106.5z" />
<glyph unicode="&#x121;" horiz-adv-x="1230" d="M92 543q0 238 114.5 381t305.5 143q206 0 322 -168l8 145h229q-10 -317 -10 -411v-514q0 -180 -18 -265.5t-72 -152.5q-133 -164 -428 -164q-223 0 -406 92l74 178q155 -88 313 -88q197 0 264 140q33 70 33 243v74q-71 -80 -143.5 -115.5t-167.5 -35.5q-191 0 -304.5 141 t-113.5 377zM340 539q0 -151 63.5 -240.5t169.5 -89.5q74 0 140 47t108 131v305q-40 89 -107 140t-145 51q-106 0 -167.5 -93t-61.5 -251zM471 1356q0 63 41 103t104 40t104.5 -41t41.5 -104t-41.5 -104.5t-104.5 -41.5q-64 0 -104.5 41.5t-40.5 106.5z" />
<glyph unicode="&#x122;" horiz-adv-x="1445" d="M102 692q0 346 192 547t523 201q236 0 457 -99l-82 -198q-101 52 -187.5 74t-183.5 22q-240 0 -360 -172q-47 -69 -74 -167t-27 -202q0 -238 124 -379t335 -141q108 0 215 37v350h-260v201h504v-700q-257 -89 -473 -89q-329 0 -516 190.5t-187 524.5zM469 -375l242 307 h268l-287 -307h-223z" />
<glyph unicode="&#x123;" horiz-adv-x="1230" d="M92 543q0 238 114.5 381t305.5 143q206 0 322 -168l8 145h229q-10 -317 -10 -411v-514q0 -180 -18 -265.5t-72 -152.5q-133 -164 -428 -164q-223 0 -406 92l74 178q155 -88 313 -88q197 0 264 140q33 70 33 243v74q-71 -80 -143.5 -115.5t-167.5 -35.5q-191 0 -304.5 141 t-113.5 377zM340 539q0 -151 63.5 -240.5t169.5 -89.5q74 0 140 47t108 131v305q-40 89 -107 140t-145 51q-106 0 -167.5 -93t-61.5 -251zM420 1190l287 307h223l-242 -307h-268z" />
<glyph unicode="&#x124;" horiz-adv-x="1439" d="M176 0v1417h248v-594h594v594h248v-1417h-248v623h-594v-623h-248zM352 1550l226 299h284l228 -299h-226l-143 187l-143 -187h-226z" />
<glyph unicode="&#x125;" horiz-adv-x="1255" d="M-74 1550l226 299h284l228 -299h-226l-143 187l-143 -187h-226zM168 0v1497h240v-592q143 162 354 162q206 0 287 -147q45 -83 45 -291v-629h-240v616q0 121 -20 177q-17 43 -56.5 66.5t-93.5 23.5q-144 0 -276 -176v-707h-240z" />
<glyph unicode="&#x126;" horiz-adv-x="1439" d="M49 1036v144h127v237h248v-237h594v237h248v-237h127v-144h-127v-1036h-248v623h-594v-623h-248v1036h-127zM424 823h594v213h-594v-213z" />
<glyph unicode="&#x127;" horiz-adv-x="1255" d="M2 1194v154h168v149h238v-149h294v-154h-292v-289q147 162 354 162q206 0 287 -147q45 -83 45 -291v-629h-240v616q0 128 -20 177q-36 90 -150 90q-144 0 -276 -176v-707h-240v1194h-168z" />
<glyph unicode="&#x12a;" horiz-adv-x="600" d="M-39 1581v154h678v-154h-678zM176 0v1417h248v-1417h-248z" />
<glyph unicode="&#x12b;" horiz-adv-x="573" d="M-51 1268v153h678v-153h-678zM168 0v1044h240v-1044h-240z" />
<glyph unicode="&#x12d;" horiz-adv-x="573" d="M-51 1497h153q6 -86 49.5 -124t135.5 -38q91 0 133.5 38t50.5 124h152q-3 -164 -85 -241.5t-251 -77.5q-204 0 -287 118q-26 37 -38 82.5t-13 118.5zM166 0v1044h240v-1044h-240z" />
<glyph unicode="&#x12e;" horiz-adv-x="600" d="M12 -262q0 79 62.5 142t197.5 120h-96v1417h248v-1417q-129 -76 -174 -123t-45 -104q0 -43 34 -70t91 -27q35 0 86 13l14 -119q-100 -21 -160 -21q-118 0 -188 51.5t-70 137.5z" />
<glyph unicode="&#x12f;" horiz-adv-x="573" d="M-6 -262q0 79 63 142.5t197 119.5h-88v1044h240v-1044q-131 -78 -174.5 -123.5t-43.5 -103.5q0 -43 34 -70t89 -27q35 0 86 13l15 -119q-100 -21 -160 -21q-118 0 -188 51.5t-70 137.5zM137 1382q0 64 42.5 106t107.5 42q64 0 105.5 -41.5t41.5 -106.5q0 -66 -41 -107.5 t-106 -41.5q-66 0 -108 41.5t-42 107.5z" />
<glyph unicode="&#x130;" horiz-adv-x="600" d="M156 1704q0 63 41 103t104 40t104 -41t41 -104t-41 -104.5t-104 -41.5q-64 0 -104.5 41.5t-40.5 106.5zM176 0v1417h248v-1417h-248z" />
<glyph unicode="&#x131;" horiz-adv-x="573" d="M168 0v1044h240v-1044h-240z" />
<glyph unicode="&#x134;" horiz-adv-x="808" d="M-2 18l22 207q100 -43 185 -43q124 0 166 82q17 33 22.5 87t5.5 171v895h248v-887q0 -192 -16 -277.5t-64 -148.5q-100 -127 -321 -127q-136 0 -248 41zM137 1550l225 299h285l227 -299h-225l-143 187l-144 -187h-225z" />
<glyph unicode="&#x135;" horiz-adv-x="591" d="M-88 -440l20 186q68 -18 103 -18q76 0 108.5 53t32.5 178v1085h240v-1050q0 -140 -13 -214.5t-47 -121.5q-83 -121 -272 -121q-68 0 -172 23zM-80 1198l225 299h285l227 -299h-225l-143 186l-144 -186h-225z" />
<glyph unicode="&#x136;" horiz-adv-x="1300" d="M176 0v1417h248v-667l559 667h287l-563 -663l585 -754h-303l-565 735v-735h-248zM365 -375l241 307h268l-286 -307h-223z" />
<glyph unicode="&#x137;" horiz-adv-x="1103" d="M170 0v1497h240v-893l370 440h277l-404 -458l443 -586h-291l-395 537v-537h-240zM256 -375l242 307h268l-287 -307h-223z" />
<glyph unicode="&#x139;" horiz-adv-x="1034" d="M176 0v1417h248v-1216h612v-201h-860zM199 1550l247 299h291l-315 -299h-223z" />
<glyph unicode="&#x13a;" horiz-adv-x="577" d="M127 1550l248 299h291l-316 -299h-223zM168 0v1497h240v-1497h-240z" />
<glyph unicode="&#x13b;" horiz-adv-x="1034" d="M176 0v1417h248v-1216h612v-201h-860zM270 -375l242 307h268l-286 -307h-224z" />
<glyph unicode="&#x13c;" horiz-adv-x="577" d="M-47 -375l242 307h268l-287 -307h-223zM170 0v1497h240v-1497h-240z" />
<glyph unicode="&#x13d;" horiz-adv-x="1034" d="M176 0v1417h248v-1216h612v-201h-860zM569 971l162 526h268l-206 -526h-224z" />
<glyph unicode="&#x13e;" horiz-adv-x="811" d="M170 0v1497h240v-1497h-240zM481 971l162 526h268l-206 -526h-224z" />
<glyph unicode="&#x141;" horiz-adv-x="1062" d="M31 463v174l172 119v661h248v-489l231 159v-174l-231 -159v-553h612v-201h-860v582z" />
<glyph unicode="&#x142;" horiz-adv-x="626" d="M25 502v178l170 125v692h239v-516l168 125v-178l-168 -125v-803h-239v627z" />
<glyph unicode="&#x143;" horiz-adv-x="1482" d="M176 0v1417h277l454 -753q83 -138 140 -258l26 -52q-4 88 -4 244v819h238v-1417h-275l-444 731q-58 97 -86.5 151t-91.5 183q4 -117 4 -309v-756h-238zM618 1550l248 299h291l-315 -299h-224z" />
<glyph unicode="&#x144;" horiz-adv-x="1255" d="M162 1044h227l6 -153q97 98 179 137t192 39q99 0 173 -38t112 -109q45 -83 45 -291v-629h-240v616q0 121 -20 177q-36 90 -150 90q-142 0 -274 -176v-707h-240v678q0 158 -10 366zM512 1198l248 299h291l-316 -299h-223z" />
<glyph unicode="&#x145;" horiz-adv-x="1482" d="M176 0v1417h277l454 -753q83 -138 140 -258l26 -52q-4 88 -4 244v819h238v-1417h-275l-444 731q-58 97 -86.5 151t-91.5 183q4 -117 4 -309v-756h-238zM428 -375l242 307h268l-287 -307h-223z" />
<glyph unicode="&#x146;" horiz-adv-x="1255" d="M162 1044h227l6 -153q97 98 179 137t192 39q99 0 173 -38t112 -109q45 -83 45 -291v-629h-240v616q0 121 -20 177q-36 90 -150 90q-142 0 -274 -176v-707h-240v678q0 158 -10 366zM309 -375l242 307h268l-287 -307h-223z" />
<glyph unicode="&#x147;" horiz-adv-x="1482" d="M176 0v1417h277l454 -753q83 -138 140 -258l26 -52q-4 88 -4 244v819h238v-1417h-275l-444 731q-58 97 -86.5 151t-91.5 183q4 -117 4 -309v-756h-238zM412 1864h223l145 -187l144 187h225l-227 -299h-285z" />
<glyph unicode="&#x148;" horiz-adv-x="1255" d="M162 1044h227l6 -153q97 98 179 137t192 39q99 0 173 -38t112 -109q45 -83 45 -291v-629h-240v616q0 121 -20 177q-36 90 -150 90q-142 0 -274 -176v-707h-240v678q0 158 -10 366zM305 1497h223l146 -186l143 186h225l-227 -299h-285z" />
<glyph unicode="&#x14c;" horiz-adv-x="1517" d="M102 717q0 164 54.5 309.5t152.5 243.5q164 170 451 170q326 0 500 -226q157 -204 157 -505q0 -171 -53 -316t-154 -246q-164 -170 -450 -170q-326 0 -500 226q-158 204 -158 514zM360 715q0 -249 107 -393t293 -144q184 0 291.5 143t107.5 388t-107.5 387.5 t-291.5 142.5q-183 0 -291.5 -142.5t-108.5 -381.5zM422 1581v154h678v-154h-678z" />
<glyph unicode="&#x14d;" horiz-adv-x="1206" d="M92 528q0 249 138 394t374 145q238 0 375 -146t137 -399t-137 -399t-375 -146q-239 0 -375.5 146.5t-136.5 404.5zM264 1268v153h678v-153h-678zM340 526q0 -172 70 -269t194 -97q123 0 193.5 96.5t70.5 265.5t-70.5 266t-193.5 97t-193.5 -96.5t-70.5 -262.5z" />
<glyph unicode="&#x150;" horiz-adv-x="1517" d="M102 717q0 164 54.5 309.5t152.5 243.5q164 170 451 170q326 0 500 -226q157 -204 157 -505q0 -171 -53 -316t-154 -246q-164 -170 -450 -170q-326 0 -500 226q-158 204 -158 514zM360 715q0 -249 107 -393t293 -144q184 0 291.5 143t107.5 388t-107.5 387.5 t-291.5 142.5q-183 0 -291.5 -142.5t-108.5 -381.5zM424 1550l229 299h287l-297 -299h-219zM831 1550l228 299h289l-301 -299h-216z" />
<glyph unicode="&#x151;" horiz-adv-x="1206" d="M92 528q0 249 138 394t374 145q238 0 375 -146t137 -399t-137 -399t-375 -146q-239 0 -375.5 146.5t-136.5 404.5zM268 1198l230 299h286l-297 -299h-219zM340 526q0 -172 70 -269t194 -97q123 0 193.5 96.5t70.5 265.5t-70.5 266t-193.5 97t-193.5 -96.5t-70.5 -262.5z M676 1198l227 299h289l-301 -299h-215z" />
<glyph unicode="&#x152;" horiz-adv-x="1970" d="M102 711q0 207 72 362.5t207 243.5q143 92 342 98q41 2 178 2h926v-200h-580v-398h551v-201h-551v-417h611v-201h-947q-143 0 -214 6t-138 25q-220 62 -338.5 238.5t-118.5 441.5zM360 717q0 -145 43.5 -255t126.5 -173q65 -48 150.5 -68t228.5 -20h90v1016h-90 q-184 0 -270.5 -23.5t-151.5 -91.5q-127 -130 -127 -385z" />
<glyph unicode="&#x153;" horiz-adv-x="1908" d="M92 522q0 252 134 398.5t364 146.5q248 0 383 -178q67 93 156 135.5t217 42.5q160 0 271 -66.5t155 -189.5q46 -124 49 -365h-725q13 -148 86 -218t211 -70q158 0 311 100l84 -176q-179 -105 -399 -105q-146 0 -244.5 43t-173.5 140q-72 -96 -161.5 -139.5t-213.5 -43.5 q-233 0 -368.5 146.5t-135.5 398.5zM340 526q0 -172 68 -269t188 -97t189 96.5t69 265.5t-69 266t-189 97q-118 0 -187 -96.5t-69 -262.5zM1098 614h479q-4 133 -65.5 205t-170.5 72q-107 0 -172 -74t-71 -203z" />
<glyph unicode="&#x154;" horiz-adv-x="1210" d="M176 0v1417h416q126 0 207 -17t139 -57q72 -47 112 -126.5t40 -176.5q0 -138 -73.5 -231t-209.5 -127q72 -26 106 -70t101 -200l178 -412h-266l-129 307q-42 100 -70 152.5t-64.5 85.5t-74.5 42t-103 9h-61v-596h-248zM420 791h94q146 0 215 34q50 26 78.5 75t28.5 110 q0 120 -86 174q-66 39 -224 39h-106v-432zM451 1550l247 299h291l-315 -299h-223z" />
<glyph unicode="&#x155;" horiz-adv-x="782" d="M162 1044h225l6 -196q91 213 277 213q45 0 92 -12l-14 -211q-49 8 -82 8q-90 0 -157 -62.5t-101 -177.5v-606h-238v651q0 142 -8 393zM283 1198l247 299h291l-315 -299h-223z" />
<glyph unicode="&#x156;" horiz-adv-x="1210" d="M176 0v1417h416q126 0 207 -17t139 -57q72 -47 112 -126.5t40 -176.5q0 -138 -73.5 -231t-209.5 -127q72 -26 106 -70t101 -200l178 -412h-266l-129 307q-42 100 -70 152.5t-64.5 85.5t-74.5 42t-103 9h-61v-596h-248zM332 -375l241 307h269l-287 -307h-223zM420 791h94 q146 0 215 34q50 26 78.5 75t28.5 110q0 120 -86 174q-66 39 -224 39h-106v-432z" />
<glyph unicode="&#x157;" horiz-adv-x="782" d="M-57 -375l241 307h269l-287 -307h-223zM164 1044h225l6 -196q91 213 277 213q45 0 92 -12l-14 -211q-49 8 -82 8q-90 0 -157 -62.5t-101 -177.5v-606h-238v651q0 208 -8 393z" />
<glyph unicode="&#x158;" horiz-adv-x="1210" d="M176 0v1417h416q126 0 207 -17t139 -57q72 -47 112 -126.5t40 -176.5q0 -138 -73.5 -231t-209.5 -127q72 -26 106 -70t101 -200l178 -412h-266l-129 307q-42 100 -70 152.5t-64.5 85.5t-74.5 42t-103 9h-61v-596h-248zM238 1864h223l145 -187l144 187h225l-227 -299h-285 zM420 791h94q146 0 215 34q50 26 78.5 75t28.5 110q0 120 -86 174q-66 39 -224 39h-106v-432z" />
<glyph unicode="&#x159;" horiz-adv-x="782" d="M74 1497h223l145 -186l144 186h225l-227 -299h-285zM162 1044h223l8 -196q94 213 277 213q45 0 92 -12l-14 -211q-49 8 -82 8q-89 0 -156.5 -63t-101.5 -177v-606h-238v651q0 182 -8 393z" />
<glyph unicode="&#x15a;" horiz-adv-x="1128" d="M102 1024q0 192 127 304t346 112q172 0 398 -72l-49 -211q-193 82 -338 82q-103 0 -164.5 -48t-61.5 -130q0 -71 51.5 -115.5t204.5 -107.5q128 -53 190.5 -85t106.5 -69q117 -102 117 -283q0 -201 -132 -312.5t-368 -111.5q-209 0 -421 72l32 217q127 -49 211.5 -68.5 t169.5 -19.5q114 0 180 55t66 150q0 55 -20.5 88t-76 66.5t-177.5 85.5q-130 56 -181.5 82t-93.5 59q-117 94 -117 260zM432 1550l248 299h291l-316 -299h-223z" />
<glyph unicode="&#x15b;" horiz-adv-x="931" d="M92 59l64 183q84 -46 145 -65t131 -19q82 0 127 35t45 98q0 61 -41 88q-20 15 -50.5 28t-117.5 44q-94 34 -138 55.5t-79 52.5q-80 74 -80 193q0 146 103 230.5t282 84.5q166 0 340 -76l-61 -182q-138 80 -268 80q-74 0 -117 -32t-43 -87q0 -56 57 -90q39 -21 164 -68 q161 -60 224 -126t63 -173q0 -154 -111 -245t-297 -91q-179 0 -342 82zM301 1198l248 299h291l-316 -299h-223z" />
<glyph unicode="&#x15c;" horiz-adv-x="1128" d="M102 1024q0 192 127 304t346 112q172 0 398 -72l-49 -211q-193 82 -338 82q-103 0 -164.5 -48t-61.5 -130q0 -71 51.5 -115.5t204.5 -107.5q128 -53 190.5 -85t106.5 -69q117 -102 117 -283q0 -201 -132 -312.5t-368 -111.5q-209 0 -421 72l32 217q127 -49 211.5 -68.5 t169.5 -19.5q114 0 180 55t66 150q0 55 -20.5 88t-76 66.5t-177.5 85.5q-130 56 -181.5 82t-93.5 59q-117 94 -117 260zM217 1550l225 299h285l227 -299h-225l-143 187l-144 -187h-225z" />
<glyph unicode="&#x15d;" horiz-adv-x="931" d="M92 59l64 183q84 -46 145 -65t131 -19q82 0 127 35t45 98q0 61 -41 88q-20 15 -50.5 28t-117.5 44q-94 34 -138 55.5t-79 52.5q-80 74 -80 193q0 146 103 230.5t282 84.5q166 0 340 -76l-61 -182q-138 80 -268 80q-74 0 -117 -32t-43 -87q0 -56 57 -90q39 -21 164 -68 q161 -60 224 -126t63 -173q0 -154 -111 -245t-297 -91q-179 0 -342 82zM123 1198l225 299h285l227 -299h-225l-143 186l-144 -186h-225z" />
<glyph unicode="&#x15e;" horiz-adv-x="1128" d="M102 1024q0 192 127 304t346 112q172 0 398 -72l-49 -211q-193 82 -338 82q-103 0 -164.5 -48t-61.5 -130q0 -71 51.5 -115.5t204.5 -107.5q128 -53 190.5 -85t106.5 -69q117 -102 117 -283q0 -201 -132 -312.5t-368 -111.5q-209 0 -421 72l32 217q127 -49 211.5 -68.5 t169.5 -19.5q114 0 180 55t66 150q0 55 -20.5 88t-76 66.5t-177.5 85.5q-130 56 -181.5 82t-93.5 59q-117 94 -117 260zM211 -375l242 307h268l-287 -307h-223z" />
<glyph unicode="&#x15f;" horiz-adv-x="931" d="M92 59l64 183q84 -46 145 -65t131 -19q82 0 127 35t45 98q0 61 -41 88q-20 15 -50.5 28t-117.5 44q-94 34 -138 55.5t-79 52.5q-80 74 -80 193q0 146 103 230.5t282 84.5q166 0 340 -76l-61 -182q-138 80 -268 80q-74 0 -117 -32t-43 -87q0 -56 57 -90q39 -21 164 -68 q161 -60 224 -126t63 -173q0 -154 -111 -245t-297 -91q-179 0 -342 82zM123 -375l242 307h268l-287 -307h-223z" />
<glyph unicode="&#x160;" horiz-adv-x="1128" d="M102 1024q0 192 127 304t346 112q172 0 398 -72l-49 -211q-193 82 -338 82q-103 0 -164.5 -48t-61.5 -130q0 -71 51.5 -115.5t204.5 -107.5q128 -53 190.5 -85t106.5 -69q117 -102 117 -283q0 -201 -132 -312.5t-368 -111.5q-209 0 -421 72l32 217q127 -49 211.5 -68.5 t169.5 -19.5q114 0 180 55t66 150q0 55 -20.5 88t-76 66.5t-177.5 85.5q-130 56 -181.5 82t-93.5 59q-117 94 -117 260zM223 1864h223l146 -187l143 187h226l-228 -299h-284z" />
<glyph unicode="&#x161;" horiz-adv-x="931" d="M92 59l64 183q84 -46 145 -65t131 -19q82 0 127 35t45 98q0 61 -41 88q-20 15 -50.5 28t-117.5 44q-94 34 -138 55.5t-79 52.5q-80 74 -80 193q0 146 103 230.5t282 84.5q166 0 340 -76l-61 -182q-138 80 -268 80q-74 0 -117 -32t-43 -87q0 -56 57 -90q39 -21 164 -68 q161 -60 224 -126t63 -173q0 -154 -111 -245t-297 -91q-179 0 -342 82zM119 1497h223l145 -186l144 186h225l-227 -299h-285z" />
<glyph unicode="&#x163;" horiz-adv-x="763" d="M57 862v182h168v228l240 45v-273h237v-182h-237v-485q0 -116 30.5 -161.5t108.5 -45.5q42 0 113 25l22 -183q-106 -35 -213 -35q-179 0 -250 109q-28 41 -39.5 105.5t-11.5 173.5v497h-168zM115 -375l241 307h269l-287 -307h-223z" />
<glyph unicode="&#x164;" horiz-adv-x="1116" d="M20 1217v200h1078v-200h-418v-1217h-248v1217h-412zM190 1864h224l145 -187l143 187h226l-228 -299h-284z" />
<glyph unicode="&#x165;" horiz-adv-x="929" d="M57 862v182h168v228l240 45v-273h237v-182h-237v-485q0 -116 30.5 -161.5t108.5 -45.5q42 0 113 25l22 -183q-106 -35 -213 -35q-179 0 -250 109q-28 41 -39.5 105.5t-11.5 173.5v497h-168zM610 1149l162 526h268l-206 -526h-224z" />
<glyph unicode="&#x16a;" horiz-adv-x="1423" d="M164 629v788h248v-839q0 -123 14.5 -194t48.5 -114q35 -44 97.5 -68t140.5 -24q94 0 163 32t101 91q45 79 45 264v852h240v-788q0 -222 -17.5 -314t-73.5 -163q-135 -175 -458 -175q-362 0 -486 211q-38 66 -50.5 153.5t-12.5 287.5zM375 1581v154h678v-154h-678z" />
<glyph unicode="&#x16b;" horiz-adv-x="1245" d="M162 416v628h239v-616q0 -125 21 -176q36 -90 143 -90q69 0 139 45.5t132 130.5v706h239v-677q0 -193 10 -367h-227l-6 154q-92 -96 -175.5 -136.5t-189.5 -40.5q-99 0 -171 38t-109 110q-25 47 -35 112.5t-10 178.5zM285 1268v153h678v-153h-678z" />
<glyph unicode="&#x16d;" horiz-adv-x="1245" d="M162 416v628h239v-616q0 -125 21 -176q36 -90 143 -90q69 0 139 45.5t132 130.5v706h239v-677q0 -193 10 -367h-227l-6 154q-92 -96 -175.5 -136.5t-189.5 -40.5q-99 0 -171 38t-109 110q-25 47 -35 112.5t-10 178.5zM287 1497h153q6 -86 49.5 -124t135.5 -38 q91 0 133.5 38t50.5 124h152q-3 -164 -85 -241.5t-251 -77.5q-204 0 -287 118q-26 37 -38 82.5t-13 118.5z" />
<glyph unicode="&#x16e;" horiz-adv-x="1423" d="M164 629v788h248v-839q0 -123 14.5 -194t48.5 -114q35 -44 97.5 -68t140.5 -24q94 0 163 32t101 91q45 79 45 264v852h240v-788q0 -222 -17.5 -314t-73.5 -163q-135 -175 -458 -175q-362 0 -486 211q-38 66 -50.5 153.5t-12.5 287.5zM479 1640q0 99 68.5 166.5 t169.5 67.5q103 0 170 -67.5t67 -170.5q0 -102 -67.5 -169.5t-169.5 -67.5q-103 0 -170.5 68t-67.5 173zM604 1636q0 -56 30.5 -88t82.5 -32q51 0 81.5 32.5t30.5 87.5t-30.5 88t-81.5 33t-82 -33.5t-31 -87.5z" />
<glyph unicode="&#x16f;" horiz-adv-x="1245" d="M162 416v628h239v-616q0 -125 21 -176q36 -90 143 -90q69 0 139 45.5t132 130.5v706h239v-677q0 -193 10 -367h-227l-6 154q-92 -96 -175.5 -136.5t-189.5 -40.5q-99 0 -171 38t-109 110q-25 47 -35 112.5t-10 178.5zM401 1380q0 92 64 154.5t158 62.5q95 0 158 -62.5 t63 -156.5q0 -95 -63 -158t-158 -63t-158.5 63.5t-63.5 159.5zM520 1378q0 -51 28 -80.5t75 -29.5q46 0 74 29.5t28 80.5q0 49 -28 79t-74 30t-74.5 -30t-28.5 -79z" />
<glyph unicode="&#x170;" horiz-adv-x="1423" d="M164 629v788h248v-839q0 -123 14.5 -194t48.5 -114q35 -44 97.5 -68t140.5 -24q94 0 163 32t101 91q45 79 45 264v852h240v-788q0 -222 -17.5 -314t-73.5 -163q-135 -175 -458 -175q-362 0 -486 211q-38 66 -50.5 153.5t-12.5 287.5zM377 1550l229 299h287l-297 -299 h-219zM784 1550l228 299h288l-301 -299h-215z" />
<glyph unicode="&#x171;" horiz-adv-x="1245" d="M162 416v628h239v-616q0 -125 21 -176q36 -90 143 -90q69 0 139 45.5t132 130.5v706h239v-677q0 -193 10 -367h-227l-6 154q-92 -96 -175.5 -136.5t-189.5 -40.5q-99 0 -171 38t-109 110q-25 47 -35 112.5t-10 178.5zM287 1198l229 299h287l-297 -299h-219zM694 1198 l228 299h288l-301 -299h-215z" />
<glyph unicode="&#x172;" horiz-adv-x="1423" d="M164 629v788h248v-839q0 -123 14.5 -194t48.5 -114q35 -44 97.5 -68t140.5 -24q94 0 163 32t101 91q45 79 45 264v852h240v-788q0 -222 -17.5 -314t-73.5 -163q-89 -117 -278 -160q-111 -63 -158 -113.5t-47 -105.5q0 -43 34 -70t89 -27q35 0 86 13l14 -119 q-102 -21 -159 -21q-118 0 -188 51.5t-70 137.5q0 72 49.5 129.5t158.5 109.5q-155 5 -252.5 37.5t-166.5 102.5q-74 74 -96.5 171.5t-22.5 340.5z" />
<glyph unicode="&#x173;" horiz-adv-x="1245" d="M162 416v628h239v-616q0 -125 21 -176q36 -90 143 -90q69 0 139 45.5t132 130.5v706h239v-677q0 -193 10 -367q-130 -76 -175.5 -123t-45.5 -104q0 -43 34 -70t91 -27q37 0 88 13l13 -119q-100 -21 -160 -21q-118 0 -188 51.5t-70 137.5q0 80 63.5 143t198.5 119h-76 l-6 154q-92 -96 -175.5 -136.5t-189.5 -40.5q-99 0 -171 38t-109 110q-25 47 -35 112.5t-10 178.5z" />
<glyph unicode="&#x174;" horiz-adv-x="1892" d="M61 1417h250l170 -774q35 -150 66 -324q30 142 76 314l200 784h262l193 -758q53 -207 78 -325q30 167 67 323l174 760h236l-340 -1417h-264l-197 760q-40 149 -84 350q-49 -210 -86 -346l-203 -764h-266zM580 1550l225 299h285l227 -299h-225l-144 187l-143 -187h-225z " />
<glyph unicode="&#x176;" horiz-adv-x="1259" d="M-12 1417h288l263 -416q57 -95 100 -178q71 131 102 181l260 413h273l-518 -811v-606h-248v606zM266 1550l226 299h284l228 -299h-226l-143 187l-143 -187h-226z" />
<glyph unicode="&#x177;" horiz-adv-x="1099" d="M12 -428l41 186q72 -30 131 -30q83 0 138 63.5t112 224.5l-420 1028h254l209 -528q32 -77 88 -240q38 113 88 250l197 518h233l-421 -1067q-55 -137 -98.5 -219t-95 -134t-108 -70.5t-139.5 -18.5q-94 0 -209 37zM180 1198l226 299h284l228 -299h-226l-143 186l-143 -186 h-226z" />
<glyph unicode="&#x178;" horiz-adv-x="1259" d="M-12 1417h288l263 -416q57 -95 100 -178q71 131 102 181l260 413h273l-518 -811v-606h-248v606zM274 1704q0 63 41.5 103t104.5 40t104 -41t41 -104t-41 -104.5t-104 -41.5q-64 0 -105 41.5t-41 106.5zM698 1704q0 63 41.5 103t104.5 40t104 -41t41 -104t-41 -104.5 t-104 -41.5q-64 0 -105 41.5t-41 106.5z" />
<glyph unicode="&#x179;" horiz-adv-x="1173" d="M66 0v186l714 1031h-690v200h991v-186l-712 -1030h735v-201h-1038zM451 1550l247 299h291l-315 -299h-223z" />
<glyph unicode="&#x17a;" horiz-adv-x="950" d="M61 0v162l512 700h-485v182h780v-170l-508 -692h525v-182h-824zM334 1198l248 299h290l-315 -299h-223z" />
<glyph unicode="&#x17b;" horiz-adv-x="1173" d="M66 0v186l714 1031h-690v200h991v-186l-712 -1030h735v-201h-1038zM473 1704q0 63 41 103t104 40t104.5 -41t41.5 -104t-41.5 -104.5t-104.5 -41.5q-64 0 -104.5 41.5t-40.5 106.5z" />
<glyph unicode="&#x17c;" horiz-adv-x="950" d="M61 0v162l512 700h-485v182h780v-170l-508 -692h525v-182h-824zM369 1356q0 63 41 103t104 40t104 -41t41 -104t-41 -104.5t-104 -41.5q-64 0 -104.5 41.5t-40.5 106.5z" />
<glyph unicode="&#x17d;" horiz-adv-x="1173" d="M66 0v186l714 1031h-690v200h991v-186l-712 -1030h735v-201h-1038zM246 1864h223l145 -187l144 187h225l-227 -299h-285z" />
<glyph unicode="&#x17e;" horiz-adv-x="950" d="M61 0v162l512 700h-485v182h780v-170l-508 -692h525v-182h-824zM127 1497h223l146 -186l143 186h225l-227 -299h-285z" />
<glyph unicode="&#x192;" d="M-18 -213l43 190q83 -34 143 -34q53 0 84 29.5t54 103.5t48 225l60 340h-174v176h204l29 164q25 142 51 220.5t64 125.5q88 111 260 111q108 0 227 -43l-47 -183q-83 33 -139 33q-75 0 -111.5 -60.5t-68.5 -240.5l-21 -127h250v-176h-281l-71 -405q-30 -181 -52.5 -252 t-64.5 -123q-91 -113 -266 -113q-95 0 -221 39z" />
<glyph unicode="&#x1cd;" horiz-adv-x="1374" d="M20 0l525 1417h274l537 -1417h-264l-146 406h-532l-146 -406h-248zM319 1864h224l145 -187l143 187h226l-228 -299h-284zM481 600h398l-119 336q-36 99 -80 244q-30 -105 -80 -244z" />
<glyph unicode="&#x1ce;" horiz-adv-x="1134" d="M78 293q0 98 43 174t123 119q100 53 309 53q29 0 170 -6v20q0 116 -58.5 177t-172.5 61q-130 0 -283 -88l-64 172q185 92 379 92q254 0 361 -137q45 -56 61.5 -130t16.5 -222v-312q0 -178 10 -266h-228l-8 119q-76 -77 -148.5 -109.5t-174.5 -32.5q-158 0 -247 84 t-89 232zM180 1497h223l146 -186l143 186h226l-228 -299h-284zM326 299q0 -72 44 -115t117 -43q135 0 236 146v196q-47 4 -109 4q-148 0 -218 -45.5t-70 -142.5z" />
<glyph unicode="&#x1d3;" horiz-adv-x="1423" d="M164 629v788h248v-839q0 -123 14.5 -194t48.5 -114q35 -44 97.5 -68t140.5 -24q94 0 163 32t101 91q45 79 45 264v852h240v-788q0 -222 -17.5 -314t-73.5 -163q-135 -175 -458 -175q-362 0 -486 211q-38 66 -50.5 153.5t-12.5 287.5zM344 1864h223l146 -187l143 187h225 l-227 -299h-285z" />
<glyph unicode="&#x1e6;" horiz-adv-x="1445" d="M102 692q0 346 192 547t523 201q236 0 457 -99l-82 -198q-101 52 -187.5 74t-183.5 22q-240 0 -360 -172q-47 -69 -74 -167t-27 -202q0 -238 124 -379t335 -141q108 0 215 37v350h-260v201h504v-700q-257 -89 -473 -89q-329 0 -516 190.5t-187 524.5zM430 1864h223 l146 -187l143 187h225l-227 -299h-285z" />
<glyph unicode="&#x1e7;" horiz-adv-x="1230" d="M92 543q0 238 114.5 381t305.5 143q206 0 322 -168l8 145h229q-10 -317 -10 -411v-514q0 -180 -18 -265.5t-72 -152.5q-133 -164 -428 -164q-223 0 -406 92l74 178q155 -88 313 -88q197 0 264 140q33 70 33 243v74q-71 -80 -143.5 -115.5t-167.5 -35.5q-191 0 -304.5 141 t-113.5 377zM248 1497h223l145 -186l144 186h225l-227 -299h-285zM340 539q0 -151 63.5 -240.5t169.5 -89.5q74 0 140 47t108 131v305q-40 89 -107 140t-145 51q-106 0 -167.5 -93t-61.5 -251z" />
<glyph unicode="&#x1f4;" horiz-adv-x="1445" d="M102 692q0 346 192 547t523 201q236 0 457 -99l-82 -198q-101 52 -187.5 74t-183.5 22q-240 0 -360 -172q-47 -69 -74 -167t-27 -202q0 -238 124 -379t335 -141q108 0 215 37v350h-260v201h504v-700q-257 -89 -473 -89q-329 0 -516 190.5t-187 524.5zM604 1550l248 299 h291l-316 -299h-223z" />
<glyph unicode="&#x219;" horiz-adv-x="931" d="M92 59l64 183q84 -46 145 -65t131 -19q82 0 127 35t45 98q0 61 -41 88q-20 15 -50.5 28t-117.5 44q-94 34 -138 55.5t-79 52.5q-80 74 -80 193q0 146 103 230.5t282 84.5q166 0 340 -76l-61 -182q-138 80 -268 80q-74 0 -117 -32t-43 -87q0 -56 57 -90q39 -21 164 -68 q161 -60 224 -126t63 -173q0 -154 -111 -245t-297 -91q-179 0 -342 82zM131 -375l242 307h268l-287 -307h-223z" />
<glyph unicode="&#x21a;" horiz-adv-x="1116" d="M20 1217v200h1078v-200h-418v-1217h-248v1217h-412zM213 -375l242 307h268l-287 -307h-223z" />
<glyph unicode="&#x2c6;" horiz-adv-x="1024" d="M143 1198l226 299h284l228 -299h-226l-143 186l-143 -186h-226z" />
<glyph unicode="&#x2c7;" horiz-adv-x="1024" d="M143 1497h224l145 -186l143 186h226l-228 -299h-284z" />
<glyph unicode="&#x2d8;" horiz-adv-x="1024" d="M174 1497h154q6 -86 49 -124t135 -38q91 0 133.5 38t50.5 124h152q-3 -164 -85 -241.5t-251 -77.5q-204 0 -287 118q-26 37 -38 82.5t-13 118.5z" />
<glyph unicode="&#x2d9;" horiz-adv-x="1024" d="M369 1356q0 63 41 103t104 40t104 -41t41 -104t-41 -104.5t-104 -41.5q-64 0 -104.5 41.5t-40.5 106.5z" />
<glyph unicode="&#x2da;" horiz-adv-x="1024" d="M291 1380q0 92 63.5 154.5t157.5 62.5q95 0 158 -62.5t63 -156.5q0 -95 -63 -158t-158 -63t-158 63t-63 160zM410 1378q0 -51 27.5 -80.5t74.5 -29.5q46 0 74 29.5t28 80.5q0 49 -28 79t-74 30t-74 -30t-28 -79z" />
<glyph unicode="&#x2db;" horiz-adv-x="1024" d="M219 -262q0 79 62.5 142t197.5 120h152q-130 -78 -173.5 -123t-43.5 -104q0 -43 34 -70t89 -27q35 0 86 13l14 -119q-100 -21 -160 -21q-118 0 -188 51.5t-70 137.5z" />
<glyph unicode="&#x2dc;" horiz-adv-x="1024" d="M133 1217q9 117 64 184t143 67q67 0 192 -45q98 -34 138 -34q75 0 84 84h139q-24 -254 -211 -254q-38 0 -72.5 7.5t-109.5 33.5q-113 38 -148 38q-60 0 -78 -81h-141z" />
<glyph unicode="&#x2dd;" horiz-adv-x="1024" d="M176 1198l230 299h286l-297 -299h-219zM584 1198l227 299h289l-301 -299h-215z" />
<glyph unicode="&#x3a9;" horiz-adv-x="1609" d="M104 811q0 146 57.5 270.5t166.5 212.5q181 146 477 146q341 0 530 -195q170 -176 170 -434q0 -294 -219 -461q-39 -32 -82.5 -53.5t-118.5 -48.5v-58h410v-190h-594v377q86 25 138 52t94 69q112 115 112 305q0 204 -117 320t-323 116t-323 -116t-117 -320 q0 -221 149 -340q62 -46 195 -86v-377h-594v190h409v58q-92 32 -145.5 62.5t-104.5 80.5q-170 167 -170 420z" />
<glyph unicode="&#x3c0;" horiz-adv-x="1251" d="M37 862v182h1177v-182h-155v-862h-240v862h-381v-862h-239v862h-162z" />
<glyph unicode="&#x401;" horiz-adv-x="1157" d="M180 0v1417h830v-200h-582v-398h553v-201h-553v-417h612v-201h-860zM242 1704q0 63 41 103t104 40t104 -41t41 -104t-41 -104.5t-104 -41.5q-64 0 -104.5 41.5t-40.5 106.5zM666 1704q0 63 41 103t104 40t104 -41t41 -104t-41 -104.5t-104 -41.5q-64 0 -104.5 41.5 t-40.5 106.5z" />
<glyph unicode="&#x402;" horiz-adv-x="1558" d="M29 1217v200h1136v-200h-553v-447q103 91 198.5 130.5t213.5 39.5q231 0 315 -158q50 -94 50 -311v-209q0 -261 -28.5 -385.5t-103.5 -195.5q-63 -59 -157.5 -88t-241.5 -33v182q184 6 238 111q43 85 43 387v186q0 179 -39 246t-142 67q-90 0 -180 -49t-166 -139v-551 h-250v1217h-333z" />
<glyph unicode="&#x403;" horiz-adv-x="1046" d="M180 0v1417h824v-200h-576v-1217h-248zM418 1550l248 299h290l-315 -299h-223z" />
<glyph unicode="&#x404;" horiz-adv-x="1222" d="M106 707q0 359 151 546t441 187q225 0 422 -105l-80 -188q-160 92 -321 92q-163 0 -245 -99t-101 -317h622v-200h-624q14 -230 104 -338.5t268 -108.5q158 0 322 90l82 -188q-201 -101 -434 -101q-607 0 -607 730z" />
<glyph unicode="&#x405;" horiz-adv-x="1140" d="M106 1024q0 192 127 304t347 112q171 0 397 -72l-49 -211q-193 82 -338 82q-103 0 -164 -48t-61 -130q0 -71 51.5 -115.5t204.5 -107.5q128 -53 190.5 -85t106.5 -69q116 -101 116 -283q0 -201 -131.5 -312.5t-367.5 -111.5q-210 0 -422 72l32 217q127 -49 211.5 -68.5 t169.5 -19.5q114 0 180 55t66 150q0 55 -20.5 88t-76 66.5t-177.5 85.5q-130 56 -181.5 82t-93.5 59q-117 94 -117 260z" />
<glyph unicode="&#x406;" horiz-adv-x="610" d="M180 0v1417h248v-1417h-248z" />
<glyph unicode="&#x407;" horiz-adv-x="610" d="M-51 1704q0 63 41 103t104 40t104.5 -41t41.5 -104t-41.5 -104.5t-104.5 -41.5q-64 0 -104.5 41.5t-40.5 106.5zM182 0v1417h248v-1417h-248zM373 1704q0 63 41 103t104 40t104.5 -41t41.5 -104t-41.5 -104.5t-104.5 -41.5q-64 0 -104.5 41.5t-40.5 106.5z" />
<glyph unicode="&#x408;" horiz-adv-x="821" d="M2 18l23 207q100 -43 184 -43q124 0 166 82q17 33 22.5 87t5.5 171v895h248v-887q0 -192 -16 -277.5t-64 -148.5q-100 -127 -321 -127q-136 0 -248 41z" />
<glyph unicode="&#x409;" horiz-adv-x="1959" d="M0 0v201q40 4 66 8t50.5 13t38.5 19t27 30.5t18.5 42t10 59t5.5 77t1 99.5v868h946v-520h199q139 0 217 -17t139 -61q162 -116 162 -370q0 -255 -162 -371q-61 -44 -139 -61t-217 -17h-447v1217h-456v-709q0 -198 -23 -283q-35 -120 -131 -169.5t-305 -55.5zM1163 188 h146q92 0 145.5 11.5t89.5 38.5q37 30 58.5 85.5t21.5 125.5t-21.5 125t-58.5 85q-67 50 -235 50h-146v-521z" />
<glyph unicode="&#x40a;" horiz-adv-x="2035" d="M180 0v1417h248v-557h551v557h248v-557h205q140 0 218.5 -16.5t141.5 -59.5q164 -108 164 -354t-164 -354q-63 -43 -141.5 -59.5t-218.5 -16.5h-453v662h-551v-662h-248zM1227 188h151q98 0 151.5 11t90.5 37q80 58 80 194q0 137 -80 195q-36 27 -87.5 37t-154.5 10h-151 v-484z" />
<glyph unicode="&#x40b;" horiz-adv-x="1564" d="M29 1217v200h1136v-200h-553v-447q102 92 198.5 131t217.5 39q234 0 322 -147q51 -81 51 -291v-502h-248v465q0 135 -27 190q-43 84 -168 84q-91 0 -181 -49t-165 -139v-551h-250v1217h-333z" />
<glyph unicode="&#x40c;" horiz-adv-x="1296" d="M180 0v1417h246v-614h63q106 0 156 61q20 23 38 61.5t62 147.5q61 152 109 224t109 100t165 28q50 0 105 -8l-19 -196q-36 8 -59 8q-46 0 -76.5 -17.5t-56.5 -58.5q-29 -44 -78 -178q-46 -121 -79 -165.5t-105 -82.5q73 -24 111 -50t73 -75.5t96 -163.5l226 -438h-273 l-174 338q-59 116 -80.5 151t-52.5 68q-34 38 -74 54t-104 16h-82v-627h-246zM543 1550l248 299h290l-315 -299h-223z" />
<glyph unicode="&#x40e;" horiz-adv-x="1249" d="M31 1417h274l227 -534q5 -13 26.5 -60.5t31.5 -74.5q6 -14 16.5 -41t28.5 -74t33 -86q56 159 129 340l217 530h243l-448 -1061q-94 -222 -184 -300.5t-252 -78.5q-77 0 -162 21l35 192q60 -14 110 -14q75 0 118.5 30t78.5 105zM322 1847h151q7 -86 50 -123.5t134 -37.5 q92 0 135.5 37.5t49.5 123.5h153q-3 -138 -49 -209q-83 -127 -289 -127t-286 127q-26 38 -36.5 84t-12.5 125z" />
<glyph unicode="&#x40f;" horiz-adv-x="1384" d="M180 0v1417h248v-1216h526v1216h248v-1417h-389l-29 -344h-186l-29 344h-389z" />
<glyph unicode="&#x410;" horiz-adv-x="1386" d="M25 0l524 1417h274l537 -1417h-264l-146 406h-532l-146 -406h-247zM485 600h398l-119 336q-36 99 -80 244q-36 -119 -80 -244z" />
<glyph unicode="&#x411;" horiz-adv-x="1220" d="M180 0v1417h854v-200h-606v-332h168q133 0 217.5 -18.5t144.5 -59.5q166 -110 166 -365q0 -253 -166 -364q-60 -43 -138.5 -60.5t-205.5 -17.5h-434zM428 188h135q156 0 221 48q84 62 84 206q0 69 -22 123.5t-62 83.5q-64 47 -221 47h-135v-508z" />
<glyph unicode="&#x412;" horiz-adv-x="1230" d="M180 0v1417h379q147 0 227.5 -14t145.5 -51q75 -41 117.5 -124t42.5 -186q0 -256 -248 -319q278 -58 278 -332q0 -104 -41.5 -187t-119.5 -134q-62 -39 -141 -54.5t-216 -15.5h-424zM424 188h117q103 0 150 6.5t83 26.5q43 23 67.5 72.5t24.5 114.5q0 136 -108 188 q-39 20 -85.5 27.5t-129.5 7.5h-119v-443zM424 805h115q164 0 225 41q76 51 76 166q0 125 -78 174q-38 25 -87 34t-147 9h-104v-424z" />
<glyph unicode="&#x413;" horiz-adv-x="1046" d="M180 0v1417h824v-200h-576v-1217h-248z" />
<glyph unicode="&#x414;" horiz-adv-x="1386" d="M-29 201h135q41 75 65.5 151.5t43.5 190.5q47 288 47 682v192h926v-1216h149v-545h-184l-29 344h-938l-28 -344h-187v545zM365 197h575v1020h-442v-99q0 -112 -13 -283t-30 -290q-26 -181 -90 -348z" />
<glyph unicode="&#x415;" horiz-adv-x="1157" d="M180 0v1417h830v-200h-582v-398h553v-201h-553v-417h612v-201h-860z" />
<glyph unicode="&#x416;" horiz-adv-x="1816" d="M29 0l217 438q45 86 71 129t58.5 77t63.5 49.5t87 33.5q-45 23 -68 39.5t-47.5 53.5t-42.5 81.5t-53 140.5q-37 106 -76 145.5t-106 39.5q-7 0 -57 -4l-17 194q68 6 105 6q92 0 154.5 -28t105.5 -88q29 -41 46.5 -80t100.5 -244q43 -108 83 -144t118 -36h14v614h244v-614 h14q102 0 152 71q18 31 100 232q41 107 71 160t67 88q78 69 219 69q37 0 104 -6l-16 -194q-50 4 -58 4q-41 0 -64.5 -7.5t-47.5 -37.5t-44 -75.5t-52 -133.5q-44 -122 -76 -164t-109 -82q104 -32 151.5 -81t129.5 -208l217 -438h-270l-166 338q-88 178 -146.5 233.5 t-158.5 55.5h-17v-627h-244v627h-16q-100 0 -158.5 -55.5t-146.5 -233.5l-166 -338h-270z" />
<glyph unicode="&#x417;" horiz-adv-x="1191" d="M53 55l56 199q193 -78 387 -78q158 0 242.5 60.5t84.5 173.5q0 123 -98.5 179t-312.5 56q-83 0 -146 -2v191q61 -5 117 -5q223 0 322 58q104 58 104 162q0 93 -74.5 142.5t-214.5 49.5q-87 0 -165.5 -17.5t-194.5 -60.5l-49 197q214 80 436 80q248 0 380 -95.5 t132 -273.5q0 -135 -74.5 -220.5t-214.5 -111.5q157 -31 231 -112.5t74 -225.5q0 -203 -146 -313.5t-415 -110.5q-237 0 -461 78z" />
<glyph unicode="&#x418;" horiz-adv-x="1439" d="M180 0v1417h242v-950l594 831v119h241v-1417h-241v961l-594 -832v-129h-242z" />
<glyph unicode="&#x419;" horiz-adv-x="1439" d="M180 0v1417h242v-950l594 831v119h241v-1417h-241v961l-594 -832v-129h-242zM383 1847h152q6 -86 49 -123.5t135 -37.5t135 37.5t49 123.5h154q-3 -138 -49 -209q-83 -127 -289 -127q-207 0 -287 127q-26 38 -36.5 84.5t-12.5 124.5z" />
<glyph unicode="&#x41a;" horiz-adv-x="1296" d="M180 0v1417h246v-614h63q106 0 156 61q20 23 38 61.5t62 147.5q61 152 109 224t109 100t165 28q50 0 105 -8l-19 -196q-36 8 -59 8q-46 0 -76.5 -17.5t-56.5 -58.5q-29 -44 -78 -178q-46 -121 -79 -165.5t-105 -82.5q73 -24 111 -50t73 -75.5t96 -163.5l226 -438h-273 l-174 338q-59 116 -80.5 151t-52.5 68q-34 38 -74 54t-104 16h-82v-627h-246z" />
<glyph unicode="&#x41b;" horiz-adv-x="1359" d="M0 0v201q53 5 84.5 11t58.5 22t39.5 36t21.5 61.5t11 89t2 128.5v868h961v-1417h-248v1217h-471v-709q0 -210 -27.5 -298.5t-107.5 -141.5q-53 -34 -126.5 -49.5t-197.5 -18.5z" />
<glyph unicode="&#x41c;" horiz-adv-x="1859" d="M180 0v1417h361l317 -899q47 -145 76 -248q53 179 76 248l313 899h354v-1417h-241v1161q-32 -112 -97 -309l-295 -852h-235l-293 834q-47 135 -104 327v-1161h-232z" />
<glyph unicode="&#x41d;" horiz-adv-x="1452" d="M180 0v1417h248v-594h594v594h248v-1417h-248v623h-594v-623h-248z" />
<glyph unicode="&#x41e;" horiz-adv-x="1529" d="M106 717q0 164 54.5 309.5t152.5 243.5q164 170 451 170q326 0 500 -226q157 -204 157 -505q0 -171 -53 -316t-154 -246q-164 -170 -450 -170q-326 0 -500 226q-158 204 -158 514zM365 715q0 -249 106.5 -393t292.5 -144q184 0 291.5 143t107.5 388t-107.5 387.5 t-291.5 142.5q-183 0 -291 -142t-108 -382z" />
<glyph unicode="&#x41f;" horiz-adv-x="1415" d="M180 0v1417h1053v-1417h-248v1217h-557v-1217h-248z" />
<glyph unicode="&#x420;" horiz-adv-x="1138" d="M180 0v1417h342q161 0 252 -19t158 -65q77 -56 118.5 -144t41.5 -198q0 -226 -166 -342q-66 -45 -154.5 -64.5t-228.5 -19.5h-115v-565h-248zM424 760h80q94 0 145.5 7.5t89.5 27.5q46 24 72.5 73.5t26.5 116.5q0 64 -23.5 114.5t-66.5 78.5q-38 25 -90 35t-142 10h-92 v-463z" />
<glyph unicode="&#x421;" horiz-adv-x="1218" d="M106 694q0 344 177 545t481 201q106 0 197 -21.5t200 -72.5l-82 -195q-88 47 -158.5 67.5t-146.5 20.5q-189 0 -299 -144t-110 -393q0 -247 111.5 -385.5t309.5 -138.5q87 0 154 19.5t166 74.5l70 -200q-112 -54 -199.5 -74.5t-200.5 -20.5q-319 0 -494.5 188t-175.5 529 z" />
<glyph unicode="&#x422;" horiz-adv-x="1128" d="M25 1217v200h1077v-200h-418v-1217h-248v1217h-411z" />
<glyph unicode="&#x423;" horiz-adv-x="1249" d="M31 1417h274l227 -534q5 -13 26.5 -60.5t31.5 -74.5q6 -14 16.5 -41t28.5 -74t33 -86q56 159 129 340l217 530h243l-448 -1061q-94 -222 -184 -300.5t-252 -78.5q-77 0 -162 21l35 192q60 -14 110 -14q75 0 118.5 30t78.5 105z" />
<glyph unicode="&#x424;" horiz-adv-x="1765" d="M106 709q0 255 177.5 415.5t484.5 180.5v174h227v-174q307 -20 484.5 -180.5t177.5 -415.5t-177.5 -415.5t-484.5 -180.5v-174h-227v174q-307 20 -484.5 180.5t-177.5 415.5zM362 709q0 -170 107.5 -278.5t298.5 -131.5v819q-191 -23 -298.5 -131t-107.5 -278zM995 299 q191 23 298.5 131.5t107.5 278.5t-107.5 278t-298.5 131v-819z" />
<glyph unicode="&#x425;" horiz-adv-x="1402" d="M20 0l523 735l-471 682h288l349 -504l354 504h280l-491 -694l504 -723h-299l-367 537l-383 -537h-287z" />
<glyph unicode="&#x426;" horiz-adv-x="1400" d="M180 0v1417h248v-1216h526v1216h248v-1218h150v-543h-185l-30 344h-957z" />
<glyph unicode="&#x427;" horiz-adv-x="1353" d="M154 784v633h247v-604q0 -126 27 -176q22 -43 70 -66.5t114 -23.5q167 0 314 176v694h248v-1417h-248v506q-91 -83 -186 -121.5t-210 -38.5q-235 0 -323 148q-29 46 -41 111.5t-12 178.5z" />
<glyph unicode="&#x428;" horiz-adv-x="2060" d="M180 0v1417h248v-1216h477v1216h248v-1216h477v1216h248v-1417h-1698z" />
<glyph unicode="&#x429;" horiz-adv-x="2078" d="M180 0v1417h248v-1216h477v1216h248v-1216h477v1216h248v-1218h150v-543h-185l-31 344h-1632z" />
<glyph unicode="&#x42a;" horiz-adv-x="1290" d="M-27 1217v200h541v-520h168q133 0 218 -18.5t147 -59.5q165 -115 165 -370q0 -258 -165 -371q-62 -42 -142 -60t-205 -18h-434v1217h-293zM514 188h135q155 0 223 50q40 29 62 84.5t22 126.5q0 70 -22 125.5t-62 84.5q-68 50 -223 50h-135v-521z" />
<glyph unicode="&#x42b;" horiz-adv-x="1769" d="M180 0v1417h248v-520h180q139 0 217.5 -17t139.5 -61q161 -115 161 -370q0 -256 -161 -371q-61 -44 -139.5 -61t-217.5 -17h-428zM428 188h127q169 0 236 50q37 29 58 85t21 126t-21 125.5t-58 84.5q-67 50 -236 50h-127v-521zM1341 0v1417h248v-1417h-248z" />
<glyph unicode="&#x42c;" horiz-adv-x="1206" d="M180 0v1417h248v-520h180q139 0 217.5 -17t139.5 -61q161 -115 161 -370q0 -256 -161 -371q-61 -44 -139.5 -61t-217.5 -17h-428zM428 188h127q169 0 236 50q37 29 58 85t21 126t-21 125.5t-58 84.5q-67 50 -236 50h-127v-521z" />
<glyph unicode="&#x42d;" horiz-adv-x="1222" d="M74 78l82 188q164 -90 321 -90q179 0 269.5 108.5t103.5 338.5h-625v200h623q-19 220 -98.5 318t-239.5 98q-164 0 -330 -92l-80 188q202 105 424 105q289 0 439.5 -187t150.5 -546q0 -730 -608 -730q-234 0 -432 101z" />
<glyph unicode="&#x42e;" horiz-adv-x="2109" d="M180 0v1417h248v-594h328q20 183 102 328q165 289 518 289q311 0 475 -228q150 -204 150 -503q0 -171 -51 -316t-146 -246q-157 -170 -428 -170q-351 0 -516 287q-89 159 -106 359h-326v-623h-248zM1010 713q0 -249 98 -393t268 -144q169 0 268 143.5t99 387.5 q0 246 -99 389t-268 143q-167 0 -266.5 -142.5t-99.5 -383.5z" />
<glyph unicode="&#x42f;" horiz-adv-x="1282" d="M25 0l178 403q37 85 57.5 126t44.5 72.5t45 43.5t60 25q-135 35 -208 129t-73 235q0 98 39.5 178t112.5 131q113 74 344 74h475v-1417h-248v586h-107q-72 0 -111.5 -7.5t-77.5 -40.5t-65 -83.5t-71 -151.5l-129 -303h-266zM383 1006q0 -65 27.5 -115t78.5 -76 q73 -37 213 -37h154v447h-164q-157 0 -223 -41q-86 -55 -86 -178z" />
<glyph unicode="&#x430;" horiz-adv-x="1144" d="M88 293q0 98 43 174t123 119q100 53 309 53q29 0 170 -6v20q0 116 -58.5 177t-172.5 61q-130 0 -283 -88l-63 172q185 92 379 92q253 0 360 -137q45 -56 61.5 -130t16.5 -222v-312q0 -178 10 -266h-227l-8 119q-76 -77 -149 -109.5t-175 -32.5q-158 0 -247 84t-89 232z M336 299q0 -72 44 -115t118 -43q134 0 235 146v196q-47 4 -108 4q-148 0 -218.5 -45.5t-70.5 -142.5z" />
<glyph unicode="&#x431;" horiz-adv-x="1189" d="M104 641q0 573 195 731q87 73 244 96q58 10 239 23q135 10 211 22l15 -180q-47 -8 -205 -22q-76 -4 -129.5 -9t-102 -16t-79.5 -24.5t-59 -38t-44 -53t-30 -73t-22 -94t-15 -120.5q76 103 150 143.5t183 40.5q200 0 318.5 -147t118.5 -396q0 -255 -132 -401t-362 -146 q-254 0 -381 168q-113 148 -113 496zM352 584q0 -202 45 -293q61 -131 203 -131q112 0 178 98.5t66 267.5q0 164 -63.5 261.5t-170.5 97.5q-160 0 -258 -195v-106z" />
<glyph unicode="&#x432;" horiz-adv-x="1171" d="M176 0v1044h471q107 0 171.5 -12.5t111.5 -42.5q112 -70 112 -223q0 -82 -39 -135t-126 -90q103 -37 146.5 -92.5t43.5 -147.5q0 -149 -100 -225t-297 -76h-494zM412 172h233q83 0 126.5 36t43.5 105q0 140 -176 140h-227v-281zM412 612h233q156 0 156 131 q0 129 -168 129h-221v-260z" />
<glyph unicode="&#x433;" horiz-adv-x="919" d="M176 0v1044h692v-182h-452v-862h-240z" />
<glyph unicode="&#x434;" horiz-adv-x="1175" d="M-18 182h104q41 70 61 121.5t35 124.5q45 213 45 487v129h772v-862h123v-485h-186l-23 303h-723l-26 -303h-182v485zM336 180h424v682h-311v-47q0 -80 -12 -197.5t-27 -197.5q-19 -92 -74 -240z" />
<glyph unicode="&#x435;" horiz-adv-x="1171" d="M96 520q0 255 134 401t366 146q163 0 273 -65.5t157 -190.5q28 -72 38.5 -150.5t12.5 -214.5h-729q13 -147 87 -217.5t214 -70.5q156 0 312 100l83 -176q-182 -105 -401 -105q-263 0 -405 141t-142 402zM348 614h483q-3 132 -64.5 204.5t-170.5 72.5t-175.5 -74 t-72.5 -203z" />
<glyph unicode="&#x436;" horiz-adv-x="1601" d="M49 0l170 322q61 112 101.5 155t105.5 66q-58 39 -82.5 74t-60.5 126q-32 79 -54.5 103t-62.5 24q-13 0 -60 -6l-18 180q74 9 111 9q137 0 196 -82q24 -31 39.5 -64t71.5 -168q34 -79 60 -101t85 -22h33v428h236v-428h38q24 0 36 0.5t27.5 9t22.5 17t22.5 37t26.5 54 t35 83.5q61 146 114.5 191t162.5 45q37 0 111 -9l-19 -180q-46 6 -59 6q-31 0 -51 -14t-37 -49q-10 -17 -52 -119q-22 -49 -48 -81t-72 -64q65 -23 105 -66t101 -155l170 -322h-254l-143 274q-59 113 -97.5 150t-98.5 37h-41v-461h-236v461h-35q-66 0 -104.5 -35.5 t-98.5 -151.5l-143 -274h-254z" />
<glyph unicode="&#x437;" horiz-adv-x="1013" d="M47 53l59 189q174 -82 336 -82q111 0 170.5 39t59.5 112q0 80 -73 115t-239 35q-7 0 -129 -4v172l25 -2l29 -2h53q171 0 248.5 33t77.5 106q0 60 -51.5 92.5t-145.5 32.5q-137 0 -317 -82l-58 184q194 76 395 76q204 0 310 -72.5t106 -212.5q0 -88 -40 -143.5t-128 -89.5 q92 -31 136 -91t44 -155q0 -326 -454 -326q-116 0 -209.5 17.5t-204.5 58.5z" />
<glyph unicode="&#x438;" horiz-adv-x="1245" d="M176 0v1044h238v-632l417 524v108h238v-1044h-238v639l-417 -524v-115h-238z" />
<glyph unicode="&#x439;" horiz-adv-x="1245" d="M176 0v1044h238v-632l417 524v108h238v-1044h-238v639l-417 -524v-115h-238zM287 1485h151q7 -81 50.5 -116.5t134.5 -35.5q92 0 135 35t49 117h154q-3 -135 -52 -207q-83 -123 -286 -123q-206 0 -285 123q-27 38 -38 84t-13 123z" />
<glyph unicode="&#x43a;" horiz-adv-x="1150" d="M176 0v1044h238v-428h80q25 0 37 0.5t28 9.5t23.5 17.5t23 36.5t27 54.5t35.5 82.5q43 101 77.5 149t79.5 67.5t123 19.5q42 0 113 -9l-19 -180q-46 6 -59 6q-41 0 -63 -24t-56 -103q-39 -96 -64 -130.5t-83 -69.5q63 -20 102.5 -61t102.5 -152l180 -330h-258l-146 268 q-62 116 -102.5 151.5t-112.5 35.5h-69v-455h-238z" />
<glyph unicode="&#x43b;" horiz-adv-x="1169" d="M20 0v184q42 3 68 7.5t48 18.5t33 32.5t18.5 54.5t9.5 79t2 113v555h794v-1044h-239v862h-324v-385q0 -202 -24.5 -286t-98.5 -134q-46 -29 -112 -42t-175 -15z" />
<glyph unicode="&#x43c;" horiz-adv-x="1583" d="M176 0v1044h326l248 -667q18 -47 47 -146q20 77 45 144l245 669h320v-1044h-231v799q-14 -61 -74 -236l-207 -563h-209l-213 565q-56 154 -74 234v-799h-223z" />
<glyph unicode="&#x43d;" horiz-adv-x="1255" d="M176 0v1044h240v-419h424v419h239v-1044h-239v442h-424v-442h-240z" />
<glyph unicode="&#x43e;" horiz-adv-x="1216" d="M96 528q0 249 138 394t374 145q238 0 375 -146t137 -399t-137 -399t-375 -146q-239 0 -375.5 146.5t-136.5 404.5zM344 526q0 -172 70 -269t194 -97q123 0 193.5 96.5t70.5 265.5t-70.5 266t-193.5 97t-193.5 -96.5t-70.5 -262.5z" />
<glyph unicode="&#x43f;" horiz-adv-x="1239" d="M176 0v1044h887v-1044h-240v862h-407v-862h-240z" />
<glyph unicode="&#x440;" horiz-adv-x="1232" d="M162 1044h231l8 -143q70 89 143.5 127.5t172.5 38.5q190 0 305 -148.5t115 -394.5q0 -266 -131 -418q-55 -67 -125 -98t-166 -31q-98 0 -169 36.5t-134 119.5v-573h-240v1067q0 258 -10 417zM412 340q57 -93 116 -135.5t131 -42.5q104 0 167 99t63 265q0 164 -64 260.5 t-172 96.5q-135 0 -241 -172v-371z" />
<glyph unicode="&#x441;" horiz-adv-x="997" d="M96 518q0 258 131.5 403.5t364.5 145.5q177 0 338 -80l-72 -178q-123 76 -242 76q-131 0 -201.5 -94t-70.5 -269q0 -171 77 -265.5t216 -94.5q66 0 120.5 18.5t116.5 61.5l78 -174q-143 -91 -338 -91q-243 0 -380.5 143.5t-137.5 397.5z" />
<glyph unicode="&#x442;" horiz-adv-x="915" d="M16 862v182h883v-182h-324v-862h-239v862h-320z" />
<glyph unicode="&#x443;" horiz-adv-x="1110" d="M18 -428l41 186q72 -30 129 -30q83 0 139 64t113 224l-420 1028h254l209 -528q53 -137 88 -240q47 142 88 250l197 518h234l-422 -1067q-55 -137 -98.5 -219t-95 -134t-108 -70.5t-139.5 -18.5q-94 0 -209 37z" />
<glyph unicode="&#x444;" horiz-adv-x="1730" d="M96 520q0 249 106 398t283 149q85 0 150 -35.5t119 -111.5v577h221v-577q60 78 124 112.5t148 34.5q175 0 280 -148.5t105 -394.5q0 -251 -104 -399t-281 -148q-89 0 -152 36t-120 120v-573h-221v573q-58 -85 -121 -120.5t-154 -35.5q-177 0 -280 146t-103 397zM340 526 q0 -167 54 -265.5t145 -98.5q63 0 112 40.5t103 137.5v371q-91 172 -209 172q-94 0 -149.5 -97t-55.5 -260zM975 340q55 -98 104.5 -138t112.5 -40q88 0 142.5 100t54.5 264q0 163 -55.5 260t-149.5 97q-119 0 -209 -172v-371z" />
<glyph unicode="&#x445;" horiz-adv-x="1136" d="M35 0l403 528l-381 516h277l241 -348l256 348h265l-389 -505l397 -539h-275l-258 367l-272 -367h-264z" />
<glyph unicode="&#x446;" horiz-adv-x="1228" d="M176 0v1044h240v-862h397v862h240v-862h123v-485h-187l-22 303h-791z" />
<glyph unicode="&#x447;" horiz-adv-x="1222" d="M145 651v393h240v-378q0 -106 18 -146q36 -74 138 -74q134 0 266 156v442h240v-1044h-240v406q-91 -82 -164 -113t-176 -31q-202 0 -277 131q-25 41 -35 99t-10 159z" />
<glyph unicode="&#x448;" horiz-adv-x="1798" d="M176 0v1044h240v-862h364v862h240v-862h364v862h240v-1044h-1448z" />
<glyph unicode="&#x449;" horiz-adv-x="1798" d="M176 0v1044h240v-862h364v862h240v-862h364v862h240v-862h121v-485h-184l-23 303h-1362z" />
<glyph unicode="&#x44a;" horiz-adv-x="1181" d="M-10 862v182h524v-337h158q118 0 182 -13t117 -47q133 -87 133 -295q0 -206 -133 -293q-52 -34 -117 -46.5t-182 -12.5h-393v862h-289zM514 172h115q126 0 174 37q57 45 57 145q0 101 -57 146q-27 20 -65 28.5t-109 8.5h-115v-365z" />
<glyph unicode="&#x44b;" horiz-adv-x="1605" d="M176 0v1044h240v-337h157q118 0 182 -13t117 -47q134 -88 134 -295q0 -205 -134 -293q-52 -34 -117 -46.5t-182 -12.5h-397zM416 172h114q127 0 175 37q57 45 57 145q0 101 -57 146q-27 20 -65.5 28.5t-109.5 8.5h-114v-365zM1190 0v1044h240v-1044h-240z" />
<glyph unicode="&#x44c;" horiz-adv-x="1083" d="M176 0v1044h240v-337h157q118 0 182 -13t117 -47q134 -88 134 -295q0 -205 -134 -293q-52 -34 -117 -46.5t-182 -12.5h-397zM416 172h114q127 0 175 37q57 45 57 145q0 101 -57 146q-27 20 -65.5 28.5t-109.5 8.5h-114v-365z" />
<glyph unicode="&#x44d;" horiz-adv-x="1048" d="M59 61l80 175q131 -74 258 -74q261 0 301 287h-487v172h485q-19 136 -83 200t-183 64q-133 0 -272 -78l-74 172q180 88 369 88q239 0 369 -144.5t130 -408.5q0 -258 -137.5 -397.5t-392.5 -139.5q-211 0 -363 84z" />
<glyph unicode="&#x44e;" horiz-adv-x="1755" d="M176 0v1044h240v-419h270q28 212 154 327t329 115q227 0 358.5 -146t131.5 -399t-131.5 -399t-358.5 -146q-207 0 -334.5 122t-150.5 343h-268v-442h-240zM928 526q0 -172 63.5 -269t177.5 -97q113 0 177.5 96.5t64.5 265.5t-64.5 266t-177.5 97q-112 0 -176.5 -96.5 t-64.5 -262.5z" />
<glyph unicode="&#x44f;" horiz-adv-x="1177" d="M25 0l172 301q53 90 74 116.5t55 45.5q-106 40 -155.5 106t-49.5 170q0 171 127 248q49 31 116.5 44t174.5 13h462v-1044h-239v389h-139q-86 0 -127 -32.5t-101 -149.5l-106 -207h-264zM365 719q0 -85 53.5 -120.5t181.5 -35.5h166v305h-176q-123 0 -174 -33.5 t-51 -115.5z" />
<glyph unicode="&#x451;" horiz-adv-x="1171" d="M96 520q0 255 134 401t366 146q163 0 273 -65.5t157 -190.5q28 -72 38.5 -150.5t12.5 -214.5h-729q13 -147 87 -217.5t214 -70.5q156 0 312 100l83 -176q-182 -105 -401 -105q-263 0 -405 141t-142 402zM260 1362q0 60 39.5 98.5t99.5 38.5q63 0 102.5 -38.5t39.5 -100.5 t-39.5 -101.5t-100.5 -39.5q-63 0 -102 40t-39 103zM348 614h483q-3 132 -64.5 204.5t-170.5 72.5t-175.5 -74t-72.5 -203zM684 1362q0 60 39.5 98.5t99.5 38.5q63 0 102.5 -38.5t39.5 -100.5t-39.5 -101.5t-100.5 -39.5q-63 0 -102 40t-39 103z" />
<glyph unicode="&#x452;" horiz-adv-x="1267" d="M8 1182v153h168v162h240v-162h293v-153h-293v-277q85 86 168.5 124t187.5 38q204 0 285 -147q45 -83 45 -291v-305q0 -277 -22 -410t-79 -207q-57 -71 -157.5 -106t-261.5 -41v182q183 6 237 111q43 85 43 387v376q0 128 -20 177q-36 90 -150 90q-144 0 -276 -176v-707 h-240v1182h-168z" />
<glyph unicode="&#x453;" horiz-adv-x="919" d="M176 0v1044h692v-182h-452v-862h-240zM356 1198l248 299h291l-315 -299h-224z" />
<glyph unicode="&#x454;" horiz-adv-x="1048" d="M96 512q0 266 130.5 410.5t369.5 144.5q100 0 185.5 -20.5t183.5 -67.5l-74 -172q-136 78 -262 78q-237 0 -277 -264h486v-172h-488q22 -149 94 -218t207 -69q129 0 260 74l78 -175q-153 -84 -362 -84q-258 0 -394.5 137.5t-136.5 397.5z" />
<glyph unicode="&#x455;" horiz-adv-x="944" d="M96 59l64 183q84 -46 145 -65t131 -19q82 0 127 35t45 98q0 61 -41 88q-20 15 -50.5 28t-117.5 44q-94 34 -138 55.5t-79 52.5q-80 74 -80 193q0 146 103 230.5t282 84.5q166 0 340 -76l-61 -182q-138 80 -268 80q-74 0 -117 -32t-43 -87q0 -56 57 -90q39 -21 164 -68 q161 -60 224 -126t63 -173q0 -154 -111 -245t-297 -91q-179 0 -342 82z" />
<glyph unicode="&#x456;" horiz-adv-x="583" d="M143 1382q0 64 42.5 106t107.5 42q64 0 105.5 -41.5t41.5 -106.5q0 -66 -41 -107.5t-106 -41.5q-66 0 -108 41.5t-42 107.5zM172 0v1044h240v-1044h-240z" />
<glyph unicode="&#x457;" horiz-adv-x="583" d="M-59 1362q0 60 39.5 98.5t99.5 38.5q63 0 102 -38.5t39 -100.5t-39 -101.5t-100 -39.5q-63 0 -102 40t-39 103zM174 0v1044h240v-1044h-240zM365 1362q0 60 39.5 98.5t99.5 38.5q63 0 102 -38.5t39 -100.5t-39 -101.5t-100 -39.5q-63 0 -102 40t-39 103z" />
<glyph unicode="&#x458;" horiz-adv-x="604" d="M-74 -440l21 186q68 -18 102 -18q76 0 108.5 53t32.5 178v1085h240v-1050q0 -141 -13 -215t-46 -121q-83 -121 -273 -121q-68 0 -172 23zM162 1384q0 63 42.5 105.5t106.5 42.5q66 0 108 -42t42 -108q0 -65 -42 -107t-108 -42t-107.5 42t-41.5 109z" />
<glyph unicode="&#x459;" horiz-adv-x="1658" d="M20 0v182q42 3 68.5 8t48 19t32.5 32.5t18.5 55t9.5 79.5t2 113v555h790v-337h158q118 0 182 -13t117 -47q133 -87 133 -295q0 -206 -133 -293q-52 -34 -117 -46.5t-182 -12.5h-393v862h-324v-383q0 -204 -25 -289.5t-98 -132.5q-85 -54 -287 -57zM989 172h115 q126 0 174 37q57 45 57 145q0 101 -57 146q-27 20 -65 28.5t-109 8.5h-115v-365z" />
<glyph unicode="&#x45a;" horiz-adv-x="1734" d="M176 0v1044h240v-376h407v376h240v-344h158q119 0 184 -12.5t117 -46.5q135 -85 135 -291q0 -207 -135 -291q-52 -34 -117 -46.5t-184 -12.5h-398v485h-407v-485h-240zM1063 172h115q71 0 110.5 8.5t67.5 28.5q57 42 57 141q0 97 -57 142q-28 22 -66.5 30t-111.5 8h-115 v-358z" />
<glyph unicode="&#x45b;" horiz-adv-x="1267" d="M8 1182v153h168v162h240v-162h293v-153h-293v-277q85 86 167.5 124t188.5 38q204 0 285 -147q45 -83 45 -291v-629h-240v616q0 128 -20 177q-36 90 -150 90q-144 0 -276 -176v-707h-240v1182h-168z" />
<glyph unicode="&#x45c;" horiz-adv-x="1150" d="M176 0v1044h238v-428h80q25 0 37 0.5t28 9.5t23.5 17.5t23 36.5t27 54.5t35.5 82.5q43 101 77.5 149t79.5 67.5t123 19.5q42 0 113 -9l-19 -180q-46 6 -59 6q-41 0 -63 -24t-56 -103q-39 -96 -64 -130.5t-83 -69.5q63 -20 102.5 -61t102.5 -152l180 -330h-258l-146 268 q-62 116 -102.5 151.5t-112.5 35.5h-69v-455h-238zM449 1198l247 299h291l-315 -299h-223z" />
<glyph unicode="&#x45e;" horiz-adv-x="1110" d="M18 -428l41 186q72 -30 129 -30q83 0 139 64t113 224l-420 1028h254l209 -528q53 -137 88 -240q47 142 88 250l197 518h234l-422 -1067q-55 -137 -98.5 -219t-95 -134t-108 -70.5t-139.5 -18.5q-94 0 -209 37zM227 1485h154q6 -82 49 -117t135 -35q91 0 134.5 35.5 t50.5 116.5h151q-1 -75 -13 -122t-38 -85q-80 -123 -285 -123q-203 0 -286 123q-27 39 -39 86t-13 121z" />
<glyph unicode="&#x45f;" horiz-adv-x="1228" d="M176 0v1044h240v-862h397v862h240v-1044h-324l-22 -303h-185l-22 303h-324z" />
<glyph unicode="&#x490;" horiz-adv-x="1046" d="M180 0v1417h621l30 240h173v-440h-576v-1217h-248z" />
<glyph unicode="&#x491;" horiz-adv-x="913" d="M176 0v1044h494l22 213h176v-395h-452v-862h-240z" />
<glyph unicode="&#x4c0;" horiz-adv-x="610" d="M180 0v1417h248v-1417h-248z" />
<glyph unicode="&#x1e84;" horiz-adv-x="1892" d="M61 1417h250l170 -774q35 -150 66 -324q30 142 76 314l200 784h262l193 -758q53 -207 78 -325q30 167 67 323l174 760h236l-340 -1417h-264l-197 760q-40 149 -84 350q-49 -210 -86 -346l-203 -764h-266zM590 1704q0 63 41 103t104 40t104.5 -41t41.5 -104t-41.5 -104.5 t-104.5 -41.5q-64 0 -104.5 41.5t-40.5 106.5zM1014 1704q0 63 41 103t104 40t104.5 -41t41.5 -104t-41.5 -104.5t-104.5 -41.5q-64 0 -104.5 41.5t-40.5 106.5z" />
<glyph unicode="&#x2000;" horiz-adv-x="937" />
<glyph unicode="&#x2001;" horiz-adv-x="1874" />
<glyph unicode="&#x2002;" horiz-adv-x="937" />
<glyph unicode="&#x2003;" horiz-adv-x="1874" />
<glyph unicode="&#x2004;" horiz-adv-x="624" />
<glyph unicode="&#x2005;" horiz-adv-x="468" />
<glyph unicode="&#x2006;" horiz-adv-x="312" />
<glyph unicode="&#x2007;" horiz-adv-x="589" />
<glyph unicode="&#x2008;" horiz-adv-x="234" />
<glyph unicode="&#x2009;" horiz-adv-x="374" />
<glyph unicode="&#x200a;" horiz-adv-x="104" />
<glyph unicode="&#x2010;" horiz-adv-x="636" d="M82 483v189h473v-189h-473z" />
<glyph unicode="&#x2011;" horiz-adv-x="636" d="M82 483v189h473v-189h-473z" />
<glyph unicode="&#x2012;" d="M94 483v189h993v-189h-993z" />
<glyph unicode="&#x2013;" d="M94 483v189h993v-189h-993z" />
<glyph unicode="&#x2014;" horiz-adv-x="2048" d="M-74 483v189h2198v-189h-2198z" />
<glyph unicode="&#x2015;" horiz-adv-x="2048" d="M-74 483v189h2198v-189h-2198z" />
<glyph unicode="&#x2017;" horiz-adv-x="1024" d="M-70 -133h1166v-115h-1166v115zM-70 -340h1166v-115h-1166v115z" />
<glyph unicode="&#x2018;" horiz-adv-x="460" d="M4 971l207 526h223l-162 -526h-268z" />
<glyph unicode="&#x2019;" horiz-adv-x="460" d="M27 971l161 526h269l-207 -526h-223z" />
<glyph unicode="&#x201a;" horiz-adv-x="460" d="M10 -244l162 527h268l-207 -527h-223z" />
<glyph unicode="&#x201c;" horiz-adv-x="866" d="M10 971l207 526h223l-161 -526h-269zM418 971l207 526h223l-162 -526h-268z" />
<glyph unicode="&#x201d;" horiz-adv-x="866" d="M20 971l162 526h269l-207 -526h-224zM428 971l162 526h268l-207 -526h-223z" />
<glyph unicode="&#x201e;" horiz-adv-x="866" d="M0 -244l162 527h268l-207 -527h-223zM408 -244l161 527h269l-207 -527h-223z" />
<glyph unicode="&#x2020;" d="M92 844v200h377v373h238v-373h380v-200h-380v-1082h-238v1082h-377z" />
<glyph unicode="&#x2021;" d="M92 264v201h377v379h-377v200h377v373h238v-373h380v-200h-380v-379h380v-201h-380v-502h-238v502h-377z" />
<glyph unicode="&#x2022;" horiz-adv-x="1024" d="M178 719q0 138 99 236t239 98q142 0 240 -97.5t98 -240.5q0 -141 -97.5 -239.5t-238.5 -98.5q-145 0 -242.5 98t-97.5 244z" />
<glyph unicode="&#x2026;" horiz-adv-x="1769" d="M137 137q0 67 46 112.5t114 45.5q67 0 112.5 -45.5t45.5 -112.5q0 -69 -45 -114.5t-113 -45.5q-69 0 -114.5 45.5t-45.5 114.5zM727 137q0 67 46 112.5t114 45.5q67 0 112 -45t45 -113q0 -69 -44.5 -114.5t-112.5 -45.5q-69 0 -114.5 45.5t-45.5 114.5zM1317 137 q0 67 46 112.5t114 45.5q67 0 112 -45t45 -113q0 -69 -44.5 -114.5t-112.5 -45.5q-69 0 -114.5 45.5t-45.5 114.5z" />
<glyph unicode="&#x202f;" horiz-adv-x="374" />
<glyph unicode="&#x2030;" horiz-adv-x="2226" d="M57 1032q0 195 77.5 296.5t227.5 101.5q151 0 228.5 -102t77.5 -300t-77.5 -299.5t-228.5 -101.5q-305 0 -305 405zM238 1030q0 -266 124 -266q125 0 125 264t-125 264q-124 0 -124 -262zM412 -37l561 1491h162l-562 -1491h-161zM877 393q0 195 77.5 296.5t227.5 101.5 q151 0 228 -102t77 -300t-77 -299.5t-228 -101.5q-305 0 -305 405zM1057 391q0 -266 125 -266t125 264t-125 264t-125 -262zM1559 393q0 195 77.5 296.5t227.5 101.5q151 0 228 -102t77 -300t-77 -299.5t-228 -101.5q-305 0 -305 405zM1739 391q0 -266 125 -266t125 264 t-125 264t-125 -262z" />
<glyph unicode="&#x2039;" horiz-adv-x="671" d="M63 522l365 463l158 -119l-256 -344l256 -346l-158 -119z" />
<glyph unicode="&#x203a;" horiz-adv-x="671" d="M84 176l256 344l-256 346l158 119l364 -465l-364 -463z" />
<glyph unicode="&#x203e;" horiz-adv-x="1024" d="M-70 1626v182h1166v-182h-1166z" />
<glyph unicode="&#x2044;" horiz-adv-x="163" d="M-281 -37l562 1491h161l-561 -1491h-162z" />
<glyph unicode="&#x205f;" horiz-adv-x="468" />
<glyph unicode="&#x20ac;" d="M8 502l43 133h148q-2 23 -2 57q0 41 2 72h-191l43 131h164q51 262 203.5 403.5t384.5 141.5q194 0 364 -90l-65 -197q-87 52 -149.5 72t-135.5 20q-279 0 -356 -350h555l-43 -131h-524q-3 -38 -3 -59q0 -36 5 -70h481l-43 -131h-420q37 -169 124 -250.5t232 -81.5 q137 0 295 84l54 -199q-182 -80 -371 -80q-247 0 -398.5 135t-191.5 390h-205z" />
<glyph unicode="&#x2122;" horiz-adv-x="1740" d="M2 1280v137h639v-137h-231v-639h-177v639h-231zM725 641v776h231l215 -583l211 583h230v-776h-168v369q0 110 8 235q-50 -178 -78 -252l-133 -352h-143l-129 336q-47 120 -86 268q8 -119 8 -235v-369h-166z" />
<glyph unicode="&#x2202;" d="M125 481q0 227 110.5 359.5t299.5 132.5q96 0 167 -35q-153 296 -487 391l55 189q126 -25 226.5 -74.5t201.5 -136.5q167 -142 263 -356.5t96 -444.5q0 -255 -123 -392t-352 -137q-214 0 -335.5 134t-121.5 370zM373 481q0 -148 57.5 -234.5t157.5 -86.5q98 0 158.5 88 t60.5 233q0 143 -60 226.5t-163 83.5q-98 0 -154.5 -82.5t-56.5 -227.5z" />
<glyph unicode="&#x2206;" d="M14 0v158l447 1259h262l444 -1259v-158h-1153zM276 195h629l-315 917z" />
<glyph unicode="&#x220f;" horiz-adv-x="1351" d="M129 -317v1937h1094v-1937h-250v1736h-594v-1736h-250z" />
<glyph unicode="&#x2211;" d="M121 -111l409 785l-409 741v205h1024v-201h-746l406 -745l-412 -791h766v-200h-1038v206z" />
<glyph unicode="&#x221a;" d="M88 604v180h334l151 -481l416 1505h578v-182h-412l-457 -1626h-235l-201 604h-174z" />
<glyph unicode="&#x221e;" horiz-adv-x="1626" d="M94 530q0 158 92.5 249t253.5 91q113 0 199.5 -47t173.5 -155q86 108 173.5 155t201.5 47q161 0 253.5 -91t92.5 -249q0 -160 -92.5 -251t-253.5 -91q-112 0 -201 48.5t-174 156.5q-85 -109 -172.5 -157t-200.5 -48q-161 0 -253.5 91t-92.5 251zM285 530q0 -75 45.5 -120 t120.5 -45q63 0 116 31t129 114l19 20l-17 19q-70 78 -128 111.5t-121 33.5q-73 0 -118.5 -45t-45.5 -119zM913 530l19 -20q72 -78 128.5 -111.5t117.5 -33.5q75 0 120 45t45 120q0 74 -45 119t-120 45q-63 0 -118.5 -32.5t-129.5 -112.5z" />
<glyph unicode="&#x222b;" horiz-adv-x="737" d="M8 -301l39 195q60 -25 103 -25q70 0 92 61q10 38 10 144v1159q0 152 9.5 208.5t43.5 100.5q75 100 244 100q92 0 180 -32l-35 -201q-65 25 -104 25q-65 0 -88 -60q-10 -29 -10 -123v-1157q0 -149 -9 -212t-37 -107q-74 -115 -245 -115q-102 0 -193 39z" />
<glyph unicode="&#x2248;" d="M74 264q86 146 152.5 202t152.5 56q52 0 102 -19t154 -79q76 -43 107.5 -56.5t58.5 -13.5q43 0 80.5 34t93.5 122l133 -92q-85 -150 -147 -204t-150 -54q-55 0 -107 18.5t-143 71.5t-120 65.5t-60 12.5q-42 0 -74.5 -30t-95.5 -126zM74 625q87 145 153 201.5t152 56.5 q52 0 102.5 -19.5t153.5 -79.5q73 -41 105.5 -54t60.5 -13q43 0 81.5 33.5t92.5 119.5l133 -90q-83 -148 -146 -203t-151 -55q-55 0 -107 18.5t-143 69.5q-92 52 -121 65t-59 13q-42 0 -74 -29t-98 -127z" />
<glyph unicode="&#x2260;" d="M94 246v188h346l88 174h-434v189h531l145 293l164 -95l-98 -198h251v-189h-346l-88 -174h434v-188h-530l-145 -291l-164 94l96 197h-250z" />
<glyph unicode="&#x2264;" d="M94 0v186h993v-186h-993zM94 600v166l993 324v-199l-692 -207l692 -207v-201z" />
<glyph unicode="&#x2265;" d="M94 0v186h993v-186h-993zM94 276v201l692 207l-692 207v199l993 -324v-166z" />
<glyph unicode="&#x25ca;" d="M16 709l574 761l573 -761l-573 -764zM270 709l320 -428l319 428l-319 426z" />
<glyph unicode="&#xe000;" horiz-adv-x="1044" d="M0 0v1044h1044v-1044h-1044z" />
</font>
</defs>
</svg>
