<?xml version="1.0" standalone="no"?>
<!DOCTYPE svg PUBLIC "-//W3C//DTD SVG 1.1//EN" "http://www.w3.org/Graphics/SVG/1.1/DTD/svg11.dtd" >
<svg xmlns="http://www.w3.org/2000/svg">
<metadata></metadata>
<defs>
<font id="siemens_sansitalic" horiz-adv-x="1179" >
<font-face units-per-em="2048" ascent="1638" descent="-410" />
<missing-glyph horiz-adv-x="512" />
<glyph unicode="&#xfb01;" horiz-adv-x="1185" d="M135 913l21 125h161l13 78q19 118 38.5 180.5t51.5 106.5q77 115 235 115q72 0 158 -29l-33 -125q-57 29 -110 29q-75 0 -117.5 -62t-65.5 -207l-14 -86h238l-19 -125h-237l-146 -913h-155l145 913h-164zM766 0l166 1038h155l-165 -1038h-156zM956 1409q0 47 32 78t79 31 q49 0 80 -31t31 -80t-31 -80t-80 -31q-50 0 -80.5 31t-30.5 82z" />
<glyph unicode="&#xfb02;" horiz-adv-x="1185" d="M135 913l21 125h161l13 78q19 118 38.5 180.5t51.5 106.5q77 115 235 115q72 0 158 -29l-33 -125q-57 29 -110 29q-75 0 -117.5 -62t-65.5 -207l-14 -86h238l-19 -125h-237l-146 -913h-155l145 913h-164zM766 0l238 1497h155l-237 -1497h-156z" />
<glyph horiz-adv-x="2048" />
<glyph horiz-adv-x="2048" />
<glyph unicode="&#xd;" horiz-adv-x="2048" />
<glyph unicode=" "  horiz-adv-x="512" />
<glyph unicode="&#x09;" horiz-adv-x="512" />
<glyph unicode="&#xa0;" horiz-adv-x="512" />
<glyph unicode="!" horiz-adv-x="634" d="M178 94q0 46 33 78.5t80 32.5t79.5 -33t32.5 -80t-32.5 -79.5t-79.5 -32.5q-50 0 -81.5 31.5t-31.5 82.5zM270 375l148 1042h166l-183 -1042h-131z" />
<glyph unicode="&#x22;" horiz-adv-x="663" d="M178 1004l78 493h156l-78 -493h-156zM483 1004l80 493h156l-80 -493h-156z" />
<glyph unicode="#" d="M139 424v125h207l51 321h-186v125h205l67 422h125l-67 -422h250l67 422h123l-66 -422h185v-125h-205l-51 -321h186v-125h-205l-67 -424h-125l67 424h-249l-68 -424h-125l68 424h-187zM471 549h248l51 321h-248z" />
<glyph unicode="$" d="M98 43l43 145q162 -67 314 -73l90 561q-104 55 -137.5 75.5t-61.5 45.5q-56 47 -81 102t-25 129q0 106 47.5 193t134.5 141q53 32 109 48.5t145 25.5l24 149h105l-25 -149q135 -6 299 -62l-53 -143q-129 63 -266 69l-80 -503q85 -42 124.5 -65t74.5 -52 q114 -102 114 -262q0 -106 -42 -194.5t-120 -145.5q-57 -43 -123.5 -65t-168.5 -31l-25 -156h-104l24 156q-159 6 -336 61zM403 1055q0 -71 42 -120.5t137 -92.5l73 456q-252 -41 -252 -243zM559 119q127 13 198.5 91.5t71.5 201.5q0 77 -40 125.5t-146 99.5z" />
<glyph unicode="%" horiz-adv-x="1544" d="M121 901q0 78 19 174.5t48 165.5q80 189 279 189q242 0 242 -267q0 -85 -19 -181.5t-49 -166.5q-81 -188 -279 -188q-124 0 -182.5 66.5t-58.5 207.5zM250 903q0 -178 121 -178q46 0 86 33.5t63 91.5q26 59 43 149t17 166q0 80 -31.5 123t-89.5 43q-46 0 -85.5 -33 t-64.5 -92q-24 -56 -41.5 -146t-17.5 -157zM393 -41l701 1499h120l-700 -1499h-121zM897 262q0 78 19.5 174.5t48.5 165.5q80 189 278 189q242 0 242 -267q0 -85 -19 -181.5t-49 -166.5q-81 -188 -278 -188q-125 0 -183.5 66.5t-58.5 207.5zM1026 264q0 -178 121 -178 q46 0 86 33.5t63 91.5q26 59 43 149t17 166q0 80 -31.5 123t-89.5 43q-46 0 -85.5 -33t-64.5 -92q-24 -56 -41.5 -146t-17.5 -157z" />
<glyph unicode="&#x26;" horiz-adv-x="1374" d="M113 330q0 181 127 293q80 69 256 147q-70 108 -97.5 177.5t-27.5 137.5q0 152 112 252.5t281 100.5q153 0 242.5 -73t89.5 -198q0 -170 -160 -290q-82 -61 -246 -136l262 -389q70 77 124 186t69 205h149q-45 -271 -258 -510l160 -233h-178l-92 133q-101 -81 -200.5 -117 t-223.5 -36q-183 0 -286 93t-103 257zM287 346q0 -109 63.5 -170t177.5 -61q173 0 320 129l-295 434q-141 -63 -203.5 -140.5t-62.5 -191.5zM535 1079q0 -53 22 -108.5t74 -134.5l20 8q281 131 281 309q0 69 -46 109.5t-124 40.5q-98 0 -162.5 -63.5t-64.5 -160.5z" />
<glyph unicode="'" horiz-adv-x="368" d="M182 1004l78 493h156l-78 -493h-156z" />
<glyph unicode="(" horiz-adv-x="737" d="M160 438q0 306 155.5 602t421.5 496l68 -92q-220 -191 -350.5 -471t-130.5 -563q0 -182 56 -356t152 -290l-83 -83q-135 141 -212 341.5t-77 415.5z" />
<glyph unicode=")" horiz-adv-x="737" d="M-39 -225q218 186 349.5 468.5t131.5 565.5q0 182 -56 354t-153 291l84 82q137 -143 213 -342t76 -414q0 -306 -155.5 -602t-421.5 -497z" />
<glyph unicode="*" d="M305 1214l72 144l264 -162l23 309l157 -24l-73 -301l301 71l24 -157l-301 -25l154 -248l-144 -73l-114 274l-193 -225l-113 112l224 189z" />
<glyph unicode="+" d="M74 455l20 125h436l72 458h137l-73 -458h438l-21 -125h-436l-72 -455h-137l72 455h-436z" />
<glyph unicode="," horiz-adv-x="589" d="M-10 -250l209 455h188l-244 -455h-153z" />
<glyph unicode="-" horiz-adv-x="636" d="M86 510l20 125h463l-20 -125h-463z" />
<glyph unicode="." horiz-adv-x="589" d="M111 98q0 48 33.5 81.5t82.5 33.5q51 0 84 -33t33 -84q0 -50 -33 -83t-84 -33t-83.5 33t-32.5 85z" />
<glyph unicode="/" horiz-adv-x="544" d="M-23 -41l512 1499h140l-512 -1499h-140z" />
<glyph unicode="0" d="M121 473q0 158 36.5 337.5t94.5 309.5q70 157 187 237.5t272 80.5q202 0 304.5 -121t102.5 -359q0 -162 -34 -339.5t-91 -307.5q-144 -331 -465 -331q-207 0 -307 121t-100 372zM285 446q0 -342 245 -342q103 0 187 71t131 200q46 127 76 298t30 310q0 161 -62 245.5 t-181 84.5q-102 0 -184 -66t-128 -186q-47 -120 -80.5 -300.5t-33.5 -314.5z" />
<glyph unicode="1" d="M315 1178l416 239h143l-223 -1417h-159l194 1227l-311 -183z" />
<glyph unicode="2" d="M59 0l23 133q328 267 510 442.5t262 300.5t80 232q0 94 -69.5 149.5t-186.5 55.5q-158 0 -348 -109l-19 137q107 53 195.5 75t189.5 22q189 0 295.5 -86t106.5 -238q0 -122 -73.5 -250.5t-240.5 -296.5q-191 -194 -508 -442h678l-22 -125h-873z" />
<glyph unicode="3" d="M61 47l56 129q163 -72 319 -72q164 0 272.5 98.5t108.5 246.5q0 118 -99 179.5t-288 61.5q-34 0 -90 -6l22 127q35 -4 93 -4q200 0 327 89t127 230q0 88 -66 137.5t-184 49.5q-140 0 -333 -70l-13 129q173 66 357 66q193 0 296 -81t103 -233q0 -144 -97.5 -243 t-271.5 -131q136 -13 208.5 -92t72.5 -214q0 -204 -151 -334t-386 -130q-215 0 -383 67z" />
<glyph unicode="4" d="M70 408l24 145l727 864h185l-140 -885h213l-22 -124h-211l-66 -408h-155l65 408h-620zM248 532h463l116 701z" />
<glyph unicode="5" d="M92 78l74 123q147 -97 291 -97q166 0 283.5 126.5t117.5 304.5q0 121 -74.5 185t-214.5 64q-141 0 -344 -86l135 719h748l-23 -125h-585l-78 -411q101 28 196 28q191 0 297.5 -99.5t106.5 -279.5q0 -154 -74.5 -280.5t-204 -198t-286.5 -71.5q-196 0 -365 98z" />
<glyph unicode="6" d="M135 412q0 209 78.5 426t206.5 360q214 240 541 240q54 0 135 -11l-27 -124q-46 10 -102 10q-215 0 -368.5 -143.5t-231.5 -415.5q135 141 321 141q174 0 272.5 -101.5t98.5 -281.5q0 -236 -138.5 -384t-361.5 -148q-201 0 -312.5 114t-111.5 318zM299 375 q0 -126 68 -198.5t188 -72.5q150 0 245 112.5t95 287.5q0 126 -62 196t-174 70q-151 0 -255.5 -115t-104.5 -280z" />
<glyph unicode="7" d="M160 0l813 1292h-715l21 125h888l-24 -141l-795 -1276h-188z" />
<glyph unicode="8" d="M92 340q0 152 94 248t291 147q-127 70 -182 146.5t-55 179.5q0 173 126.5 275t342.5 102q186 0 294.5 -83.5t108.5 -224.5q0 -118 -80 -210t-246 -166q143 -77 197.5 -151.5t54.5 -194.5q0 -189 -143.5 -308.5t-370.5 -119.5q-194 0 -313 99.5t-119 260.5zM256 342 q0 -111 71 -174.5t195 -63.5q149 0 250.5 85.5t101.5 211.5q0 87 -58.5 149.5t-203.5 129.5q-187 -52 -271.5 -132.5t-84.5 -205.5zM403 1077q0 -80 59.5 -141.5t201.5 -128.5q46 19 86 45q103 66 150.5 132t47.5 142q0 88 -63.5 137.5t-177.5 49.5q-138 0 -221 -64.5 t-83 -171.5z" />
<glyph unicode="9" d="M147 -10l27 125q51 -11 102 -11q215 0 368 144t230 416q-133 -142 -319 -142q-174 0 -272.5 101.5t-98.5 281.5q0 236 139.5 384.5t360.5 148.5q201 0 312.5 -114t111.5 -318q0 -209 -79 -427t-206 -360q-213 -239 -542 -239q-60 0 -134 10zM348 913q0 -126 62 -196 t174 -70q151 0 255.5 115t104.5 280q0 126 -68.5 198.5t-187.5 72.5q-149 0 -244.5 -112.5t-95.5 -287.5z" />
<glyph unicode=":" horiz-adv-x="589" d="M156 98q0 49 33 82t83 33q51 0 84 -33.5t33 -83.5t-33 -83t-84 -33t-83.5 33t-32.5 85zM279 868q0 48 33.5 81.5t82.5 33.5q51 0 84 -33t33 -84q0 -50 -33 -83t-84 -33t-83.5 33t-32.5 85z" />
<glyph unicode=";" horiz-adv-x="589" d="M-10 -250l209 455h188l-244 -455h-153zM279 868q0 48 33.5 81.5t82.5 33.5q51 0 84 -33t33 -84q0 -50 -33 -83t-84 -33t-83.5 33t-32.5 85z" />
<glyph unicode="&#x3c;" d="M70 467l16 104l1088 490l-23 -141l-911 -406l782 -408l-21 -129z" />
<glyph unicode="=" d="M51 309l21 125h1009l-20 -125h-1010zM98 602l19 125h1009l-18 -125h-1010z" />
<glyph unicode="&#x3e;" d="M6 -23l23 142l911 407l-782 406l20 129l932 -490l-16 -104z" />
<glyph unicode="?" horiz-adv-x="839" d="M203 92q0 47 32.5 80t79.5 33t80 -32t33 -79q0 -51 -31.5 -82.5t-81.5 -31.5q-47 0 -79.5 32.5t-32.5 79.5zM240 1352q173 90 331 90q152 0 240 -80t88 -217q0 -100 -49 -175t-184 -179q-133 -102 -169 -146.5t-48 -118.5l-25 -157h-135l20 135q11 64 16 93.5t19 67.5 t22.5 53t38 46.5t54 51t80.5 65.5q113 89 149.5 141.5t36.5 124.5q0 78 -45.5 124t-122.5 46q-116 0 -295 -96z" />
<glyph unicode="@" horiz-adv-x="1699" d="M166 606q0 165 68 319t181 266t267.5 179.5t321.5 67.5q270 0 436 -146.5t166 -384.5q0 -109 -34 -218t-93 -187q-65 -87 -156.5 -140t-177.5 -53q-67 0 -103 33t-38 96v11q-66 -74 -129.5 -107t-141.5 -33q-113 0 -180.5 71t-67.5 189q0 95 48 193.5t131 175.5 q154 145 360 145q128 0 262 -45l-141 -450q-25 -79 -25 -107t14 -44.5t37 -16.5q55 0 124 56t116 140q34 60 54 141t20 156q0 179 -137.5 296.5t-346.5 117.5q-140 0 -272 -59t-228.5 -156t-155 -229t-58.5 -271q0 -232 145 -377t375 -145q135 0 297 68l26 -103 q-180 -75 -348 -75q-174 0 -315 81.5t-221 225t-80 319.5zM649 561q0 -67 32 -104t91 -37q48 0 100 26t95 72q20 21 29 39t24 66l108 342q-50 20 -98 20q-92 0 -181 -62t-144.5 -161t-55.5 -201z" />
<glyph unicode="A" horiz-adv-x="1275" d="M-41 0l713 1417h205l268 -1417h-166l-90 496h-508l-248 -496h-174zM449 631h413l-63 373q-33 198 -41 266q-50 -112 -53 -119q-19 -42 -72 -147z" />
<glyph unicode="B" horiz-adv-x="1136" d="M113 0l225 1417h192q150 0 229 -10.5t142 -38.5q75 -35 116.5 -108.5t41.5 -174.5q0 -158 -83 -247.5t-255 -118.5q152 -19 220.5 -86t68.5 -197q0 -121 -52.5 -217.5t-146.5 -150.5q-74 -42 -150.5 -55t-252.5 -13h-295zM297 133h70q140 0 207 8.5t114 32.5 q69 34 108.5 106t39.5 164q0 120 -83.5 165.5t-301.5 45.5h-70zM399 782h70q125 0 196 14t117 48q48 35 75.5 96t27.5 131q0 150 -125 191q-65 22 -211 22h-70z" />
<glyph unicode="C" horiz-adv-x="1161" d="M141 588q0 345 207 596q211 254 529 254q172 0 323 -62l-43 -135q-138 62 -272 62q-265 0 -432 -248q-138 -201 -138 -473q0 -235 115 -353q50 -55 125.5 -84.5t159.5 -29.5q125 0 274 67l43 -135q-155 -67 -332 -67q-267 0 -413 159t-146 449z" />
<glyph unicode="D" horiz-adv-x="1343" d="M113 0l225 1417h289q153 0 245.5 -15t159.5 -52q114 -60 173 -179t59 -288q0 -221 -76 -416t-207 -309q-101 -88 -225.5 -123t-333.5 -35h-309zM297 135h137q163 0 273 38.5t188 121.5q91 100 143 252t52 321q0 149 -52 248.5t-149 134.5q-47 19 -107.5 25t-189.5 6h-113 z" />
<glyph unicode="E" horiz-adv-x="1083" d="M111 0l225 1417h729l-23 -135h-565l-78 -496h539l-23 -135h-538l-82 -516h596l-21 -135h-759z" />
<glyph unicode="F" horiz-adv-x="1046" d="M111 0l225 1417h733l-22 -135h-570l-78 -496h541l-20 -135h-543l-103 -651h-163z" />
<glyph unicode="G" horiz-adv-x="1378" d="M141 553q0 161 49 315.5t138 276.5q213 293 571 293q206 0 410 -86l-49 -133q-184 84 -351 84q-272 0 -436 -234q-73 -106 -115.5 -241.5t-42.5 -264.5q0 -212 108 -330t302 -118q129 0 248 41l69 440h-270l23 135h432l-109 -686q-207 -65 -411 -65q-293 0 -439 180 q-127 154 -127 393z" />
<glyph unicode="H" horiz-adv-x="1378" d="M115 0l225 1417h162l-99 -624h658l98 624h164l-225 -1417h-162l102 657h-655l-104 -657h-164z" />
<glyph unicode="I" horiz-adv-x="532" d="M102 0l226 1417h161l-223 -1417h-164z" />
<glyph unicode="J" horiz-adv-x="741" d="M-82 27l37 137q83 -49 180 -49q132 0 187 92q22 37 38.5 105t42.5 223l140 882h164l-158 -991q-25 -155 -51.5 -229t-75.5 -121q-92 -96 -272 -96q-136 0 -232 47z" />
<glyph unicode="K" horiz-adv-x="1187" d="M117 0l225 1417h162l-105 -672l678 672h191l-684 -684l481 -733h-193l-477 725l-114 -725h-164z" />
<glyph unicode="L" horiz-adv-x="970" d="M111 0l225 1417h162l-203 -1282h596l-21 -135h-759z" />
<glyph unicode="M" horiz-adv-x="1744" d="M121 0l225 1417h221l203 -993q50 -248 53 -266q9 20 25.5 53.5t46.5 93.5t53 105l516 1007h222l-226 -1417h-160l185 1165q-85 -185 -168 -346l-426 -819h-193l-176 809q-18 82 -63 356l-185 -1165h-153z" />
<glyph unicode="N" horiz-adv-x="1413" d="M115 0l225 1417h182l387 -903q47 -109 107 -274q11 90 14 106l10 78q1 9 6 36t7 42l143 915h162l-225 -1417h-185l-389 911q-53 123 -102 260q-3 -28 -8.5 -58t-8.5 -50l-8 -66l-10 -67l-148 -930h-159z" />
<glyph unicode="O" horiz-adv-x="1474" d="M145 582q0 148 48.5 298t136.5 275q200 283 528 283q298 0 432 -211q101 -167 101 -383q0 -154 -48.5 -306.5t-136.5 -275.5q-102 -144 -232 -213t-298 -69q-293 0 -426 204q-105 161 -105 398zM319 553q0 -207 95.5 -322.5t265.5 -115.5q246 0 397 235q64 100 102 240 t38 280q0 201 -97 317t-264 116q-247 0 -395 -236q-63 -97 -102.5 -239.5t-39.5 -274.5z" />
<glyph unicode="P" horiz-adv-x="1042" d="M111 0l225 1417h246q235 0 342 -65q68 -41 104.5 -116t36.5 -173q0 -122 -49.5 -222.5t-138.5 -160.5q-127 -82 -383 -82h-125l-95 -598h-163zM391 733h62q130 0 206.5 18.5t124.5 59.5q50 41 78.5 108t28.5 140q0 123 -73 173t-253 50h-88z" />
<glyph unicode="Q" horiz-adv-x="1474" d="M145 575q0 153 48.5 305t136.5 275q201 283 528 283q276 0 412 -183q57 -77 89 -185t32 -226q0 -153 -49.5 -306t-139.5 -276q-164 -225 -381 -262q113 -131 279 -250l-78 -100q-76 44 -186 139t-197 191q-110 9 -179.5 33t-127.5 73q-88 77 -137.5 205.5t-49.5 283.5z M319 555q0 -209 93 -324.5t262 -115.5q246 0 399 235q67 101 105.5 241t38.5 283q0 199 -97 314t-264 115q-247 0 -395 -236q-64 -98 -103 -238t-39 -274z" />
<glyph unicode="R" horiz-adv-x="1101" d="M113 0l225 1417h260q242 0 354.5 -80t112.5 -252q0 -193 -131 -303q-44 -36 -89.5 -55.5t-129.5 -38.5q55 -23 83 -49t48.5 -76.5t44.5 -154.5l96 -408h-172l-82 365q-25 111 -57.5 165.5t-87 76.5t-156.5 22h-55l-101 -629h-163zM397 764h72q209 0 309 70 q54 38 83.5 101.5t29.5 141.5q0 112 -72 158.5t-246 46.5h-94z" />
<glyph unicode="S" horiz-adv-x="1064" d="M63 47l43 146q178 -78 328 -78q140 0 231 85.5t91 215.5q0 82 -46.5 133t-193.5 127q-109 57 -158 89.5t-84 70.5q-71 77 -71 194q0 181 132 294.5t343 113.5q163 0 338 -68l-53 -141q-145 74 -283 74q-131 0 -217 -72t-86 -182q0 -76 48 -127.5t179 -114.5 q109 -52 160 -85.5t88 -74.5q78 -87 78 -217q0 -198 -142.5 -324t-365.5 -126q-177 0 -359 67z" />
<glyph unicode="T" horiz-adv-x="1054" d="M162 1282l20 135h973l-20 -135h-408l-203 -1282h-164l203 1282h-401z" />
<glyph unicode="U" horiz-adv-x="1361" d="M172 332q0 98 33 317l123 768h164l-138 -860q-18 -120 -18 -190q0 -128 69 -190t211 -62q217 0 320 145q33 49 54 125t48 240l125 792h156l-129 -813q-34 -217 -63.5 -305.5t-90.5 -157.5q-142 -161 -422 -161q-207 0 -324.5 94t-117.5 258z" />
<glyph unicode="V" horiz-adv-x="1216" d="M166 1417h172l166 -971q30 -173 43 -294q50 108 59 129q37 82 90 186l467 950h172l-704 -1417h-211z" />
<glyph unicode="W" horiz-adv-x="1759" d="M233 1417h168l48 -956q6 -191 6 -293q39 123 104 293l359 956h204l64 -950q10 -159 10 -289q26 83 100 283l353 956h161l-534 -1417h-211l-61 946q-11 187 -11 295q-37 -111 -106 -295l-361 -946h-209z" />
<glyph unicode="X" horiz-adv-x="1259" d="M-23 0l596 737l-323 680h182l264 -555l457 555h193l-578 -702l340 -715h-182l-277 582l-475 -582h-197z" />
<glyph unicode="Y" horiz-adv-x="1146" d="M154 1417h182l203 -450l34 -74q5 -13 17 -40t26 -60q0 1 121 163l355 461h186l-604 -778l-101 -639h-163l100 639z" />
<glyph unicode="Z" horiz-adv-x="1124" d="M0 0l20 135l914 1147h-707l21 135h903l-23 -135l-909 -1147h729l-22 -135h-926z" />
<glyph unicode="[" horiz-adv-x="737" d="M100 -317l295 1859h334l-20 -125h-179l-254 -1610h179l-21 -124h-334z" />
<glyph unicode="\" horiz-adv-x="544" d="M92 1458h135l287 -1499h-135z" />
<glyph unicode="]" horiz-adv-x="737" d="M39 -317l20 124h179l254 1610h-179l21 125h334l-295 -1859h-334z" />
<glyph unicode="^" d="M82 520l600 897h100l316 -897h-129l-258 746l-494 -746h-135z" />
<glyph unicode="_" horiz-adv-x="1024" d="M-170 -440l20 125h1061l-20 -125h-1061z" />
<glyph unicode="`" horiz-adv-x="1024" d="M420 1497h190l195 -299h-143z" />
<glyph unicode="a" horiz-adv-x="1148" d="M102 403q0 127 37 249t103 216q135 191 342 191q196 0 288 -164l27 143h152q0 -3 -3.5 -22t-12.5 -64.5t-17 -91.5q-6 -38 -19.5 -118.5t-19.5 -120.5l-47 -289q-25 -160 -43 -332h-148l19 145q-76 -90 -148 -127.5t-166 -37.5q-160 0 -252 112.5t-92 310.5zM266 395 q0 -133 57 -212t154 -79q157 0 295 197l70 438q-62 195 -238 195q-158 0 -260 -193q-78 -150 -78 -346z" />
<glyph unicode="b" horiz-adv-x="1148" d="M98 0q49 258 62 332l184 1165h156l-94 -590q131 152 301 152q154 0 248 -115t94 -303q0 -184 -65 -335.5t-178.5 -238.5t-250.5 -87q-97 0 -163.5 43.5t-115.5 140.5l-30 -164h-148zM309 301q66 -197 230 -197q173 0 274 209q33 70 52.5 159.5t19.5 170.5 q0 138 -54.5 214.5t-154.5 76.5q-171 0 -297 -195z" />
<glyph unicode="c" horiz-adv-x="919" d="M98 416q0 256 140 444q147 199 387 199q143 0 276 -68l-53 -121q-63 35 -111.5 49.5t-105.5 14.5q-183 0 -291 -195q-78 -138 -78 -317q0 -154 64.5 -236t185.5 -82q110 0 242 80l53 -118q-146 -86 -309 -86q-193 0 -296.5 112.5t-103.5 323.5z" />
<glyph unicode="d" horiz-adv-x="1148" d="M98 403q0 127 37 249t105 216q138 191 344 191q193 0 288 -156l95 594h155l-184 -1165q-25 -144 -45 -332h-148l19 145q-78 -91 -149.5 -128t-168.5 -37q-163 0 -255.5 112.5t-92.5 310.5zM262 393q0 -132 58.5 -210.5t156.5 -78.5q161 0 299 197l70 438 q-31 95 -92.5 145t-149.5 50q-160 0 -262 -193q-37 -69 -58.5 -162.5t-21.5 -185.5z" />
<glyph unicode="e" horiz-adv-x="1077" d="M102 408q0 132 41.5 258.5t114.5 218.5q133 174 365 174q362 0 362 -383q0 -76 -18 -187h-695q-4 -70 -4 -83q0 -146 68 -224t196 -78q142 0 293 101l41 -127q-163 -98 -340 -98q-200 0 -312 113t-112 315zM295 614h526q6 55 6 80q0 116 -55 178t-158 62 q-120 0 -205.5 -85.5t-113.5 -234.5z" />
<glyph unicode="f" horiz-adv-x="684" d="M115 913l20 125h162l12 78q19 118 38.5 180.5t51.5 106.5q77 115 236 115q72 0 158 -29l-33 -125q-57 29 -111 29q-75 0 -117 -62t-65 -207l-14 -86h237l-18 -125h-238l-145 -913h-156l146 913h-164z" />
<glyph unicode="g" horiz-adv-x="1153" d="M18 -340l78 115q140 -111 295 -111q183 0 275 156q47 84 77 276l13 78q-65 -83 -133 -119.5t-162 -36.5q-166 0 -260.5 111.5t-94.5 306.5q0 242 130 426q137 197 339 197q98 0 178 -47.5t121 -130.5l29 157h154q-48 -249 -74 -409l-86 -549q-26 -168 -52 -246t-77 -141 q-126 -154 -365 -154q-201 0 -385 121zM270 430q0 -136 60.5 -211.5t169.5 -75.5q76 0 141 44.5t141 146.5l62 399q-68 201 -244 201q-76 0 -135.5 -42.5t-110.5 -133.5q-84 -152 -84 -328z" />
<glyph unicode="h" horiz-adv-x="1189" d="M106 0l238 1497h156l-97 -604q94 86 180.5 126t180.5 40q128 0 203 -71.5t75 -192.5q0 -77 -18 -191l-96 -604h-156l98 625q15 82 15 143q0 80 -43.5 123t-122.5 43q-83 0 -175.5 -53t-164.5 -142l-117 -739h-156z" />
<glyph unicode="i" horiz-adv-x="536" d="M109 0l163 1038h156l-164 -1038h-155zM299 1409q0 46 32 77.5t79 31.5q49 0 79.5 -30.5t30.5 -80.5q0 -48 -30.5 -79.5t-79.5 -31.5q-50 0 -80.5 31t-30.5 82z" />
<glyph unicode="j" horiz-adv-x="536" d="M-207 -436l29 121q53 -21 92 -21q71 0 112 49.5t56 153.5l186 1171h156l-170 -1077q-22 -132 -39.5 -197.5t-42.5 -103.5q-78 -121 -244 -121q-67 0 -135 25zM293 1409q0 46 31.5 77.5t78.5 31.5q49 0 80 -31t31 -80t-31 -80t-80 -31q-50 0 -80 31t-30 82z" />
<glyph unicode="k" horiz-adv-x="999" d="M113 0l237 1497h156l-141 -895l473 436h198l-522 -475l369 -563h-187l-344 530l-84 -530h-155z" />
<glyph unicode="l" horiz-adv-x="536" d="M109 0l237 1497h156l-238 -1497h-155z" />
<glyph unicode="m" horiz-adv-x="1781" d="M115 0l108 690q9 54 15 107q7 55 14 88q12 86 18 153h154l-18 -149q95 91 175.5 130.5t168.5 39.5q101 0 165 -49.5t84 -143.5q100 103 186 148t181 45q118 0 189 -70t71 -186q0 -75 -18 -180l-99 -623h-155l100 631q16 104 16 147q0 72 -42 114t-117 42 q-136 0 -301 -182l-119 -752h-156l101 637q12 76 12 139q0 158 -148 158q-144 0 -311 -182l-119 -752h-155z" />
<glyph unicode="n" horiz-adv-x="1189" d="M106 0l111 702q39 252 45 336h154l-19 -151q98 91 185 131.5t182 40.5q128 0 203 -71.5t75 -192.5q0 -54 -18 -191l-96 -604h-156l98 625q15 92 15 141q0 79 -42.5 123.5t-119.5 44.5q-85 0 -177 -52t-167 -143l-117 -739h-156z" />
<glyph unicode="o" horiz-adv-x="1157" d="M102 424q0 113 36 225t100 199q75 103 178.5 157t226.5 54q186 0 299 -119t113 -317q0 -180 -70.5 -327.5t-194.5 -231.5t-274 -84q-190 0 -302 120t-112 324zM266 416q0 -147 67 -229.5t187 -82.5q155 0 263 152.5t108 370.5q0 143 -67.5 225t-184.5 82 q-89 0 -164.5 -50.5t-128.5 -144.5q-37 -68 -58.5 -154.5t-21.5 -168.5z" />
<glyph unicode="p" horiz-adv-x="1148" d="M35 -440l168 1058q36 244 39 269q6 49 18 151h148l-19 -149q73 89 148.5 129.5t167.5 40.5q154 0 248 -115t94 -303q0 -184 -65 -335.5t-178.5 -238.5t-250.5 -87q-92 0 -157.5 40t-112.5 125l-93 -585h-155zM307 301q31 -95 90.5 -146t139.5 -51q173 0 274 209 q33 71 52.5 160t19.5 170q0 138 -54.5 214.5t-152.5 76.5q-173 0 -299 -195z" />
<glyph unicode="q" horiz-adv-x="1148" d="M102 403q0 127 37 249t103 216q135 191 342 191q195 0 293 -170l28 149h148q-38 -181 -64 -356l-178 -1122h-156l90 569q-125 -149 -299 -149q-159 0 -251.5 113.5t-92.5 309.5zM266 395q0 -133 57 -212t154 -79q157 0 295 197l70 438q-63 195 -238 195q-158 0 -260 -193 q-78 -150 -78 -346z" />
<glyph unicode="r" horiz-adv-x="718" d="M102 0l95 592q28 184 63 446h152l-19 -153q116 174 275 174q44 0 88 -12l-23 -138q-40 11 -74 11q-170 0 -290 -215l-111 -705h-156z" />
<glyph unicode="s" horiz-adv-x="862" d="M35 51l65 125q128 -72 234 -72q95 0 161 57t66 140q0 61 -33.5 94t-146.5 80q-124 54 -177.5 117.5t-53.5 157.5q0 140 101 224.5t269 84.5q150 0 289 -78l-66 -123q-103 76 -223 76q-95 0 -153 -48.5t-58 -127.5q0 -54 31 -85t131 -75q138 -60 194 -124t56 -161 q0 -146 -109.5 -239.5t-279.5 -93.5q-158 0 -297 71z" />
<glyph unicode="t" horiz-adv-x="684" d="M115 913l20 125h162l35 224l162 32l-41 -256h237l-18 -125h-238l-90 -567q-14 -86 -14 -127q0 -115 102 -115q65 0 143 37l-4 -127q-78 -34 -172 -34q-227 0 -227 208q0 58 14 150l93 575h-164z" />
<glyph unicode="u" horiz-adv-x="1177" d="M145 250q0 52 15 139l102 649h156l-99 -626q-18 -111 -18 -162q0 -69 42.5 -107.5t117.5 -38.5q78 0 169 50.5t167 136.5l118 747h156l-110 -700q-41 -273 -46 -338h-143l19 152q-109 -95 -192 -133.5t-181 -38.5q-127 0 -200 72t-73 198z" />
<glyph unicode="v" horiz-adv-x="1007" d="M127 1038h156l118 -616q18 -88 33 -174q8 -36 19 -98q91 190 118 243l322 645h151l-522 -1038h-198z" />
<glyph unicode="w" horiz-adv-x="1617" d="M164 1038h149l62 -622l24 -271l103 246l280 647h201l82 -635q11 -91 21 -166t12 -92q37 97 104 254l271 639h145l-447 -1038h-196l-88 659q-1 12 -8 57.5t-9 67.5q-6 39 -14 113q-7 -17 -23 -54.5t-22 -51.5q-10 -28 -53 -125l-289 -666h-195z" />
<glyph unicode="x" horiz-adv-x="1005" d="M-41 0l461 537l-260 501h170l198 -391l336 391h180l-448 -516l270 -522h-170l-209 406l-346 -406h-182z" />
<glyph unicode="y" horiz-adv-x="1001" d="M-117 -432l45 125q62 -29 107 -29q86 0 153.5 72t155.5 258l-229 1044h161l130 -612q35 -167 47 -238l102 207l338 643h151l-587 -1126q-115 -221 -198.5 -297t-211.5 -76q-84 0 -164 29z" />
<glyph unicode="z" horiz-adv-x="909" d="M-4 0l18 117l680 796h-528l20 125h723l-20 -125l-676 -788h551l-21 -125h-747z" />
<glyph unicode="{" horiz-adv-x="737" d="M111 553l18 119q102 6 149 59.5t62 181.5l49 306q16 100 36.5 160t57 98t87 51.5t130.5 13.5h93l-19 -119h-65q-50 0 -78 -11.5t-45 -39.5q-15 -25 -22 -50.5t-19 -102.5l-60 -369q-17 -119 -60.5 -170t-143.5 -68q73 -15 105 -53.5t32 -112.5q0 -31 -15 -112l-51 -326 q-10 -62 -10 -119q0 -47 24 -67.5t78 -20.5h72l-18 -118h-52q-71 0 -105 5.5t-69 20.5q-86 45 -86 162q0 46 17 176l43 264q12 89 12 111q0 65 -34.5 96t-112.5 35z" />
<glyph unicode="|" horiz-adv-x="589" d="M209 -440v1857h164v-1857h-164z" />
<glyph unicode="}" horiz-adv-x="737" d="M-27 -317l19 118h65q85 0 114.5 37t49.5 168l60 369q15 117 59.5 168.5t144.5 68.5q-73 15 -105 53.5t-32 110.5q0 39 12 115l54 326q10 93 10 120q0 46 -24 66t-78 20h-72l18 119h51q71 0 106.5 -5.5t68.5 -20.5q86 -45 86 -162q0 -46 -17 -176l-43 -265 q-12 -82 -12 -112q0 -63 35 -93.5t112 -35.5l-18 -119q-102 -6 -148 -58.5t-63 -183.5l-49 -305q-16 -100 -36.5 -160t-57 -98t-87 -51.5t-130.5 -13.5h-93z" />
<glyph unicode="~" d="M76 463q93 116 161 161.5t146 45.5q47 0 98.5 -20.5t130.5 -71.5q74 -47 106 -61.5t66 -14.5q82 0 170 82l70 69l78 -80q-88 -108 -160.5 -157t-144.5 -49q-53 0 -102.5 19.5t-125.5 70.5q-72 47 -108.5 62.5t-77.5 15.5q-52 0 -95.5 -28.5t-131.5 -119.5z" />
<glyph unicode="&#xa1;" horiz-adv-x="634" d="M147 -287l168 951h134l-134 -951h-168zM313 946q0 47 33 80t80 33q48 0 80.5 -33t32.5 -82q0 -46 -33 -78t-80 -32q-48 0 -80.5 31.5t-32.5 80.5z" />
<glyph unicode="&#xa2;" d="M266 780q0 162 58 306.5t157 228.5q123 108 299 117l25 153h104l-24 -160q128 -15 237 -73l-59 -115q-101 55 -199 66l-131 -828q108 8 230 74l53 -115q-144 -75 -301 -78l-25 -149h-102l22 149q-164 19 -254 130t-90 294zM430 778q0 -124 51.5 -199.5t149.5 -95.5 l129 824q-123 -22 -199 -109q-60 -67 -95.5 -182t-35.5 -238z" />
<glyph unicode="&#xa3;" d="M37 0l20 125h146q38 40 62.5 124t53.5 277l23 146h-178l18 121h180l25 161q25 154 54.5 231t86.5 132q121 121 344 121q162 0 324 -72l-55 -123q-84 40 -139.5 55t-122.5 15q-173 0 -256 -127q-45 -71 -78 -271l-19 -122h338l-18 -121h-340l-29 -187 q-32 -198 -47.5 -257.5t-46.5 -102.5h600l-20 -125h-926z" />
<glyph unicode="&#xa4;" d="M100 1157l82 80l121 -121q131 107 320 107q186 0 317 -107l121 121l80 -80l-121 -123q53 -72 76.5 -147t23.5 -170q0 -180 -98 -318l121 -123l-82 -81l-121 120q-130 -106 -317 -106q-190 0 -320 106l-121 -120l-80 81l121 123q-100 134 -100 316q0 185 98 319zM244 721 q0 -182 108 -293q103 -109 271 -109q169 0 272.5 109.5t103.5 286.5q0 178 -103.5 287.5t-272.5 109.5t-274 -109t-105 -282z" />
<glyph unicode="&#xa5;" d="M170 1417h174l285 -633l489 633h176l-522 -674h244l-19 -108h-303l-10 -14l-18 -119h311l-16 -109h-314l-61 -393h-156l64 393h-312l17 109h311l18 116l-4 17h-303l17 108h241z" />
<glyph unicode="&#xa6;" horiz-adv-x="589" d="M131 0l88 557h164l-88 -557h-164zM268 860l88 557h162l-88 -557h-162z" />
<glyph unicode="&#xa7;" d="M104 -240l58 125q69 -41 129.5 -58t138.5 -17q133 0 212 62.5t79 166.5q0 72 -44.5 116t-187.5 115q-145 71 -196 127.5t-51 141.5q0 89 54 164.5t171 148.5q-119 85 -119 229q0 163 114.5 260t305.5 97q161 0 313 -70l-61 -125q-124 68 -252 68q-110 0 -182 -62 t-72 -157q0 -68 45 -107q28 -26 54.5 -41t140.5 -70q133 -63 182 -119t49 -145q0 -176 -205 -321q107 -74 107 -219q0 -170 -127 -279.5t-324 -109.5q-191 0 -332 79zM408 578q0 -67 56.5 -113.5t231.5 -120.5q123 120 123 227q0 67 -63 121q-29 23 -146 78q-54 26 -61 29 q-141 -102 -141 -221z" />
<glyph unicode="&#xa8;" horiz-adv-x="1024" d="M348 1352q0 44 30.5 73t76.5 29q47 0 76.5 -29.5t29.5 -76.5t-29.5 -77t-76.5 -30t-77 31t-30 80zM725 1352q0 44 30 73t76 29q47 0 77 -29.5t30 -76.5t-30 -77t-77 -30t-76.5 31t-29.5 80z" />
<glyph unicode="&#xa9;" horiz-adv-x="1638" d="M139 719q0 144 53.5 280.5t147.5 231.5q204 207 510 207q152 0 283.5 -55t225 -151t147 -231.5t53.5 -291.5t-53.5 -291.5t-147 -231.5t-225 -151t-283.5 -55q-154 0 -286.5 55t-225.5 151.5t-146 234t-53 298.5zM219 717q0 -195 80.5 -349.5t224.5 -240.5t326 -86 q134 0 251 50.5t200 138.5t130.5 212.5t47.5 266.5q0 190 -81 342.5t-225.5 238.5t-324.5 86q-132 0 -249 -50.5t-200 -137.5t-131.5 -209.5t-48.5 -261.5zM518 702q0 177 99.5 281t267.5 104q62 0 113 -13t116 -46l-41 -90q-107 55 -188 55q-107 0 -173.5 -78.5 t-66.5 -207.5q0 -127 68.5 -205t181.5 -78q49 0 88 11.5t102 43.5l35 -92q-64 -31 -116 -44t-117 -13q-167 0 -268 101.5t-101 270.5z" />
<glyph unicode="&#xaa;" horiz-adv-x="737" d="M160 1071q0 151 82.5 253.5t203.5 102.5q53 0 90 -19.5t70 -64.5l12 74h115q-31 -155 -43 -233l-24 -154q-18 -112 -25 -188h-111l11 71q-41 -44 -80 -63t-90 -19q-97 0 -154 65t-57 175zM279 1071q0 -69 30.5 -109t83.5 -40q84 0 156 94l37 227q-35 94 -129 94 q-75 0 -126.5 -77t-51.5 -189z" />
<glyph unicode="&#xab;" horiz-adv-x="983" d="M66 512l378 426l101 -78l-297 -362l172 -342l-111 -72zM467 512l379 426l100 -78l-295 -362l170 -342l-110 -72z" />
<glyph unicode="&#xac;" d="M102 653v125h969v-577h-139v452h-830z" />
<glyph unicode="&#xad;" horiz-adv-x="636" d="M86 510l20 125h463l-20 -125h-463z" />
<glyph unicode="&#xae;" horiz-adv-x="1228" d="M156 1020q0 226 147.5 375t370.5 149q224 0 370 -150t146 -380q0 -150 -66.5 -272t-185 -190.5t-264.5 -68.5q-227 0 -372.5 151t-145.5 386zM236 1020q0 -209 123 -342t315 -133q189 0 312.5 133t123.5 336t-123.5 336t-312.5 133t-313.5 -132.5t-124.5 -330.5zM504 735 v557h168q109 0 160 -36t51 -113q0 -97 -107 -131q20 -12 32 -29t30 -55l86 -193h-115l-66 148q-28 62 -50.5 81t-69.5 19h-11v-248h-108zM612 1051h17q143 0 143 86q0 88 -131 88h-29v-174z" />
<glyph unicode="&#xaf;" horiz-adv-x="1024" d="M342 1282l18 119h582l-18 -119h-582z" />
<glyph unicode="&#xb0;" horiz-adv-x="679" d="M143 1149q0 126 83 207.5t212 81.5q130 0 212.5 -82t82.5 -211q0 -131 -82.5 -213t-212.5 -82q-132 0 -213.5 82t-81.5 217zM229 1147q0 -98 57 -156.5t152 -58.5t152 58t57 153q0 97 -57 155t-152 58q-94 0 -151.5 -57.5t-57.5 -151.5z" />
<glyph unicode="&#xb1;" d="M2 0l21 125h1009l-20 -125h-1010zM100 614l19 125h438l47 299h135l-47 -299h436l-18 -125h-438l-45 -295h-138l48 295h-437z" />
<glyph unicode="&#xb2;" horiz-adv-x="737" d="M121 639l14 94q255 198 359 312t104 196q0 43 -33 68.5t-88 25.5q-45 0 -87 -14t-111 -53l-25 98q66 35 118 49.5t115 14.5q110 0 176 -47.5t66 -127.5q0 -83 -56.5 -166.5t-193.5 -203.5q-93 -84 -186 -152h362l-14 -94h-520z" />
<glyph unicode="&#xb3;" horiz-adv-x="737" d="M121 666l41 98q91 -43 184 -43q78 0 134.5 47t56.5 113q0 58 -51.5 90.5t-143.5 32.5q-11 0 -32.5 -2t-33.5 -3l17 99q31 -4 67 -4q97 0 162.5 43.5t65.5 107.5q0 41 -32 65.5t-87 24.5q-85 0 -197 -45l-10 99q105 41 221 41q109 0 172.5 -46t63.5 -124q0 -150 -180 -207 q129 -41 129 -168q0 -110 -89.5 -184t-222.5 -74q-111 0 -235 39z" />
<glyph unicode="&#xb4;" horiz-adv-x="1024" d="M446 1198l289 299h211l-338 -299h-162z" />
<glyph unicode="&#xb5;" d="M29 -440l233 1478h156l-90 -579q-19 -119 -19 -160q0 -92 49 -143.5t136 -51.5q75 0 147.5 43.5t161.5 143.5l117 747h155l-114 -723q-25 -168 -41 -315h-144l17 158q-161 -178 -332 -178q-69 0 -111.5 20t-83.5 72l-82 -512h-155z" />
<glyph unicode="&#xb6;" horiz-adv-x="1351" d="M186 969q0 100 43.5 192.5t120.5 155.5q71 59 147 79.5t222 20.5h493l-262 -1659h-155l241 1524h-241l-242 -1524h-156l138 867q-161 0 -255 92t-94 252z" />
<glyph unicode="&#xb7;" horiz-adv-x="589" d="M186 573q0 48 34 81.5t83 33.5q51 0 84 -33t33 -84q0 -50 -33 -83t-84 -33t-84 33t-33 85z" />
<glyph unicode="&#xb8;" horiz-adv-x="1024" d="M168 -371l283 301h184l-316 -301h-151z" />
<glyph unicode="&#xb9;" horiz-adv-x="737" d="M264 1286l236 131h108l-123 -778h-123l103 647l-168 -90z" />
<glyph unicode="&#xba;" horiz-adv-x="737" d="M195 1079q0 152 86.5 251.5t218.5 99.5q107 0 171 -65t64 -173q0 -160 -83.5 -260.5t-215.5 -100.5q-114 0 -177.5 66t-63.5 182zM317 1085q0 -75 31.5 -117t87.5 -42q72 0 124 75t52 177q0 72 -32.5 114.5t-87.5 42.5q-69 0 -122 -75.5t-53 -174.5z" />
<glyph unicode="&#xbb;" horiz-adv-x="983" d="M37 162l295 360l-172 344l112 72l244 -428l-379 -426zM440 162l295 360l-172 344l111 72l244 -428l-379 -426z" />
<glyph unicode="&#xbc;" horiz-adv-x="1638" d="M229 1286l236 131h108l-122 -778h-123l102 647l-168 -90zM356 -41l781 1499h123l-781 -1499h-123zM879 199l14 94l381 485h168l-78 -485h119l-15 -94h-118l-31 -199h-125l31 199h-346zM1022 293h219l57 362z" />
<glyph unicode="&#xbd;" horiz-adv-x="1638" d="M264 1286l236 131h108l-123 -778h-123l103 647l-168 -90zM324 -41l778 1499h123l-781 -1499h-120zM846 0l14 94q255 199 359 313t104 195q0 43 -33 68.5t-88 25.5q-45 0 -87 -14t-111 -53l-25 98q120 64 233 64q110 0 176 -47.5t66 -127.5q0 -83 -56 -165.5t-194 -204.5 q-89 -80 -186 -152h362l-14 -94h-520z" />
<glyph unicode="&#xbe;" horiz-adv-x="1638" d="M121 666l41 98q91 -43 184 -43q78 0 134.5 47t56.5 113q0 58 -51.5 90.5t-143.5 32.5q-11 0 -32.5 -2t-33.5 -3l17 99q31 -4 67 -4q97 0 162.5 43.5t65.5 107.5q0 41 -32 65.5t-87 24.5q-85 0 -197 -45l-10 99q105 41 221 41q109 0 172.5 -46t63.5 -124q0 -150 -180 -207 q129 -41 129 -168q0 -110 -89.5 -184t-222.5 -74q-111 0 -235 39zM418 -41l780 1499h121l-778 -1499h-123zM891 199l16 94l379 485h168l-78 -485h121l-16 -94h-119l-31 -199h-125l33 199h-348zM1034 293h219l58 362z" />
<glyph unicode="&#xbf;" horiz-adv-x="839" d="M-39 -47q0 92 48.5 166.5t176.5 177.5q127 100 164 146.5t49 119.5l17 107h139l-12 -80q-27 -161 -58 -213q-25 -40 -52.5 -67t-147.5 -126q-85 -71 -117.5 -120t-32.5 -107q0 -66 44 -104.5t118 -38.5q64 0 129.5 21.5t165.5 76.5l22 -137q-167 -86 -329 -86 q-149 0 -236.5 71t-87.5 193zM414 946q0 48 31.5 80.5t80.5 32.5q50 0 81.5 -32t31.5 -83q0 -46 -33 -78t-80 -32q-48 0 -80 31.5t-32 80.5z" />
<glyph unicode="&#xc0;" horiz-adv-x="1275" d="M-41 0l713 1417h205l268 -1417h-166l-90 496h-508l-248 -496h-174zM449 631h413l-63 373q-33 198 -41 266q-50 -112 -53 -119q-19 -42 -72 -147zM543 1845h190l195 -299h-144z" />
<glyph unicode="&#xc1;" horiz-adv-x="1275" d="M-41 0l713 1417h205l268 -1417h-166l-90 496h-508l-248 -496h-174zM449 631h413l-63 373q-33 198 -41 266q-50 -112 -53 -119q-19 -42 -72 -147zM664 1546l288 299h211l-338 -299h-161z" />
<glyph unicode="&#xc2;" horiz-adv-x="1275" d="M-41 0l713 1417h205l268 -1417h-166l-90 496h-508l-248 -496h-174zM449 631h413l-63 373q-33 198 -41 266q-50 -112 -53 -119q-19 -42 -72 -147zM479 1546l246 299h186l152 -299h-143l-111 199l-174 -199h-156z" />
<glyph unicode="&#xc3;" horiz-adv-x="1275" d="M-41 0l713 1417h205l268 -1417h-166l-90 496h-508l-248 -496h-174zM449 631h413l-63 373q-33 198 -41 266q-50 -112 -53 -119q-19 -42 -72 -147zM455 1585q25 100 78 154.5t126 54.5q72 0 181 -43q78 -31 112 -31q38 0 66 23t39 63h104q-25 -104 -77.5 -157.5 t-127.5 -53.5q-65 0 -172 41q-86 33 -125 33q-58 0 -96 -84h-108z" />
<glyph unicode="&#xc4;" horiz-adv-x="1275" d="M-41 0l713 1417h205l268 -1417h-166l-90 496h-508l-248 -496h-174zM449 631h413l-63 373q-33 198 -41 266q-50 -112 -53 -119q-19 -42 -72 -147zM522 1700q0 44 30.5 73t76.5 29q47 0 76.5 -29.5t29.5 -76.5t-29.5 -77t-76.5 -30t-77 31t-30 80zM899 1700q0 44 30.5 73 t76.5 29q47 0 76.5 -29.5t29.5 -76.5t-29.5 -77t-76.5 -30t-77 31t-30 80z" />
<glyph unicode="&#xc5;" horiz-adv-x="1275" d="M-41 0l723 1436q-78 63 -78 161q0 86 59.5 145.5t145.5 59.5t145.5 -59.5t59.5 -145.5q0 -66 -35.5 -117.5t-97.5 -74.5l264 -1405h-166l-90 496h-508l-248 -496h-174zM449 631h413l-63 373q-33 198 -41 266q-8 -20 -39 -88q-4 -11 -9 -21t-12 -23t-12 -24 q-4 -10 -53 -110zM690 1599q0 -55 33 -89.5t86 -34.5q51 0 84 34t33 88t-33 88.5t-84 34.5t-85 -34.5t-34 -86.5z" />
<glyph unicode="&#xc6;" horiz-adv-x="1849" d="M-135 0l1112 1417h844l-21 -135h-567l-78 -496h539l-23 -135h-538l-80 -516h596l-23 -135h-760l64 401h-553l-309 -401h-203zM481 537h471l117 745h-10z" />
<glyph unicode="&#xc7;" horiz-adv-x="1161" d="M141 588q0 345 207 596q211 254 529 254q172 0 323 -62l-43 -135q-138 62 -272 62q-265 0 -432 -248q-138 -201 -138 -473q0 -235 115 -353q50 -55 125.5 -84.5t159.5 -29.5q125 0 274 67l43 -135q-155 -67 -332 -67q-267 0 -413 159t-146 449zM297 -371l283 301h184 l-315 -301h-152z" />
<glyph unicode="&#xc8;" horiz-adv-x="1083" d="M111 0l225 1417h729l-23 -135h-565l-78 -496h539l-23 -135h-538l-82 -516h596l-21 -135h-759zM508 1845h190l195 -299h-143z" />
<glyph unicode="&#xc9;" horiz-adv-x="1083" d="M111 0l225 1417h729l-23 -135h-565l-78 -496h539l-23 -135h-538l-82 -516h596l-21 -135h-759zM588 1546l289 299h210l-337 -299h-162z" />
<glyph unicode="&#xca;" horiz-adv-x="1083" d="M111 0l225 1417h729l-23 -135h-565l-78 -496h539l-23 -135h-538l-82 -516h596l-21 -135h-759zM416 1546l246 299h186l151 -299h-143l-111 199l-174 -199h-155z" />
<glyph unicode="&#xcb;" horiz-adv-x="1083" d="M111 0l225 1417h729l-23 -135h-565l-78 -496h539l-23 -135h-538l-82 -516h596l-21 -135h-759zM455 1700q0 44 30 73t76 29q47 0 77 -29.5t30 -76.5t-30 -77t-77 -30t-76.5 31t-29.5 80zM831 1700q0 44 30.5 73t76.5 29q47 0 76.5 -29.5t29.5 -76.5t-29.5 -77t-76.5 -30 t-77 31t-30 80z" />
<glyph unicode="&#xcc;" horiz-adv-x="532" d="M102 0l226 1417h161l-223 -1417h-164zM193 1845h190l195 -299h-144z" />
<glyph unicode="&#xcd;" horiz-adv-x="532" d="M102 0l226 1417h161l-223 -1417h-164zM319 1546l289 299h211l-338 -299h-162z" />
<glyph unicode="&#xce;" horiz-adv-x="532" d="M102 0l226 1417h161l-223 -1417h-164zM129 1546l246 299h186l152 -299h-144l-110 199l-174 -199h-156z" />
<glyph unicode="&#xcf;" horiz-adv-x="532" d="M102 0l226 1417h161l-223 -1417h-164zM164 1700q0 44 30 73t76 29q47 0 77 -29.5t30 -76.5t-30 -77t-77 -30t-76.5 31t-29.5 80zM541 1700q0 44 30 73t76 29q47 0 77 -29.5t30 -76.5t-30 -77t-77 -30t-76.5 31t-29.5 80z" />
<glyph unicode="&#xd0;" horiz-adv-x="1343" d="M49 666l17 108h170l102 643h289q153 0 245.5 -15t159.5 -52q114 -60 173 -179t59 -288q0 -221 -76 -416t-207 -309q-101 -88 -225.5 -123t-333.5 -35h-309l106 666h-170zM297 135h137q163 0 273 38.5t188 121.5q91 100 143 252t52 321q0 149 -52 248.5t-149 134.5 q-47 19 -107.5 25t-189.5 6h-113l-80 -508h293l-18 -108h-293z" />
<glyph unicode="&#xd1;" horiz-adv-x="1413" d="M115 0l225 1417h182l387 -903q47 -109 107 -274q11 90 14 106l10 78q1 9 6 36t7 42l143 915h162l-225 -1417h-185l-389 911q-53 123 -102 260q-3 -28 -8.5 -58t-8.5 -50l-8 -66l-10 -67l-148 -930h-159zM545 1585q25 100 78.5 154.5t126.5 54.5q71 0 180 -43 q78 -31 112 -31q38 0 66 23t39 63h104q-25 -104 -77 -157.5t-127 -53.5q-66 0 -173 41q-86 33 -124 33q-59 0 -97 -84h-108z" />
<glyph unicode="&#xd2;" horiz-adv-x="1474" d="M145 582q0 148 48.5 298t136.5 275q200 283 528 283q298 0 432 -211q101 -167 101 -383q0 -154 -48.5 -306.5t-136.5 -275.5q-102 -144 -232 -213t-298 -69q-293 0 -426 204q-105 161 -105 398zM319 553q0 -207 95.5 -322.5t265.5 -115.5q246 0 397 235q64 100 102 240 t38 280q0 201 -97 317t-264 116q-247 0 -395 -236q-63 -97 -102.5 -239.5t-39.5 -274.5zM705 1845h190l195 -299h-144z" />
<glyph unicode="&#xd3;" horiz-adv-x="1474" d="M145 582q0 148 48.5 298t136.5 275q200 283 528 283q298 0 432 -211q101 -167 101 -383q0 -154 -48.5 -306.5t-136.5 -275.5q-102 -144 -232 -213t-298 -69q-293 0 -426 204q-105 161 -105 398zM319 553q0 -207 95.5 -322.5t265.5 -115.5q246 0 397 235q64 100 102 240 t38 280q0 201 -97 317t-264 116q-247 0 -395 -236q-63 -97 -102.5 -239.5t-39.5 -274.5zM764 1546l289 299h211l-338 -299h-162z" />
<glyph unicode="&#xd4;" horiz-adv-x="1474" d="M145 582q0 148 48.5 298t136.5 275q200 283 528 283q298 0 432 -211q101 -167 101 -383q0 -154 -48.5 -306.5t-136.5 -275.5q-102 -144 -232 -213t-298 -69q-293 0 -426 204q-105 161 -105 398zM319 553q0 -207 95.5 -322.5t265.5 -115.5q246 0 397 235q64 100 102 240 t38 280q0 201 -97 317t-264 116q-247 0 -395 -236q-63 -97 -102.5 -239.5t-39.5 -274.5zM600 1546l246 299h186l152 -299h-144l-110 199l-174 -199h-156z" />
<glyph unicode="&#xd5;" horiz-adv-x="1474" d="M145 582q0 148 48.5 298t136.5 275q200 283 528 283q298 0 432 -211q101 -167 101 -383q0 -154 -48.5 -306.5t-136.5 -275.5q-102 -144 -232 -213t-298 -69q-293 0 -426 204q-105 161 -105 398zM319 553q0 -207 95.5 -322.5t265.5 -115.5q246 0 397 235q64 100 102 240 t38 280q0 201 -97 317t-264 116q-247 0 -395 -236q-63 -97 -102.5 -239.5t-39.5 -274.5zM575 1585q25 100 78.5 154.5t126.5 54.5q72 0 181 -43q78 -31 112 -31q38 0 66 23t39 63h104q-25 -104 -77.5 -157.5t-127.5 -53.5q-65 0 -172 41q-86 33 -125 33q-58 0 -96 -84h-109z " />
<glyph unicode="&#xd6;" horiz-adv-x="1474" d="M145 582q0 148 48.5 298t136.5 275q200 283 528 283q298 0 432 -211q101 -167 101 -383q0 -154 -48.5 -306.5t-136.5 -275.5q-102 -144 -232 -213t-298 -69q-293 0 -426 204q-105 161 -105 398zM319 553q0 -207 95.5 -322.5t265.5 -115.5q246 0 397 235q64 100 102 240 t38 280q0 201 -97 317t-264 116q-247 0 -395 -236q-63 -97 -102.5 -239.5t-39.5 -274.5zM635 1700q0 44 30 73t76 29q47 0 77 -29.5t30 -76.5t-30 -77t-77 -30t-76.5 31t-29.5 80zM1012 1700q0 44 30 73t76 29q47 0 77 -29.5t30 -76.5t-30 -77t-77 -30t-76.5 31t-29.5 80z " />
<glyph unicode="&#xd7;" d="M150 166l352 352l-352 352l90 88l350 -352l354 352l88 -88l-352 -352l350 -352l-88 -88l-352 352l-352 -352z" />
<glyph unicode="&#xd8;" horiz-adv-x="1474" d="M68 39l165 174q-88 164 -88 365q0 151 48.5 302.5t136.5 274.5q204 283 530 283q251 0 385 -152l146 154l69 -68l-157 -168q88 -169 88 -360q0 -153 -48.5 -305t-136.5 -277q-102 -144 -232 -213t-296 -69q-248 0 -389 153l-150 -160zM319 547q0 -107 33 -207l783 827 q-98 136 -279 136q-120 0 -220.5 -60t-174.5 -176q-64 -98 -103 -240.5t-39 -279.5zM401 250q97 -135 279 -135q246 0 397 235q63 98 101.5 239.5t38.5 276.5q0 119 -35 211z" />
<glyph unicode="&#xd9;" horiz-adv-x="1361" d="M172 332q0 98 33 317l123 768h164l-138 -860q-18 -120 -18 -190q0 -128 69 -190t211 -62q217 0 320 145q33 49 54 125t48 240l125 792h156l-129 -813q-34 -217 -63.5 -305.5t-90.5 -157.5q-142 -161 -422 -161q-207 0 -324.5 94t-117.5 258zM635 1845h190l195 -299h-143z " />
<glyph unicode="&#xda;" horiz-adv-x="1361" d="M172 332q0 98 33 317l123 768h164l-138 -860q-18 -120 -18 -190q0 -128 69 -190t211 -62q217 0 320 145q33 49 54 125t48 240l125 792h156l-129 -813q-34 -217 -63.5 -305.5t-90.5 -157.5q-142 -161 -422 -161q-207 0 -324.5 94t-117.5 258zM707 1546l288 299h211 l-338 -299h-161z" />
<glyph unicode="&#xdb;" horiz-adv-x="1361" d="M172 332q0 98 33 317l123 768h164l-138 -860q-18 -120 -18 -190q0 -128 69 -190t211 -62q217 0 320 145q33 49 54 125t48 240l125 792h156l-129 -813q-34 -217 -63.5 -305.5t-90.5 -157.5q-142 -161 -422 -161q-207 0 -324.5 94t-117.5 258zM557 1546l246 299h186 l152 -299h-144l-110 199l-174 -199h-156z" />
<glyph unicode="&#xdc;" horiz-adv-x="1361" d="M172 332q0 98 33 317l123 768h164l-138 -860q-18 -120 -18 -190q0 -128 69 -190t211 -62q217 0 320 145q33 49 54 125t48 240l125 792h156l-129 -813q-34 -217 -63.5 -305.5t-90.5 -157.5q-142 -161 -422 -161q-207 0 -324.5 94t-117.5 258zM578 1700q0 44 30 73t76 29 q47 0 77 -29.5t30 -76.5t-30 -77t-77 -30t-76.5 31t-29.5 80zM954 1700q0 44 30.5 73t76.5 29q47 0 76.5 -29.5t29.5 -76.5t-29.5 -77t-76.5 -30t-77 31t-30 80z" />
<glyph unicode="&#xdd;" horiz-adv-x="1146" d="M154 1417h182l203 -450l34 -74q5 -13 17 -40t26 -60q0 1 121 163l355 461h186l-604 -778l-101 -639h-163l100 639zM600 1546l289 299h211l-338 -299h-162z" />
<glyph unicode="&#xde;" horiz-adv-x="1042" d="M115 0l225 1417h162l-45 -284h84q233 0 342 -66q68 -41 104.5 -116t36.5 -173q0 -122 -49.5 -222.5t-138.5 -160.5q-127 -82 -383 -82h-125l-49 -313h-164zM350 449h62q130 0 207 18t124 59q49 41 78 108.5t29 139.5q0 123 -73 173t-253 50h-88z" />
<glyph unicode="&#xdf;" horiz-adv-x="1146" d="M100 0l160 1012q25 151 47.5 226.5t59.5 129.5q103 150 331 150q170 0 267.5 -90t97.5 -248q0 -172 -107 -273q-39 -39 -85 -61.5t-130 -44.5q146 -17 215.5 -95.5t69.5 -224.5q0 -217 -136 -359t-345 -142q-100 0 -176 28l43 125q65 -29 129 -29q139 0 230 110.5 t91 279.5q0 114 -71 177.5t-199 63.5h-39l18 125q116 3 185 49q66 43 104.5 117.5t38.5 159.5q0 97 -53.5 152t-145.5 55q-157 0 -223 -136q-35 -70 -59 -235l-162 -1022h-156z" />
<glyph unicode="&#xe0;" horiz-adv-x="1148" d="M102 403q0 127 37 249t103 216q135 191 342 191q196 0 288 -164l27 143h152q0 -3 -3.5 -22t-12.5 -64.5t-17 -91.5q-6 -38 -19.5 -118.5t-19.5 -120.5l-47 -289q-25 -160 -43 -332h-148l19 145q-76 -90 -148 -127.5t-166 -37.5q-160 0 -252 112.5t-92 310.5zM266 395 q0 -133 57 -212t154 -79q157 0 295 197l70 438q-62 195 -238 195q-158 0 -260 -193q-78 -150 -78 -346zM410 1497h190l195 -299h-144z" />
<glyph unicode="&#xe1;" horiz-adv-x="1148" d="M102 403q0 127 37 249t103 216q135 191 342 191q196 0 288 -164l27 143h152q0 -3 -3.5 -22t-12.5 -64.5t-17 -91.5q-6 -38 -19.5 -118.5t-19.5 -120.5l-47 -289q-25 -160 -43 -332h-148l19 145q-76 -90 -148 -127.5t-166 -37.5q-160 0 -252 112.5t-92 310.5zM266 395 q0 -133 57 -212t154 -79q157 0 295 197l70 438q-62 195 -238 195q-158 0 -260 -193q-78 -150 -78 -346zM510 1198l289 299h211l-338 -299h-162z" />
<glyph unicode="&#xe2;" horiz-adv-x="1148" d="M102 403q0 127 37 249t103 216q135 191 342 191q196 0 288 -164l27 143h152q0 -3 -3.5 -22t-12.5 -64.5t-17 -91.5q-6 -38 -19.5 -118.5t-19.5 -120.5l-47 -289q-25 -160 -43 -332h-148l19 145q-76 -90 -148 -127.5t-166 -37.5q-160 0 -252 112.5t-92 310.5zM266 395 q0 -133 57 -212t154 -79q157 0 295 197l70 438q-62 195 -238 195q-158 0 -260 -193q-78 -150 -78 -346zM373 1198l245 299h187l151 -299h-143l-111 199l-174 -199h-155z" />
<glyph unicode="&#xe3;" horiz-adv-x="1148" d="M102 403q0 127 37 249t103 216q135 191 342 191q196 0 288 -164l27 143h152q0 -3 -3.5 -22t-12.5 -64.5t-17 -91.5q-6 -38 -19.5 -118.5t-19.5 -120.5l-47 -289q-25 -160 -43 -332h-148l19 145q-76 -90 -148 -127.5t-166 -37.5q-160 0 -252 112.5t-92 310.5zM266 395 q0 -133 57 -212t154 -79q157 0 295 197l70 438q-62 195 -238 195q-158 0 -260 -193q-78 -150 -78 -346zM352 1237q25 100 78.5 154.5t126.5 54.5q71 0 180 -43q76 -31 113 -31q38 0 65.5 23t38.5 63h105q-25 -104 -77.5 -157.5t-127.5 -53.5q-65 0 -172 41q-86 33 -125 33 q-58 0 -96 -84h-109z" />
<glyph unicode="&#xe4;" horiz-adv-x="1148" d="M102 403q0 127 37 249t103 216q135 191 342 191q196 0 288 -164l27 143h152q0 -3 -3.5 -22t-12.5 -64.5t-17 -91.5q-6 -38 -19.5 -118.5t-19.5 -120.5l-47 -289q-25 -160 -43 -332h-148l19 145q-76 -90 -148 -127.5t-166 -37.5q-160 0 -252 112.5t-92 310.5zM266 395 q0 -133 57 -212t154 -79q157 0 295 197l70 438q-62 195 -238 195q-158 0 -260 -193q-78 -150 -78 -346zM412 1352q0 44 30 73t76 29q47 0 77 -29.5t30 -76.5t-30 -77t-77 -30t-76.5 31t-29.5 80zM788 1352q0 44 30.5 73t76.5 29q47 0 76.5 -29.5t29.5 -76.5t-29.5 -77 t-76.5 -30t-77 31t-30 80z" />
<glyph unicode="&#xe5;" horiz-adv-x="1148" d="M102 403q0 127 37 249t103 216q135 191 342 191q196 0 288 -164l27 143h152q0 -3 -3.5 -22t-12.5 -64.5t-17 -91.5q-6 -38 -19.5 -118.5t-19.5 -120.5l-47 -289q-25 -160 -43 -332h-148l19 145q-76 -90 -148 -127.5t-166 -37.5q-160 0 -252 112.5t-92 310.5zM266 395 q0 -133 57 -212t154 -79q157 0 295 197l70 438q-62 195 -238 195q-158 0 -260 -193q-78 -150 -78 -346zM514 1364q0 85 59.5 144t145.5 59t145.5 -59.5t59.5 -145.5t-59.5 -145.5t-145.5 -59.5q-88 0 -146.5 59.5t-58.5 147.5zM600 1364q0 -55 33 -90t86 -35q51 0 84 34.5 t33 88.5t-33 88.5t-84 34.5t-85 -34.5t-34 -86.5z" />
<glyph unicode="&#xe6;" horiz-adv-x="1771" d="M102 403q0 127 37 249t103 216q135 191 342 191q188 0 284 -162l29 154h143l-32 -166q65 91 140.5 132.5t178.5 41.5q172 0 261 -98.5t89 -288.5q0 -82 -18 -195h-694q-4 -66 -4 -80q0 -141 68.5 -217t197.5 -76q139 0 293 101l41 -127q-166 -98 -340 -98 q-285 0 -390 245q-78 -127 -170 -186t-212 -59q-162 0 -254.5 112.5t-92.5 310.5zM266 395q0 -135 57.5 -213t155.5 -78q71 0 140.5 42t115.5 112q25 35 36 67t20 93l51 321q-62 195 -238 195q-158 0 -260 -193q-78 -150 -78 -346zM989 602h524q7 68 7 86q0 118 -55 182 t-156 64q-120 0 -202.5 -85.5t-117.5 -246.5z" />
<glyph unicode="&#xe7;" horiz-adv-x="919" d="M98 416q0 256 140 444q147 199 387 199q143 0 276 -68l-53 -121q-63 35 -111.5 49.5t-105.5 14.5q-183 0 -291 -195q-78 -138 -78 -317q0 -154 64.5 -236t185.5 -82q110 0 242 80l53 -118q-146 -86 -309 -86q-193 0 -296.5 112.5t-103.5 323.5zM115 -371l282 301h185 l-316 -301h-151z" />
<glyph unicode="&#xe8;" horiz-adv-x="1077" d="M102 408q0 132 41.5 258.5t114.5 218.5q133 174 365 174q362 0 362 -383q0 -76 -18 -187h-695q-4 -70 -4 -83q0 -146 68 -224t196 -78q142 0 293 101l41 -127q-163 -98 -340 -98q-200 0 -312 113t-112 315zM295 614h526q6 55 6 80q0 116 -55 178t-158 62 q-120 0 -205.5 -85.5t-113.5 -234.5zM446 1497h191l194 -299h-143z" />
<glyph unicode="&#xe9;" horiz-adv-x="1077" d="M102 408q0 132 41.5 258.5t114.5 218.5q133 174 365 174q362 0 362 -383q0 -76 -18 -187h-695q-4 -70 -4 -83q0 -146 68 -224t196 -78q142 0 293 101l41 -127q-163 -98 -340 -98q-200 0 -312 113t-112 315zM295 614h526q6 55 6 80q0 116 -55 178t-158 62 q-120 0 -205.5 -85.5t-113.5 -234.5zM508 1198l289 299h211l-338 -299h-162z" />
<glyph unicode="&#xea;" horiz-adv-x="1077" d="M102 408q0 132 41.5 258.5t114.5 218.5q133 174 365 174q362 0 362 -383q0 -76 -18 -187h-695q-4 -70 -4 -83q0 -146 68 -224t196 -78q142 0 293 101l41 -127q-163 -98 -340 -98q-200 0 -312 113t-112 315zM295 614h526q6 55 6 80q0 116 -55 178t-158 62 q-120 0 -205.5 -85.5t-113.5 -234.5zM354 1198l246 299h186l152 -299h-143l-111 199l-174 -199h-156z" />
<glyph unicode="&#xeb;" horiz-adv-x="1077" d="M102 408q0 132 41.5 258.5t114.5 218.5q133 174 365 174q362 0 362 -383q0 -76 -18 -187h-695q-4 -70 -4 -83q0 -146 68 -224t196 -78q142 0 293 101l41 -127q-163 -98 -340 -98q-200 0 -312 113t-112 315zM295 614h526q6 55 6 80q0 116 -55 178t-158 62 q-120 0 -205.5 -85.5t-113.5 -234.5zM365 1352q0 44 30 73t76 29q47 0 77 -29.5t30 -76.5t-30 -77t-77 -30t-76.5 31t-29.5 80zM741 1352q0 44 30.5 73t76.5 29q47 0 76.5 -29.5t29.5 -76.5t-29.5 -77t-76.5 -30t-77 31t-30 80z" />
<glyph unicode="&#xec;" horiz-adv-x="536" d="M109 0l163 1038h156l-164 -1038h-155zM137 1497h191l194 -299h-143z" />
<glyph unicode="&#xed;" horiz-adv-x="536" d="M109 0l163 1038h156l-164 -1038h-155zM229 1198l289 299h211l-338 -299h-162z" />
<glyph unicode="&#xee;" horiz-adv-x="536" d="M84 1198l246 299h186l152 -299h-144l-110 199l-174 -199h-156zM109 0l163 1038h156l-164 -1038h-155z" />
<glyph unicode="&#xef;" horiz-adv-x="536" d="M104 1352q0 44 30.5 73t76.5 29q47 0 76.5 -29.5t29.5 -76.5t-29.5 -77t-76.5 -30t-77 31t-30 80zM109 0l163 1038h156l-164 -1038h-155zM481 1352q0 44 30.5 73t76.5 29q47 0 76.5 -29.5t29.5 -76.5t-29.5 -77t-76.5 -30t-77 31t-30 80z" />
<glyph unicode="&#xf0;" horiz-adv-x="1101" d="M96 385q0 170 64.5 309.5t177.5 219t250 79.5q114 0 207 -59q-57 159 -158 266l-293 -131l-25 90l244 109q-91 79 -188 125l76 120q81 -33 137 -70t127 -104l289 131l24 -92l-246 -110q104 -135 160.5 -296.5t56.5 -326.5q0 -299 -143.5 -482t-376.5 -183 q-178 0 -280.5 108.5t-102.5 296.5zM260 379q0 -127 61.5 -201t167.5 -74q181 0 281 207q66 142 66 281q0 133 -59.5 204.5t-168.5 71.5q-151 0 -249.5 -138.5t-98.5 -350.5z" />
<glyph unicode="&#xf1;" horiz-adv-x="1189" d="M106 0l111 702q39 252 45 336h154l-19 -151q98 91 185 131.5t182 40.5q128 0 203 -71.5t75 -192.5q0 -54 -18 -191l-96 -604h-156l98 625q15 92 15 141q0 79 -42.5 123.5t-119.5 44.5q-85 0 -177 -52t-167 -143l-117 -739h-156zM373 1237q25 100 78.5 154.5t126.5 54.5 q71 0 180 -43q76 -31 112 -31q38 0 66 23t39 63h104q-25 -104 -77.5 -157.5t-127.5 -53.5q-65 0 -172 41q-86 33 -124 33q-59 0 -97 -84h-108z" />
<glyph unicode="&#xf2;" horiz-adv-x="1157" d="M102 424q0 113 36 225t100 199q75 103 178.5 157t226.5 54q186 0 299 -119t113 -317q0 -180 -70.5 -327.5t-194.5 -231.5t-274 -84q-190 0 -302 120t-112 324zM266 416q0 -147 67 -229.5t187 -82.5q155 0 263 152.5t108 370.5q0 143 -67.5 225t-184.5 82 q-89 0 -164.5 -50.5t-128.5 -144.5q-37 -68 -58.5 -154.5t-21.5 -168.5zM485 1497h191l194 -299h-143z" />
<glyph unicode="&#xf3;" horiz-adv-x="1157" d="M102 424q0 113 36 225t100 199q75 103 178.5 157t226.5 54q186 0 299 -119t113 -317q0 -180 -70.5 -327.5t-194.5 -231.5t-274 -84q-190 0 -302 120t-112 324zM266 416q0 -147 67 -229.5t187 -82.5q155 0 263 152.5t108 370.5q0 143 -67.5 225t-184.5 82 q-89 0 -164.5 -50.5t-128.5 -144.5q-37 -68 -58.5 -154.5t-21.5 -168.5zM582 1198l288 299h211l-338 -299h-161z" />
<glyph unicode="&#xf4;" horiz-adv-x="1157" d="M102 424q0 113 36 225t100 199q75 103 178.5 157t226.5 54q186 0 299 -119t113 -317q0 -180 -70.5 -327.5t-194.5 -231.5t-274 -84q-190 0 -302 120t-112 324zM266 416q0 -147 67 -229.5t187 -82.5q155 0 263 152.5t108 370.5q0 143 -67.5 225t-184.5 82 q-89 0 -164.5 -50.5t-128.5 -144.5q-37 -68 -58.5 -154.5t-21.5 -168.5zM393 1198l246 299h186l152 -299h-143l-111 199l-174 -199h-156z" />
<glyph unicode="&#xf5;" horiz-adv-x="1157" d="M102 424q0 113 36 225t100 199q75 103 178.5 157t226.5 54q186 0 299 -119t113 -317q0 -180 -70.5 -327.5t-194.5 -231.5t-274 -84q-190 0 -302 120t-112 324zM266 416q0 -147 67 -229.5t187 -82.5q155 0 263 152.5t108 370.5q0 143 -67.5 225t-184.5 82 q-89 0 -164.5 -50.5t-128.5 -144.5q-37 -68 -58.5 -154.5t-21.5 -168.5zM356 1237q25 100 78.5 154.5t126.5 54.5q71 0 180 -43q76 -31 113 -31q38 0 65.5 23t38.5 63h105q-25 -104 -77.5 -157.5t-127.5 -53.5q-65 0 -172 41q-86 33 -125 33q-58 0 -96 -84h-109z" />
<glyph unicode="&#xf6;" horiz-adv-x="1157" d="M102 424q0 113 36 225t100 199q75 103 178.5 157t226.5 54q186 0 299 -119t113 -317q0 -180 -70.5 -327.5t-194.5 -231.5t-274 -84q-190 0 -302 120t-112 324zM266 416q0 -147 67 -229.5t187 -82.5q155 0 263 152.5t108 370.5q0 143 -67.5 225t-184.5 82 q-89 0 -164.5 -50.5t-128.5 -144.5q-37 -68 -58.5 -154.5t-21.5 -168.5zM416 1352q0 44 30 73t76 29q47 0 77 -29.5t30 -76.5t-30 -77t-77 -30t-76.5 31t-29.5 80zM793 1352q0 44 30 73t76 29q47 0 77 -29.5t30 -76.5t-30 -77t-77 -30t-76.5 31t-29.5 80z" />
<glyph unicode="&#xf7;" d="M74 455l20 125h1010l-21 -125h-1009zM424 190q0 46 33 78.5t80 32.5t79.5 -33t32.5 -80t-32.5 -79.5t-79.5 -32.5q-50 0 -81.5 31.5t-31.5 82.5zM528 852q0 46 33 78.5t80 32.5t80 -33t33 -80t-33 -80t-80 -33q-50 0 -81.5 32t-31.5 83z" />
<glyph unicode="&#xf8;" horiz-adv-x="1157" d="M8 27l152 147q-58 110 -58 244q0 118 36.5 231.5t101.5 198.5q158 211 409 211q97 0 167.5 -30t133.5 -97l146 141l53 -59l-152 -148q58 -108 58 -243q0 -118 -36 -232t-99 -201q-160 -210 -412 -210q-190 0 -301 126l-144 -139zM266 406q0 -54 17 -115l559 538 q-69 105 -197 105q-105 0 -192 -69.5t-137 -191t-50 -267.5zM315 211q69 -107 197 -107q105 0 192 70t137 191.5t50 267.5q0 53 -17 117z" />
<glyph unicode="&#xf9;" horiz-adv-x="1177" d="M145 250q0 52 15 139l102 649h156l-99 -626q-18 -111 -18 -162q0 -69 42.5 -107.5t117.5 -38.5q78 0 169 50.5t167 136.5l118 747h156l-110 -700q-41 -273 -46 -338h-143l19 152q-109 -95 -192 -133.5t-181 -38.5q-127 0 -200 72t-73 198zM461 1497h190l195 -299h-144z " />
<glyph unicode="&#xfa;" horiz-adv-x="1177" d="M145 250q0 52 15 139l102 649h156l-99 -626q-18 -111 -18 -162q0 -69 42.5 -107.5t117.5 -38.5q78 0 169 50.5t167 136.5l118 747h156l-110 -700q-41 -273 -46 -338h-143l19 152q-109 -95 -192 -133.5t-181 -38.5q-127 0 -200 72t-73 198zM567 1198l289 299h211 l-338 -299h-162z" />
<glyph unicode="&#xfb;" horiz-adv-x="1177" d="M145 250q0 52 15 139l102 649h156l-99 -626q-18 -111 -18 -162q0 -69 42.5 -107.5t117.5 -38.5q78 0 169 50.5t167 136.5l118 747h156l-110 -700q-41 -273 -46 -338h-143l19 152q-109 -95 -192 -133.5t-181 -38.5q-127 0 -200 72t-73 198zM391 1198l246 299h186l152 -299 h-144l-110 199l-174 -199h-156z" />
<glyph unicode="&#xfc;" horiz-adv-x="1177" d="M145 250q0 52 15 139l102 649h156l-99 -626q-18 -111 -18 -162q0 -69 42.5 -107.5t117.5 -38.5q78 0 169 50.5t167 136.5l118 747h156l-110 -700q-41 -273 -46 -338h-143l19 152q-109 -95 -192 -133.5t-181 -38.5q-127 0 -200 72t-73 198zM426 1352q0 44 30 73t76 29 q47 0 77 -29.5t30 -76.5t-30 -77t-77 -30t-76.5 31t-29.5 80zM803 1352q0 44 30 73t76 29q47 0 77 -29.5t30 -76.5t-30 -77t-77 -30t-76.5 31t-29.5 80z" />
<glyph unicode="&#xfd;" horiz-adv-x="1001" d="M-117 -432l45 125q62 -29 107 -29q86 0 153.5 72t155.5 258l-229 1044h161l130 -612q35 -167 47 -238l102 207l338 643h151l-587 -1126q-115 -221 -198.5 -297t-211.5 -76q-84 0 -164 29zM475 1198l289 299h211l-338 -299h-162z" />
<glyph unicode="&#xfe;" horiz-adv-x="1148" d="M35 -440l307 1937h156l-95 -590q131 152 302 152q154 0 248 -115t94 -303q0 -128 -37 -252t-101 -215q-138 -194 -358 -194q-182 0 -268 161l-93 -581h-155zM307 301q29 -94 89.5 -145.5t140.5 -51.5q173 0 274 209q33 70 52.5 159.5t19.5 170.5q0 138 -54.5 214.5 t-154.5 76.5q-168 0 -297 -195z" />
<glyph unicode="&#xff;" horiz-adv-x="1001" d="M-117 -432l45 125q62 -29 107 -29q86 0 153.5 72t155.5 258l-229 1044h161l130 -612q35 -167 47 -238l102 207l338 643h151l-587 -1126q-115 -221 -198.5 -297t-211.5 -76q-84 0 -164 29zM315 1352q0 44 30.5 73t76.5 29q47 0 76.5 -29.5t29.5 -76.5t-29.5 -77t-76.5 -30 t-77 31t-30 80zM692 1352q0 44 30.5 73t76.5 29q47 0 76.5 -29.5t29.5 -76.5t-29.5 -77t-76.5 -30t-77 31t-30 80z" />
<glyph unicode="&#x100;" horiz-adv-x="1275" d="M-41 0l713 1417h205l268 -1417h-166l-90 496h-508l-248 -496h-174zM449 631h413l-63 373q-33 198 -41 266q-50 -112 -53 -119q-19 -42 -72 -147zM506 1624l20 125h582l-21 -125h-581z" />
<glyph unicode="&#x101;" horiz-adv-x="1148" d="M102 403q0 127 37 249t103 216q135 191 342 191q196 0 288 -164l27 143h152q0 -3 -3.5 -22t-12.5 -64.5t-17 -91.5q-6 -38 -19.5 -118.5t-19.5 -120.5l-47 -289q-25 -160 -43 -332h-148l19 145q-76 -90 -148 -127.5t-166 -37.5q-160 0 -252 112.5t-92 310.5zM266 395 q0 -133 57 -212t154 -79q157 0 295 197l70 438q-62 195 -238 195q-158 0 -260 -193q-78 -150 -78 -346zM406 1282l18 119h582l-19 -119h-581z" />
<glyph unicode="&#x102;" horiz-adv-x="1275" d="M-41 0l713 1417h205l268 -1417h-166l-90 496h-508l-248 -496h-174zM449 631h413l-63 373q-33 198 -41 266q-50 -112 -53 -119q-19 -42 -72 -147zM537 1808q0 27 4 58h135v-33q0 -76 33.5 -118t95.5 -42q69 0 117 49.5t71 143.5h137q-15 -74 -33 -117.5t-50 -79.5 q-97 -106 -244 -106q-120 0 -193 67.5t-73 177.5z" />
<glyph unicode="&#x103;" horiz-adv-x="1148" d="M102 403q0 127 37 249t103 216q135 191 342 191q196 0 288 -164l27 143h152q0 -3 -3.5 -22t-12.5 -64.5t-17 -91.5q-6 -38 -19.5 -118.5t-19.5 -120.5l-47 -289q-25 -160 -43 -332h-148l19 145q-76 -90 -148 -127.5t-166 -37.5q-160 0 -252 112.5t-92 310.5zM266 395 q0 -133 57 -212t154 -79q157 0 295 197l70 438q-62 195 -238 195q-158 0 -260 -193q-78 -150 -78 -346zM414 1450q0 27 4 47h135v-31q0 -78 33 -119.5t96 -41.5q140 0 188 192h140q-13 -70 -31 -112.5t-49 -77.5q-94 -113 -248 -113q-123 0 -195.5 69.5t-72.5 186.5z" />
<glyph unicode="&#x104;" horiz-adv-x="1275" d="M-41 0l713 1417h205l268 -1417q-122 -75 -158 -102q-98 -79 -98 -160q0 -34 24 -55t62 -21q33 0 104 16v-98q-88 -26 -135 -26q-89 0 -144 45t-55 118q0 173 302 283h-68l-90 496h-508l-248 -496h-174zM449 631h413l-63 373q-33 198 -41 266q-8 -20 -39 -88 q-4 -11 -9 -21t-12 -23t-12 -24q-4 -10 -53 -110z" />
<glyph unicode="&#x105;" horiz-adv-x="1148" d="M102 403q0 127 37 249t103 216q135 191 342 191q196 0 288 -164l27 143h152l-21 -116q-33 -181 -51 -301l-47 -289q-22 -140 -45 -332q-116 -70 -152 -98q-104 -79 -104 -164q0 -34 24 -55t62 -21q33 0 104 16v-98q-86 -26 -135 -26q-89 0 -144 45t-55 118q0 173 301 283 h-49l21 145q-78 -91 -149 -128t-165 -37q-160 0 -252 112.5t-92 310.5zM266 395q0 -133 57 -212t154 -79q157 0 295 197l70 438q-65 195 -238 195q-158 0 -260 -193q-78 -150 -78 -346z" />
<glyph unicode="&#x106;" horiz-adv-x="1161" d="M141 588q0 345 207 596q211 254 529 254q172 0 323 -62l-43 -135q-138 62 -272 62q-265 0 -432 -248q-138 -201 -138 -473q0 -235 115 -353q50 -55 125.5 -84.5t159.5 -29.5q125 0 274 67l43 -135q-155 -67 -332 -67q-267 0 -413 159t-146 449zM719 1546l289 299h211 l-338 -299h-162z" />
<glyph unicode="&#x107;" horiz-adv-x="919" d="M98 416q0 256 140 444q147 199 387 199q143 0 276 -68l-53 -121q-63 35 -111.5 49.5t-105.5 14.5q-183 0 -291 -195q-78 -138 -78 -317q0 -154 64.5 -236t185.5 -82q110 0 242 80l53 -118q-146 -86 -309 -86q-193 0 -296.5 112.5t-103.5 323.5zM516 1198l289 299h211 l-338 -299h-162z" />
<glyph unicode="&#x108;" horiz-adv-x="1161" d="M141 588q0 345 207 596q211 254 529 254q172 0 323 -62l-43 -135q-138 62 -272 62q-265 0 -432 -248q-138 -201 -138 -473q0 -235 115 -353q50 -55 125.5 -84.5t159.5 -29.5q125 0 274 67l43 -135q-155 -67 -332 -67q-267 0 -413 159t-146 449zM588 1546l246 299h186 l151 -299h-143l-110 199l-175 -199h-155z" />
<glyph unicode="&#x109;" horiz-adv-x="919" d="M98 416q0 256 140 444q147 199 387 199q143 0 276 -68l-53 -121q-63 35 -111.5 49.5t-105.5 14.5q-183 0 -291 -195q-78 -138 -78 -317q0 -154 64.5 -236t185.5 -82q110 0 242 80l53 -118q-146 -86 -309 -86q-193 0 -296.5 112.5t-103.5 323.5zM346 1198l246 299h186 l152 -299h-144l-110 199l-174 -199h-156z" />
<glyph unicode="&#x10a;" horiz-adv-x="1161" d="M141 588q0 345 207 596q211 254 529 254q172 0 323 -62l-43 -135q-138 62 -272 62q-265 0 -432 -248q-138 -201 -138 -473q0 -235 115 -353q50 -55 125.5 -84.5t159.5 -29.5q125 0 274 67l43 -135q-155 -67 -332 -67q-267 0 -413 159t-146 449zM791 1700q0 44 30 73 t76 29q47 0 77 -29.5t30 -76.5t-30 -77t-77 -30t-76.5 31t-29.5 80z" />
<glyph unicode="&#x10b;" horiz-adv-x="919" d="M98 416q0 256 140 444q147 199 387 199q143 0 276 -68l-53 -121q-63 35 -111.5 49.5t-105.5 14.5q-183 0 -291 -195q-78 -138 -78 -317q0 -154 64.5 -236t185.5 -82q110 0 242 80l53 -118q-146 -86 -309 -86q-193 0 -296.5 112.5t-103.5 323.5zM555 1352q0 44 30.5 73 t76.5 29q47 0 76.5 -29.5t29.5 -76.5t-29.5 -77t-76.5 -30t-77 31t-30 80z" />
<glyph unicode="&#x10c;" horiz-adv-x="1161" d="M141 588q0 345 207 596q211 254 529 254q172 0 323 -62l-43 -135q-138 62 -272 62q-265 0 -432 -248q-138 -201 -138 -473q0 -235 115 -353q50 -55 125.5 -84.5t159.5 -29.5q125 0 274 67l43 -135q-155 -67 -332 -67q-267 0 -413 159t-146 449zM631 1858h143l111 -199 l174 199h155l-245 -299h-187z" />
<glyph unicode="&#x10d;" horiz-adv-x="919" d="M98 416q0 256 140 444q147 199 387 199q143 0 276 -68l-53 -121q-63 35 -111.5 49.5t-105.5 14.5q-183 0 -291 -195q-78 -138 -78 -317q0 -154 64.5 -236t185.5 -82q110 0 242 80l53 -118q-146 -86 -309 -86q-193 0 -296.5 112.5t-103.5 323.5zM391 1497h144l112 -199 l174 199h154l-246 -299h-186z" />
<glyph unicode="&#x10e;" horiz-adv-x="1343" d="M113 0l225 1417h289q153 0 245.5 -15t159.5 -52q114 -60 173 -179t59 -288q0 -221 -76 -416t-207 -309q-101 -88 -225.5 -123t-333.5 -35h-309zM297 135h137q163 0 273 38.5t188 121.5q91 100 143 252t52 321q0 149 -52 248.5t-149 134.5q-47 19 -107.5 25t-189.5 6h-113 zM526 1858h144l110 -199l174 199h156l-246 -299h-186z" />
<glyph unicode="&#x10f;" horiz-adv-x="1331" d="M98 403q0 127 37 249t105 216q138 191 344 191q193 0 288 -156l95 594h155l-184 -1165q-25 -144 -45 -332h-148l19 145q-78 -91 -149.5 -128t-168.5 -37q-163 0 -255.5 112.5t-92.5 310.5zM262 393q0 -132 58.5 -210.5t156.5 -78.5q161 0 299 197l70 438 q-31 95 -92.5 145t-149.5 50q-160 0 -262 -193q-37 -69 -58.5 -162.5t-21.5 -185.5zM1167 1038l211 459h181l-248 -459h-144z" />
<glyph unicode="&#x110;" horiz-adv-x="1343" d="M49 666l17 108h170l102 643h289q153 0 245.5 -15t159.5 -52q114 -60 173 -179t59 -288q0 -221 -76 -416t-207 -309q-101 -88 -225.5 -123t-333.5 -35h-309l106 666h-170zM297 135h137q163 0 273 38.5t188 121.5q91 100 143 252t52 321q0 149 -52 248.5t-149 134.5 q-47 19 -107.5 25t-189.5 6h-113l-80 -508h293l-18 -108h-293z" />
<glyph unicode="&#x111;" horiz-adv-x="1148" d="M98 403q0 127 37 249t105 216q138 191 344 191q193 0 288 -156l50 318h-310l19 118h309l27 158h155l-26 -158h116l-18 -118h-117l-139 -889q-26 -156 -45 -332h-148l19 145q-78 -91 -149.5 -128t-168.5 -37q-163 0 -255.5 112.5t-92.5 310.5zM262 393q0 -132 58.5 -210.5 t156.5 -78.5q161 0 299 197l70 438q-31 95 -92.5 145t-149.5 50q-160 0 -262 -193q-37 -69 -58.5 -162.5t-21.5 -185.5z" />
<glyph unicode="&#x112;" horiz-adv-x="1083" d="M111 0l225 1417h729l-23 -135h-565l-78 -496h539l-23 -135h-538l-82 -516h596l-21 -135h-759zM430 1624l21 125h581l-20 -125h-582z" />
<glyph unicode="&#x113;" horiz-adv-x="1077" d="M102 408q0 132 41.5 258.5t114.5 218.5q133 174 365 174q362 0 362 -383q0 -76 -18 -187h-695q-4 -70 -4 -83q0 -146 68 -224t196 -78q142 0 293 101l41 -127q-163 -98 -340 -98q-200 0 -312 113t-112 315zM295 614h526q6 55 6 80q0 116 -55 178t-158 62 q-120 0 -205.5 -85.5t-113.5 -234.5zM358 1282l19 119h581l-18 -119h-582z" />
<glyph unicode="&#x114;" horiz-adv-x="1083" d="M111 0l225 1417h729l-23 -135h-565l-78 -496h539l-23 -135h-538l-82 -516h596l-21 -135h-759zM446 1808q0 19 5 58h135v-33q0 -76 33.5 -118t95.5 -42q69 0 117 49.5t71 143.5h137q-15 -74 -33.5 -117t-50.5 -80q-97 -106 -243 -106q-120 0 -193.5 67.5t-73.5 177.5z" />
<glyph unicode="&#x116;" horiz-adv-x="1083" d="M111 0l225 1417h729l-23 -135h-565l-78 -496h539l-23 -135h-538l-82 -516h596l-21 -135h-759zM627 1700q0 44 30 73t76 29q47 0 77 -29.5t30 -76.5t-30 -77t-77 -30t-76.5 31t-29.5 80z" />
<glyph unicode="&#x117;" horiz-adv-x="1077" d="M102 408q0 132 41.5 258.5t114.5 218.5q133 174 365 174q362 0 362 -383q0 -76 -18 -187h-695q-4 -70 -4 -83q0 -146 68 -224t196 -78q142 0 293 101l41 -127q-163 -98 -340 -98q-200 0 -312 113t-112 315zM295 614h526q6 55 6 80q0 116 -55 178t-158 62 q-120 0 -205.5 -85.5t-113.5 -234.5zM563 1352q0 44 30.5 73t76.5 29q47 0 76.5 -29.5t29.5 -76.5t-29.5 -77t-76.5 -30t-77 31t-30 80z" />
<glyph unicode="&#x118;" horiz-adv-x="1083" d="M111 0l223 1417h729l-21 -135h-565l-80 -496h539l-21 -135h-538l-82 -516h596l-23 -135q-110 -66 -151 -98q-105 -83 -105 -164q0 -34 24 -55t62 -21q34 0 105 16v-98q-86 -26 -135 -26q-89 0 -144 45t-55 118q0 173 301 283h-659z" />
<glyph unicode="&#x119;" horiz-adv-x="1077" d="M102 408q0 132 41.5 258.5t114.5 218.5q133 174 365 174q362 0 362 -383q0 -74 -18 -187h-695q-4 -70 -4 -83q0 -146 68 -224t196 -78q142 0 293 101l41 -127q-114 -68 -225 -88q-88 -52 -135 -88q-105 -83 -105 -164q0 -34 25 -55t63 -21q32 0 103 16v-98 q-86 -26 -135 -26q-89 0 -144 45t-55 118q0 159 248 263q-197 11 -300.5 120.5t-103.5 307.5zM297 614h524q6 55 6 80q0 116 -55 178t-158 62q-120 0 -204.5 -85.5t-112.5 -234.5z" />
<glyph unicode="&#x11a;" horiz-adv-x="1083" d="M111 0l225 1417h729l-23 -135h-565l-78 -496h539l-23 -135h-538l-82 -516h596l-21 -135h-759zM479 1858h144l110 -199l174 199h156l-246 -299h-186z" />
<glyph unicode="&#x11b;" horiz-adv-x="1077" d="M102 408q0 132 41.5 258.5t114.5 218.5q133 174 365 174q362 0 362 -383q0 -76 -18 -187h-695q-4 -70 -4 -83q0 -146 68 -224t196 -78q142 0 293 101l41 -127q-163 -98 -340 -98q-200 0 -312 113t-112 315zM295 614h526q6 55 6 80q0 116 -55 178t-158 62 q-120 0 -205.5 -85.5t-113.5 -234.5zM401 1497h144l112 -199l174 199h154l-246 -299h-186z" />
<glyph unicode="&#x11c;" horiz-adv-x="1378" d="M141 553q0 161 49 315.5t138 276.5q213 293 571 293q206 0 410 -86l-49 -133q-184 84 -351 84q-272 0 -436 -234q-73 -106 -115.5 -241.5t-42.5 -264.5q0 -212 108 -330t302 -118q129 0 248 41l69 440h-270l23 135h432l-109 -686q-207 -65 -411 -65q-293 0 -439 180 q-127 154 -127 393zM621 1546l245 299h187l151 -299h-143l-111 199l-174 -199h-155z" />
<glyph unicode="&#x11d;" horiz-adv-x="1153" d="M18 -340l78 115q140 -111 295 -111q183 0 275 156q47 84 77 276l13 78q-65 -83 -133 -119.5t-162 -36.5q-166 0 -260.5 111.5t-94.5 306.5q0 242 130 426q137 197 339 197q98 0 178 -47.5t121 -130.5l29 157h154q-48 -249 -74 -409l-86 -549q-26 -168 -52 -246t-77 -141 q-126 -154 -365 -154q-201 0 -385 121zM270 430q0 -136 60.5 -211.5t169.5 -75.5q76 0 141 44.5t141 146.5l62 399q-68 201 -244 201q-76 0 -135.5 -42.5t-110.5 -133.5q-84 -152 -84 -328zM393 1198l246 299h186l152 -299h-143l-111 199l-174 -199h-156z" />
<glyph unicode="&#x11e;" horiz-adv-x="1378" d="M141 553q0 161 49 315.5t138 276.5q213 293 571 293q206 0 410 -86l-49 -133q-184 84 -351 84q-272 0 -436 -234q-73 -106 -115.5 -241.5t-42.5 -264.5q0 -212 108 -330t302 -118q129 0 248 41l69 440h-270l23 135h432l-109 -686q-207 -65 -411 -65q-293 0 -439 180 q-127 154 -127 393zM645 1808q0 27 4 58h135v-33q0 -76 33.5 -118t95.5 -42q69 0 117.5 49.5t71.5 143.5h137q-15 -74 -33.5 -117t-50.5 -80q-97 -106 -244 -106q-120 0 -193 67.5t-73 177.5z" />
<glyph unicode="&#x11f;" horiz-adv-x="1153" d="M18 -340l78 115q140 -111 295 -111q183 0 275 156q47 84 77 276l13 78q-65 -83 -133 -119.5t-162 -36.5q-166 0 -260.5 111.5t-94.5 306.5q0 242 130 426q137 197 339 197q98 0 178 -47.5t121 -130.5l29 157h154q-48 -249 -74 -409l-86 -549q-26 -168 -52 -246t-77 -141 q-126 -154 -365 -154q-201 0 -385 121zM270 430q0 -136 60.5 -211.5t169.5 -75.5q76 0 141 44.5t141 146.5l62 399q-68 201 -244 201q-76 0 -135.5 -42.5t-110.5 -133.5q-84 -152 -84 -328zM432 1450q0 27 4 47h135v-31q0 -78 33 -119.5t96 -41.5q69 0 117.5 49t71.5 143 h139q-13 -70 -31 -112.5t-49 -77.5q-94 -113 -248 -113q-123 0 -195.5 69.5t-72.5 186.5z" />
<glyph unicode="&#x120;" horiz-adv-x="1378" d="M141 553q0 161 49 315.5t138 276.5q213 293 571 293q206 0 410 -86l-49 -133q-184 84 -351 84q-272 0 -436 -234q-73 -106 -115.5 -241.5t-42.5 -264.5q0 -212 108 -330t302 -118q129 0 248 41l69 440h-270l23 135h432l-109 -686q-207 -65 -411 -65q-293 0 -439 180 q-127 154 -127 393zM803 1700q0 44 30 73t76 29q47 0 77 -29.5t30 -76.5t-30 -77t-77 -30t-76.5 31t-29.5 80z" />
<glyph unicode="&#x121;" horiz-adv-x="1153" d="M18 -340l78 115q140 -111 295 -111q183 0 275 156q47 84 77 276l13 78q-65 -83 -133 -119.5t-162 -36.5q-166 0 -260.5 111.5t-94.5 306.5q0 242 130 426q137 197 339 197q98 0 178 -47.5t121 -130.5l29 157h154q-48 -249 -74 -409l-86 -549q-26 -168 -52 -246t-77 -141 q-126 -154 -365 -154q-201 0 -385 121zM270 430q0 -136 60.5 -211.5t169.5 -75.5q76 0 141 44.5t141 146.5l62 399q-68 201 -244 201q-76 0 -135.5 -42.5t-110.5 -133.5q-84 -152 -84 -328zM602 1352q0 44 30.5 73t76.5 29q47 0 76.5 -29.5t29.5 -76.5t-29.5 -77t-76.5 -30 t-77 31t-30 80z" />
<glyph unicode="&#x122;" horiz-adv-x="1378" d="M141 553q0 161 49 315.5t138 276.5q213 293 571 293q206 0 410 -86l-49 -133q-184 84 -351 84q-272 0 -436 -234q-73 -106 -115.5 -241.5t-42.5 -264.5q0 -212 108 -330t302 -118q129 0 248 41l69 440h-270l23 135h432l-109 -686q-207 -65 -411 -65q-293 0 -439 180 q-127 154 -127 393zM373 -371l282 301h185l-316 -301h-151z" />
<glyph unicode="&#x123;" horiz-adv-x="1153" d="M18 -340l78 115q140 -111 295 -111q183 0 275 156q47 84 77 276l13 78q-65 -83 -133 -119.5t-162 -36.5q-166 0 -260.5 111.5t-94.5 306.5q0 242 130 426q137 197 339 197q98 0 178 -47.5t121 -130.5l29 157h154q-48 -249 -74 -409l-86 -549q-26 -168 -52 -246t-77 -141 q-126 -154 -365 -154q-201 0 -385 121zM270 430q0 -136 60.5 -211.5t169.5 -75.5q76 0 141 44.5t141 146.5l62 399q-68 201 -244 201q-76 0 -135.5 -42.5t-110.5 -133.5q-84 -152 -84 -328zM532 1196l316 301h151l-282 -301h-185z" />
<glyph unicode="&#x124;" horiz-adv-x="1378" d="M115 0l225 1417h162l-99 -624h658l98 624h164l-225 -1417h-162l102 657h-655l-104 -657h-164zM565 1546l246 299h186l152 -299h-143l-111 199l-174 -199h-156z" />
<glyph unicode="&#x125;" horiz-adv-x="1189" d="M106 0l238 1497h156l-97 -604q94 86 180.5 126t180.5 40q128 0 203 -71.5t75 -192.5q0 -77 -18 -191l-96 -604h-156l98 625q15 82 15 143q0 80 -43.5 123t-122.5 43q-83 0 -175.5 -53t-164.5 -142l-117 -739h-156zM141 1546l246 299h186l152 -299h-143l-111 199 l-174 -199h-156z" />
<glyph unicode="&#x126;" horiz-adv-x="1378" d="M115 0l164 1032h-140l21 125h137l43 260h162l-41 -260h657l41 260h164l-41 -260h137l-18 -125h-139l-164 -1032h-162l104 657h-657l-104 -657h-164zM403 793h658l37 239h-656z" />
<glyph unicode="&#x127;" horiz-adv-x="1189" d="M106 0l195 1233h-137l18 119h140l22 145h156l-23 -145h287l-19 -119h-288l-54 -340q94 86 180.5 126t180.5 40q128 0 203 -71.5t75 -192.5q0 -77 -18 -191l-96 -604h-156l98 625q15 89 15 141q0 81 -43 124.5t-123 43.5q-83 0 -175.5 -53t-164.5 -142l-117 -739h-156z " />
<glyph unicode="&#x12a;" horiz-adv-x="532" d="M102 0l226 1417h161l-223 -1417h-164zM156 1624l20 125h582l-21 -125h-581z" />
<glyph unicode="&#x12b;" horiz-adv-x="536" d="M98 1282l19 119h581l-18 -119h-582zM109 0l163 1038h156l-164 -1038h-155z" />
<glyph unicode="&#x12d;" horiz-adv-x="536" d="M109 0l163 1038h156l-164 -1038h-155zM123 1450q0 27 4 47h135v-31q0 -78 33 -119.5t96 -41.5q69 0 117.5 49t71.5 143h139q-13 -70 -31 -112.5t-49 -77.5q-94 -113 -248 -113q-123 0 -195.5 69.5t-72.5 186.5z" />
<glyph unicode="&#x12e;" horiz-adv-x="532" d="M-135 -283q0 173 301 283h-64l224 1417h163l-225 -1417q-107 -64 -151 -98q-105 -82 -105 -164q0 -34 24 -55t64 -21q32 0 103 16v-98q-88 -26 -136 -26q-89 0 -143.5 45t-54.5 118z" />
<glyph unicode="&#x12f;" horiz-adv-x="536" d="M-137 -283q0 173 301 283h-58l166 1038h156l-166 -1038q-118 -70 -151 -98q-105 -82 -105 -164q0 -34 25 -55t63 -21q32 0 103 16v-98q-88 -26 -136 -26q-89 0 -143.5 45t-54.5 118zM297 1409q0 46 32 77.5t79 31.5q49 0 79.5 -30.5t30.5 -80.5t-30.5 -80.5t-79.5 -30.5 q-50 0 -80.5 31t-30.5 82z" />
<glyph unicode="&#x130;" horiz-adv-x="532" d="M102 0l226 1417h161l-223 -1417h-164zM352 1700q0 44 30.5 73t76.5 29q47 0 76.5 -29.5t29.5 -76.5t-29.5 -77t-76.5 -30t-77 31t-30 80z" />
<glyph unicode="&#x131;" horiz-adv-x="536" d="M109 0l163 1038h156l-164 -1038h-155z" />
<glyph unicode="&#x134;" horiz-adv-x="741" d="M-82 27l37 137q83 -49 180 -49q132 0 187 92q22 37 38.5 105t42.5 223l140 882h164l-158 -991q-25 -155 -51.5 -229t-75.5 -121q-92 -96 -272 -96q-136 0 -232 47zM330 1546l245 299h187l151 -299h-143l-111 199l-174 -199h-155z" />
<glyph unicode="&#x135;" horiz-adv-x="536" d="M-207 -436l29 121q53 -21 92 -21q71 0 112 49.5t56 153.5l186 1171h156l-170 -1077q-22 -132 -39.5 -197.5t-42.5 -103.5q-78 -121 -244 -121q-67 0 -135 25zM66 1198l245 299h187l151 -299h-143l-111 199l-174 -199h-155z" />
<glyph unicode="&#x136;" horiz-adv-x="1187" d="M117 0l225 1417h162l-105 -672l678 672h191l-684 -684l481 -733h-193l-477 725l-114 -725h-164zM246 -371l282 301h185l-316 -301h-151z" />
<glyph unicode="&#x137;" horiz-adv-x="999" d="M113 0l237 1497h156l-141 -895l473 436h198l-522 -475l369 -563h-187l-344 530l-84 -530h-155zM141 -371l283 301h184l-315 -301h-152z" />
<glyph unicode="&#x139;" horiz-adv-x="970" d="M111 0l225 1417h162l-203 -1282h596l-21 -135h-759zM381 1546l289 299h211l-338 -299h-162z" />
<glyph unicode="&#x13a;" horiz-adv-x="536" d="M109 0l237 1497h156l-238 -1497h-155zM326 1546l288 299h211l-338 -299h-161z" />
<glyph unicode="&#x13b;" horiz-adv-x="970" d="M111 0l225 1417h162l-203 -1282h596l-21 -135h-759zM172 -371l283 301h184l-315 -301h-152z" />
<glyph unicode="&#x13c;" horiz-adv-x="536" d="M-170 -371l283 301h184l-315 -301h-152zM109 0l235 1497h156l-236 -1497h-155z" />
<glyph unicode="&#x13d;" horiz-adv-x="970" d="M111 0l225 1417h162l-203 -1282h596l-21 -135h-759zM565 1038l211 459h180l-247 -459h-144z" />
<glyph unicode="&#x13e;" horiz-adv-x="655" d="M109 0l237 1497h156l-238 -1497h-155zM541 1038l211 459h180l-248 -459h-143z" />
<glyph unicode="&#x141;" horiz-adv-x="997" d="M39 516l20 133l185 113l102 655h164l-86 -543l246 152l-23 -133l-244 -152l-96 -606h596l-22 -135h-758l98 629z" />
<glyph unicode="&#x142;" horiz-adv-x="557" d="M41 547l20 133l187 135l108 682h156l-90 -567l186 135l-20 -135l-187 -133l-127 -797h-155l108 680z" />
<glyph unicode="&#x143;" horiz-adv-x="1413" d="M115 0l225 1417h182l387 -903q47 -109 107 -274q11 90 14 106l10 78q1 9 6 36t7 42l143 915h162l-225 -1417h-185l-389 911q-53 123 -102 260q-3 -28 -8.5 -58t-8.5 -50l-8 -66l-10 -67l-148 -930h-159zM766 1546l289 299h211l-338 -299h-162z" />
<glyph unicode="&#x144;" horiz-adv-x="1189" d="M106 0l111 702q39 252 45 336h154l-19 -151q98 91 185 131.5t182 40.5q128 0 203 -71.5t75 -192.5q0 -54 -18 -191l-96 -604h-156l98 625q15 92 15 141q0 79 -42.5 123.5t-119.5 44.5q-85 0 -177 -52t-167 -143l-117 -739h-156zM571 1198l289 299h211l-338 -299h-162z " />
<glyph unicode="&#x145;" horiz-adv-x="1413" d="M115 0l225 1417h182l387 -903q47 -109 107 -274q11 90 14 106l10 78q1 9 6 36t7 42l143 915h162l-225 -1417h-185l-389 911q-53 123 -102 260q-3 -28 -8.5 -58t-8.5 -50l-8 -66l-10 -67l-148 -930h-159zM344 -371l283 301h184l-315 -301h-152z" />
<glyph unicode="&#x146;" horiz-adv-x="1189" d="M106 0l111 702q39 252 45 336h154l-19 -151q98 91 185 131.5t182 40.5q128 0 203 -71.5t75 -192.5q0 -54 -18 -191l-96 -604h-156l98 625q15 92 15 141q0 79 -42.5 123.5t-119.5 44.5q-85 0 -177 -52t-167 -143l-117 -739h-156zM197 -371l282 301h185l-316 -301h-151z " />
<glyph unicode="&#x147;" horiz-adv-x="1413" d="M115 0l225 1417h182l387 -903q47 -109 107 -274q11 90 14 106l10 78q1 9 6 36t7 42l143 915h162l-225 -1417h-185l-389 911q-53 123 -102 260q-3 -28 -8.5 -58t-8.5 -50l-8 -66l-10 -67l-148 -930h-159zM631 1858h143l111 -199l174 199h155l-245 -299h-187z" />
<glyph unicode="&#x148;" horiz-adv-x="1189" d="M106 0l111 702q39 252 45 336h154l-19 -151q98 91 185 131.5t182 40.5q128 0 203 -71.5t75 -192.5q0 -54 -18 -191l-96 -604h-156l98 625q15 92 15 141q0 79 -42.5 123.5t-119.5 44.5q-85 0 -177 -52t-167 -143l-117 -739h-156zM471 1497h143l113 -199l174 199h154 l-246 -299h-186z" />
<glyph unicode="&#x14c;" horiz-adv-x="1474" d="M145 582q0 148 48.5 298t136.5 275q200 283 528 283q298 0 432 -211q101 -167 101 -383q0 -154 -48.5 -306.5t-136.5 -275.5q-102 -144 -232 -213t-298 -69q-293 0 -426 204q-105 161 -105 398zM319 553q0 -207 95.5 -322.5t265.5 -115.5q246 0 397 235q64 100 102 240 t38 280q0 201 -97 317t-264 116q-247 0 -395 -236q-63 -97 -102.5 -239.5t-39.5 -274.5zM627 1624l20 125h582l-21 -125h-581z" />
<glyph unicode="&#x14d;" horiz-adv-x="1157" d="M102 424q0 113 36 225t100 199q75 103 178.5 157t226.5 54q186 0 299 -119t113 -317q0 -180 -70.5 -327.5t-194.5 -231.5t-274 -84q-190 0 -302 120t-112 324zM266 416q0 -147 67 -229.5t187 -82.5q155 0 263 152.5t108 370.5q0 143 -67.5 225t-184.5 82 q-89 0 -164.5 -50.5t-128.5 -144.5q-37 -68 -58.5 -154.5t-21.5 -168.5zM391 1282l19 119h581l-18 -119h-582z" />
<glyph unicode="&#x150;" horiz-adv-x="1474" d="M145 582q0 148 48.5 298t136.5 275q200 283 528 283q298 0 432 -211q101 -167 101 -383q0 -154 -48.5 -306.5t-136.5 -275.5q-102 -144 -232 -213t-298 -69q-293 0 -426 204q-105 161 -105 398zM319 553q0 -207 95.5 -322.5t265.5 -115.5q246 0 397 235q64 100 102 240 t38 280q0 201 -97 317t-264 116q-247 0 -395 -236q-63 -97 -102.5 -239.5t-39.5 -274.5zM659 1546l250 299h189l-297 -299h-142zM971 1546l250 299h188l-297 -299h-141z" />
<glyph unicode="&#x151;" horiz-adv-x="1157" d="M102 424q0 113 36 225t100 199q75 103 178.5 157t226.5 54q186 0 299 -119t113 -317q0 -180 -70.5 -327.5t-194.5 -231.5t-274 -84q-190 0 -302 120t-112 324zM266 416q0 -147 67 -229.5t187 -82.5q155 0 263 152.5t108 370.5q0 143 -67.5 225t-184.5 82 q-89 0 -164.5 -50.5t-128.5 -144.5q-37 -68 -58.5 -154.5t-21.5 -168.5zM440 1198l250 299h189l-297 -299h-142zM752 1198l249 299h189l-297 -299h-141z" />
<glyph unicode="&#x152;" horiz-adv-x="1904" d="M152 569q0 177 57 342.5t158 280.5q149 172 368 213q64 12 258 12h881l-21 -135h-567l-78 -496h539l-23 -135h-538l-82 -516h596l-21 -135h-899q-124 0 -184.5 6t-114.5 25q-157 51 -243 192.5t-86 345.5zM326 563q0 -281 178 -375q57 -29 126.5 -41t188.5 -12h123 l180 1147h-121q-141 0 -210.5 -10.5t-133.5 -42.5q-146 -72 -238.5 -259t-92.5 -407z" />
<glyph unicode="&#x153;" horiz-adv-x="1822" d="M102 414q0 182 71.5 330t197.5 231.5t280 83.5q246 0 359 -201q71 103 159 152t203 49q175 0 266 -99.5t91 -291.5q0 -80 -19 -191h-686q-2 -33 -2 -80q0 -142 65.5 -217.5t190.5 -75.5q142 0 293 101l39 -123q-165 -102 -340 -102q-266 0 -369 204q-85 -106 -179.5 -155 t-213.5 -49q-183 0 -294.5 119t-111.5 315zM266 414q0 -145 65.5 -227.5t182.5 -82.5q103 0 189.5 69.5t137 190t50.5 263.5t-65.5 225t-180.5 82q-103 0 -190 -69t-138 -189t-51 -262zM1049 602h516q6 59 6 88q0 118 -54 181t-155 63q-118 0 -201.5 -89t-111.5 -243z" />
<glyph unicode="&#x154;" horiz-adv-x="1101" d="M113 0l225 1417h260q242 0 354.5 -80t112.5 -252q0 -193 -131 -303q-44 -36 -89.5 -55.5t-129.5 -38.5q55 -23 83 -49t48.5 -76.5t44.5 -154.5l96 -408h-172l-82 365q-25 111 -57.5 165.5t-87 76.5t-156.5 22h-55l-101 -629h-163zM397 764h72q209 0 309 70 q54 38 83.5 101.5t29.5 141.5q0 112 -72 158.5t-246 46.5h-94zM578 1546l288 299h211l-338 -299h-161z" />
<glyph unicode="&#x155;" horiz-adv-x="718" d="M102 0l95 592q28 184 63 446h152l-19 -153q116 174 275 174q44 0 88 -12l-23 -138q-40 11 -74 11q-170 0 -290 -215l-111 -705h-156zM395 1198l289 299h211l-338 -299h-162z" />
<glyph unicode="&#x156;" horiz-adv-x="1101" d="M113 0l225 1417h260q242 0 354.5 -80t112.5 -252q0 -193 -131 -303q-44 -36 -89.5 -55.5t-129.5 -38.5q55 -23 83 -49t48.5 -76.5t44.5 -154.5l96 -408h-172l-82 365q-25 111 -57.5 165.5t-87 76.5t-156.5 22h-55l-101 -629h-163zM211 -371l283 301h184l-316 -301h-151z M397 764h72q209 0 309 70q54 38 83.5 101.5t29.5 141.5q0 112 -72 158.5t-246 46.5h-94z" />
<glyph unicode="&#x157;" horiz-adv-x="718" d="M-158 -371l283 301h184l-315 -301h-152zM102 0l95 592q21 126 63 446h154l-21 -153q116 174 277 174q42 0 86 -12l-23 -138q-40 11 -74 11q-168 0 -288 -215l-113 -705h-156z" />
<glyph unicode="&#x158;" horiz-adv-x="1101" d="M113 0l225 1417h260q242 0 354.5 -80t112.5 -252q0 -193 -131 -303q-44 -36 -89.5 -55.5t-129.5 -38.5q55 -23 83 -49t48.5 -76.5t44.5 -154.5l96 -408h-172l-82 365q-25 111 -57.5 165.5t-87 76.5t-156.5 22h-55l-101 -629h-163zM397 764h72q209 0 309 70 q54 38 83.5 101.5t29.5 141.5q0 112 -72 158.5t-246 46.5h-94zM461 1858h143l111 -199l174 199h155l-245 -299h-187z" />
<glyph unicode="&#x159;" horiz-adv-x="718" d="M102 0l95 592q28 184 63 446h152l-19 -153q116 174 275 174q44 0 88 -12l-23 -138q-40 11 -74 11q-170 0 -290 -215l-111 -705h-156zM270 1497h144l112 -199l174 199h154l-246 -299h-186z" />
<glyph unicode="&#x15a;" horiz-adv-x="1064" d="M63 47l43 146q178 -78 328 -78q140 0 231 85.5t91 215.5q0 82 -46.5 133t-193.5 127q-109 57 -158 89.5t-84 70.5q-71 77 -71 194q0 181 132 294.5t343 113.5q163 0 338 -68l-53 -141q-145 74 -283 74q-131 0 -217 -72t-86 -182q0 -76 48 -127.5t179 -114.5 q109 -52 160 -85.5t88 -74.5q78 -87 78 -217q0 -198 -142.5 -324t-365.5 -126q-177 0 -359 67zM559 1546l289 299h211l-338 -299h-162z" />
<glyph unicode="&#x15b;" horiz-adv-x="862" d="M35 51l65 125q128 -72 234 -72q95 0 161 57t66 140q0 61 -33.5 94t-146.5 80q-124 54 -177.5 117.5t-53.5 157.5q0 140 101 224.5t269 84.5q150 0 289 -78l-66 -123q-103 76 -223 76q-95 0 -153 -48.5t-58 -127.5q0 -54 31 -85t131 -75q138 -60 194 -124t56 -161 q0 -146 -109.5 -239.5t-279.5 -93.5q-158 0 -297 71zM393 1198l289 299h211l-338 -299h-162z" />
<glyph unicode="&#x15c;" horiz-adv-x="1064" d="M63 47l43 146q178 -78 328 -78q140 0 231 85.5t91 215.5q0 82 -46.5 133t-193.5 127q-109 57 -158 89.5t-84 70.5q-71 77 -71 194q0 181 132 294.5t343 113.5q163 0 338 -68l-53 -141q-145 74 -283 74q-131 0 -217 -72t-86 -182q0 -76 48 -127.5t179 -114.5 q109 -52 160 -85.5t88 -74.5q78 -87 78 -217q0 -198 -142.5 -324t-365.5 -126q-177 0 -359 67zM410 1546l245 299h187l151 -299h-143l-111 199l-174 -199h-155z" />
<glyph unicode="&#x15d;" horiz-adv-x="862" d="M35 51l65 125q128 -72 234 -72q95 0 161 57t66 140q0 61 -33.5 94t-146.5 80q-124 54 -177.5 117.5t-53.5 157.5q0 140 101 224.5t269 84.5q150 0 289 -78l-66 -123q-103 76 -223 76q-95 0 -153 -48.5t-58 -127.5q0 -54 31 -85t131 -75q138 -60 194 -124t56 -161 q0 -146 -109.5 -239.5t-279.5 -93.5q-158 0 -297 71zM246 1198l246 299h186l151 -299h-143l-111 199l-174 -199h-155z" />
<glyph unicode="&#x15e;" horiz-adv-x="1064" d="M63 47l43 146q178 -78 328 -78q140 0 231 85.5t91 215.5q0 82 -46.5 133t-193.5 127q-109 57 -158 89.5t-84 70.5q-71 77 -71 194q0 181 132 294.5t343 113.5q163 0 338 -68l-53 -141q-145 74 -283 74q-131 0 -217 -72t-86 -182q0 -76 48 -127.5t179 -114.5 q109 -52 160 -85.5t88 -74.5q78 -87 78 -217q0 -198 -142.5 -324t-365.5 -126q-177 0 -359 67zM104 -371l283 301h184l-315 -301h-152z" />
<glyph unicode="&#x15f;" horiz-adv-x="862" d="M35 51l65 125q128 -72 234 -72q95 0 161 57t66 140q0 61 -33.5 94t-146.5 80q-124 54 -177.5 117.5t-53.5 157.5q0 140 101 224.5t269 84.5q150 0 289 -78l-66 -123q-103 76 -223 76q-95 0 -153 -48.5t-58 -127.5q0 -54 31 -85t131 -75q138 -60 194 -124t56 -161 q0 -146 -109.5 -239.5t-279.5 -93.5q-158 0 -297 71zM39 -371l283 301h184l-316 -301h-151z" />
<glyph unicode="&#x160;" horiz-adv-x="1064" d="M63 47l43 146q178 -78 328 -78q140 0 231 85.5t91 215.5q0 82 -46.5 133t-193.5 127q-109 57 -158 89.5t-84 70.5q-71 77 -71 194q0 181 132 294.5t343 113.5q163 0 338 -68l-53 -141q-145 74 -283 74q-131 0 -217 -72t-86 -182q0 -76 48 -127.5t179 -114.5 q109 -52 160 -85.5t88 -74.5q78 -87 78 -217q0 -198 -142.5 -324t-365.5 -126q-177 0 -359 67zM459 1858h143l111 -199l174 199h155l-245 -299h-187z" />
<glyph unicode="&#x161;" horiz-adv-x="862" d="M35 51l65 125q128 -72 234 -72q95 0 161 57t66 140q0 61 -33.5 94t-146.5 80q-124 54 -177.5 117.5t-53.5 157.5q0 140 101 224.5t269 84.5q150 0 289 -78l-66 -123q-103 76 -223 76q-95 0 -153 -48.5t-58 -127.5q0 -54 31 -85t131 -75q138 -60 194 -124t56 -161 q0 -146 -109.5 -239.5t-279.5 -93.5q-158 0 -297 71zM295 1497h143l113 -199l174 199h154l-246 -299h-187z" />
<glyph unicode="&#x163;" horiz-adv-x="684" d="M39 -371l283 301h184l-316 -301h-151zM115 913l18 125h164l33 207l162 33l-39 -240h237l-18 -125h-240l-90 -567q-12 -82 -12 -127q0 -115 102 -115q65 0 143 37l-4 -127q-78 -34 -174 -34q-225 0 -225 208q0 65 14 150l90 575h-161z" />
<glyph unicode="&#x164;" horiz-adv-x="1054" d="M162 1282l20 135h973l-20 -135h-408l-203 -1282h-164l203 1282h-401zM453 1858h143l111 -199l174 199h155l-245 -299h-187z" />
<glyph unicode="&#x165;" horiz-adv-x="747" d="M115 913l20 125h162l33 207l162 33l-39 -240h237l-18 -125h-238l-90 -567q-14 -86 -14 -127q0 -115 102 -115q65 0 143 37l-4 -127q-78 -34 -172 -34q-227 0 -227 208q0 58 14 150l93 575h-164zM670 1128l211 459h180l-250 -459h-141z" />
<glyph unicode="&#x16a;" horiz-adv-x="1361" d="M172 332q0 98 33 317l123 768h164l-138 -860q-18 -120 -18 -190q0 -128 69 -190t211 -62q217 0 320 145q33 49 54 125t48 240l125 792h156l-129 -813q-34 -217 -63.5 -305.5t-90.5 -157.5q-142 -161 -422 -161q-207 0 -324.5 94t-117.5 258zM553 1624l20 125h582 l-20 -125h-582z" />
<glyph unicode="&#x16b;" horiz-adv-x="1177" d="M145 250q0 52 15 139l102 649h156l-99 -626q-18 -111 -18 -162q0 -69 42.5 -107.5t117.5 -38.5q78 0 169 50.5t167 136.5l118 747h156l-110 -700q-41 -273 -46 -338h-143l19 152q-109 -95 -192 -133.5t-181 -38.5q-127 0 -200 72t-73 198zM408 1282l18 119h582l-19 -119 h-581z" />
<glyph unicode="&#x16d;" horiz-adv-x="1177" d="M145 250q0 52 15 139l102 649h156l-99 -626q-18 -111 -18 -162q0 -69 42.5 -107.5t117.5 -38.5q78 0 169 50.5t167 136.5l118 747h156l-110 -700q-41 -273 -46 -338h-143l19 152q-109 -95 -192 -133.5t-181 -38.5q-127 0 -200 72t-73 198zM432 1450q0 27 4 47h135v-31 q0 -78 33 -119.5t96 -41.5q69 0 117.5 49t71.5 143h139q-13 -70 -31 -112.5t-49 -77.5q-94 -113 -248 -113q-123 0 -195.5 69.5t-72.5 186.5z" />
<glyph unicode="&#x16e;" horiz-adv-x="1361" d="M172 332q0 98 33 317l123 768h164l-138 -860q-18 -120 -18 -190q0 -128 69 -190t211 -62q217 0 320 145q33 49 54 125t48 240l125 792h156l-129 -813q-34 -217 -63.5 -305.5t-90.5 -157.5q-142 -161 -422 -161q-207 0 -324.5 94t-117.5 258zM639 1599q0 85 59.5 144 t145.5 59t145.5 -59.5t59.5 -145.5t-59.5 -145t-145.5 -59q-88 0 -146.5 59t-58.5 147zM725 1599q0 -55 33 -89.5t86 -34.5q51 0 84 34t33 88t-33 88.5t-84 34.5t-85 -34.5t-34 -86.5z" />
<glyph unicode="&#x16f;" horiz-adv-x="1177" d="M145 250q0 52 15 139l102 649h156l-99 -626q-18 -111 -18 -162q0 -69 42.5 -107.5t117.5 -38.5q78 0 169 50.5t167 136.5l118 747h156l-110 -700q-41 -273 -46 -338h-143l19 152q-109 -95 -192 -133.5t-181 -38.5q-127 0 -200 72t-73 198zM500 1364q0 85 59.5 144 t145.5 59t145 -59.5t59 -145.5t-59 -145.5t-145 -59.5q-88 0 -146.5 59.5t-58.5 147.5zM586 1364q0 -55 33 -90t86 -35q51 0 83.5 34.5t32.5 88.5t-32.5 88.5t-83.5 34.5t-85 -34.5t-34 -86.5z" />
<glyph unicode="&#x170;" horiz-adv-x="1361" d="M172 332q0 98 33 317l123 768h164l-138 -860q-18 -120 -18 -190q0 -128 69 -190t211 -62q217 0 320 145q33 49 54 125t48 240l125 792h156l-129 -813q-34 -217 -63.5 -305.5t-90.5 -157.5q-142 -161 -422 -161q-207 0 -324.5 94t-117.5 258zM582 1546l249 299h189 l-297 -299h-141zM893 1546l250 299h188l-297 -299h-141z" />
<glyph unicode="&#x171;" horiz-adv-x="1177" d="M145 250q0 52 15 139l102 649h156l-99 -626q-18 -111 -18 -162q0 -69 42.5 -107.5t117.5 -38.5q78 0 169 50.5t167 136.5l118 747h156l-110 -700q-41 -273 -46 -338h-143l19 152q-109 -95 -192 -133.5t-181 -38.5q-127 0 -200 72t-73 198zM422 1198l250 299h188 l-297 -299h-141zM733 1198l250 299h188l-297 -299h-141z" />
<glyph unicode="&#x172;" horiz-adv-x="1361" d="M172 332q0 107 33 317l123 768h161l-135 -860q-18 -108 -18 -190q0 -128 69 -190t211 -62q218 0 318 145q35 49 56 124.5t48 240.5l125 792h156l-129 -813q-34 -213 -63 -301t-91 -162q-112 -124 -293 -151q-101 -61 -133 -88q-104 -82 -104 -164q0 -34 24 -55t64 -21 q31 0 102 16v-98q-86 -26 -135 -26q-89 0 -144 45t-55 118q0 159 248 263q-207 1 -322.5 94.5t-115.5 257.5z" />
<glyph unicode="&#x173;" horiz-adv-x="1177" d="M145 250q0 46 13 139l104 649h156l-101 -626q-16 -98 -16 -162q0 -69 42.5 -107.5t117.5 -38.5q78 0 168 50t168 137l118 747h156l-110 -700q-32 -193 -48 -338q-112 -67 -151 -98q-105 -80 -105 -164q0 -34 25 -55t63 -21q32 0 103 16v-98q-88 -26 -137 -26 q-89 0 -143 44t-54 117q0 89 74 159t227 126h-45l21 152q-110 -96 -192 -134t-181 -38q-127 0 -200 72t-73 198z" />
<glyph unicode="&#x174;" horiz-adv-x="1759" d="M233 1417h168l48 -956q6 -191 6 -293q39 123 104 293l359 956h204l64 -950q10 -159 10 -289q26 83 100 283l353 956h161l-534 -1417h-211l-61 946q-11 187 -11 295q-37 -111 -106 -295l-361 -946h-209zM748 1546l245 299h187l151 -299h-143l-111 199l-174 -199h-155z" />
<glyph unicode="&#x176;" horiz-adv-x="1146" d="M154 1417h182l203 -450l34 -74q5 -13 17 -40t26 -60q0 1 121 163l355 461h186l-604 -778l-101 -639h-163l100 639zM440 1546l246 299h186l152 -299h-143l-111 199l-174 -199h-156z" />
<glyph unicode="&#x177;" horiz-adv-x="1001" d="M-117 -432l45 125q62 -29 107 -29q86 0 153.5 72t155.5 258l-229 1044h161l130 -612q35 -167 47 -238l102 207l338 643h151l-587 -1126q-115 -221 -198.5 -297t-211.5 -76q-84 0 -164 29zM315 1198l246 299h187l151 -299h-143l-111 199l-174 -199h-156z" />
<glyph unicode="&#x178;" horiz-adv-x="1146" d="M154 1417h182l203 -450l34 -74q5 -13 17 -40t26 -60q0 1 121 163l355 461h186l-604 -778l-101 -639h-163l100 639zM451 1700q0 44 30 73t76 29q47 0 77 -29.5t30 -76.5t-30 -77t-77 -30t-76.5 31t-29.5 80zM827 1700q0 44 30.5 73t76.5 29q47 0 76.5 -29.5t29.5 -76.5 t-29.5 -77t-76.5 -30t-77 31t-30 80z" />
<glyph unicode="&#x179;" horiz-adv-x="1124" d="M0 0l20 135l914 1147h-707l21 135h903l-23 -135l-909 -1147h729l-22 -135h-926zM588 1546l289 299h210l-337 -299h-162z" />
<glyph unicode="&#x17a;" horiz-adv-x="909" d="M-4 0l18 117l680 796h-528l20 125h723l-20 -125l-676 -788h551l-21 -125h-747zM436 1198l289 299h211l-338 -299h-162z" />
<glyph unicode="&#x17b;" horiz-adv-x="1124" d="M0 0l20 135l914 1147h-707l21 135h903l-23 -135l-909 -1147h729l-22 -135h-926zM647 1700q0 44 30.5 73t76.5 29q47 0 76.5 -29.5t29.5 -76.5t-29.5 -77t-76.5 -30t-77 31t-30 80z" />
<glyph unicode="&#x17c;" horiz-adv-x="909" d="M-4 0l18 117l680 796h-528l20 125h723l-20 -125l-676 -788h551l-21 -125h-747zM479 1352q0 44 30.5 73t76.5 29q47 0 76.5 -29.5t29.5 -76.5t-29.5 -77t-76.5 -30t-77 31t-30 80z" />
<glyph unicode="&#x17d;" horiz-adv-x="1124" d="M0 0l20 135l914 1147h-707l21 135h903l-23 -135l-909 -1147h729l-22 -135h-926zM473 1858h143l111 -199l174 199h156l-246 -299h-186z" />
<glyph unicode="&#x17e;" horiz-adv-x="909" d="M-4 0l18 117l680 796h-528l20 125h723l-20 -125l-676 -788h551l-21 -125h-747zM317 1497h144l112 -199l175 199h153l-246 -299h-186z" />
<glyph unicode="&#x192;" d="M115 -240l20 125q65 -24 115 -24q69 0 111.5 35.5t68.5 115.5q20 75 47 250l64 410h-191v121h211l37 229q26 167 63.5 254.5t99.5 124.5t169 37q75 0 174 -21l-21 -129q-70 25 -129 25q-90 0 -135 -69.5t-76 -256.5l-30 -194h270v-121h-289l-82 -516q-24 -145 -41.5 -210 t-44.5 -106q-71 -104 -235 -104q-77 0 -176 24z" />
<glyph unicode="&#x1cd;" horiz-adv-x="1275" d="M-41 0l713 1417h205l268 -1417h-166l-90 496h-508l-248 -496h-174zM449 631h413l-63 373q-33 198 -41 266q-50 -112 -53 -119q-19 -42 -72 -147zM555 1858h143l111 -199l174 199h156l-246 -299h-186z" />
<glyph unicode="&#x1ce;" horiz-adv-x="1148" d="M102 403q0 127 37 249t103 216q135 191 342 191q196 0 288 -164l27 143h152q0 -3 -3.5 -22t-12.5 -64.5t-17 -91.5q-6 -38 -19.5 -118.5t-19.5 -120.5l-47 -289q-25 -160 -43 -332h-148l19 145q-76 -90 -148 -127.5t-166 -37.5q-160 0 -252 112.5t-92 310.5zM266 395 q0 -133 57 -212t154 -79q157 0 295 197l70 438q-62 195 -238 195q-158 0 -260 -193q-78 -150 -78 -346zM418 1497h143l113 -199l174 199h153l-245 -299h-187z" />
<glyph unicode="&#x1d3;" horiz-adv-x="1361" d="M172 332q0 98 33 317l123 768h164l-138 -860q-18 -120 -18 -190q0 -128 69 -190t211 -62q217 0 320 145q33 49 54 125t48 240l125 792h156l-129 -813q-34 -217 -63.5 -305.5t-90.5 -157.5q-142 -161 -422 -161q-207 0 -324.5 94t-117.5 258zM596 1858h143l111 -199 l174 199h156l-246 -299h-186z" />
<glyph unicode="&#x1e6;" horiz-adv-x="1378" d="M141 553q0 161 49 315.5t138 276.5q213 293 571 293q206 0 410 -86l-49 -133q-184 84 -351 84q-272 0 -436 -234q-73 -106 -115.5 -241.5t-42.5 -264.5q0 -212 108 -330t302 -118q129 0 248 41l69 440h-270l23 135h432l-109 -686q-207 -65 -411 -65q-293 0 -439 180 q-127 154 -127 393zM657 1858h144l110 -199l174 199h156l-246 -299h-186z" />
<glyph unicode="&#x1e7;" horiz-adv-x="1153" d="M18 -340l78 115q140 -111 295 -111q183 0 275 156q47 84 77 276l13 78q-65 -83 -133 -119.5t-162 -36.5q-166 0 -260.5 111.5t-94.5 306.5q0 242 130 426q137 197 339 197q98 0 178 -47.5t121 -130.5l29 157h154q-48 -249 -74 -409l-86 -549q-26 -168 -52 -246t-77 -141 q-126 -154 -365 -154q-201 0 -385 121zM270 430q0 -136 60.5 -211.5t169.5 -75.5q76 0 141 44.5t141 146.5l62 399q-68 201 -244 201q-76 0 -135.5 -42.5t-110.5 -133.5q-84 -152 -84 -328zM440 1497h144l112 -199l174 199h154l-246 -299h-186z" />
<glyph unicode="&#x1f4;" horiz-adv-x="1378" d="M141 553q0 161 49 315.5t138 276.5q213 293 571 293q206 0 410 -86l-49 -133q-184 84 -351 84q-272 0 -436 -234q-73 -106 -115.5 -241.5t-42.5 -264.5q0 -212 108 -330t302 -118q129 0 248 41l69 440h-270l23 135h432l-109 -686q-207 -65 -411 -65q-293 0 -439 180 q-127 154 -127 393zM778 1546l289 299h211l-338 -299h-162z" />
<glyph unicode="&#x219;" horiz-adv-x="862" d="M18 -371l283 301h184l-315 -301h-152zM35 51l65 125q128 -72 234 -72q95 0 161 57t66 140q0 61 -33.5 94t-146.5 80q-124 54 -177.5 117.5t-53.5 157.5q0 140 101 224.5t269 84.5q150 0 289 -78l-66 -123q-107 76 -223 76q-95 0 -153 -48.5t-58 -127.5q0 -54 31 -85 t131 -75q138 -60 194 -124t56 -161q0 -146 -109.5 -239.5t-279.5 -93.5q-158 0 -297 71z" />
<glyph unicode="&#x21a;" horiz-adv-x="1054" d="M88 -371l283 301h184l-315 -301h-152zM162 1282l20 135h973l-22 -135h-408l-203 -1282h-164l205 1282h-401z" />
<glyph unicode="&#x2c6;" horiz-adv-x="1024" d="M328 1198l245 299h187l151 -299h-143l-111 199l-174 -199h-155z" />
<glyph unicode="&#x2c7;" horiz-adv-x="1024" d="M375 1497h143l113 -199l174 199h153l-245 -299h-187z" />
<glyph unicode="&#x2d8;" horiz-adv-x="1024" d="M367 1450q0 27 4 47h135v-31q0 -78 33 -119.5t96 -41.5q140 0 188 192h140q-13 -70 -31 -112.5t-49 -77.5q-94 -113 -248 -113q-123 0 -195.5 69.5t-72.5 186.5z" />
<glyph unicode="&#x2d9;" horiz-adv-x="1024" d="M537 1352q0 44 30 73t76 29q47 0 77 -29.5t30 -76.5t-30 -77t-77 -30t-76.5 31t-29.5 80z" />
<glyph unicode="&#x2da;" horiz-adv-x="1024" d="M440 1364q0 85 59.5 144t145.5 59t145.5 -59.5t59.5 -145.5t-59.5 -145.5t-145.5 -59.5q-88 0 -146.5 59.5t-58.5 147.5zM526 1364q0 -55 33 -90t86 -35q51 0 84 34.5t33 88.5t-33 88.5t-84 34.5t-85 -34.5t-34 -86.5z" />
<glyph unicode="&#x2db;" horiz-adv-x="1024" d="M106 -285q0 89 74 159.5t228 125.5h98q-114 -68 -152 -98q-104 -82 -104 -164q0 -34 24 -55t64 -21q31 0 102 16v-98q-77 -26 -137 -26q-89 0 -143 44.5t-54 116.5z" />
<glyph unicode="&#x2dc;" horiz-adv-x="1024" d="M289 1237q25 100 78.5 154.5t126.5 54.5q71 0 180 -43q76 -31 112 -31q38 0 66 23t39 63h104q-25 -104 -77 -157.5t-127 -53.5q-66 0 -173 41q-86 33 -124 33q-59 0 -97 -84h-108z" />
<glyph unicode="&#x2dd;" horiz-adv-x="1024" d="M373 1198l250 299h188l-297 -299h-141zM684 1198l250 299h188l-297 -299h-141z" />
<glyph unicode="&#x3a9;" horiz-adv-x="1568" d="M59 0l21 135h412l14 88q-90 41 -136 72t-83 76q-117 139 -117 360q0 141 51.5 274t143.5 230q198 201 518 201q283 0 444.5 -149t161.5 -410q0 -131 -47 -253t-133 -214q-67 -71 -136.5 -111.5t-207.5 -87.5l-11 -76h412l-23 -135h-552l49 311q118 28 192.5 67t136.5 105 q146 155 146 400q0 196 -113.5 306.5t-314.5 110.5q-246 0 -394.5 -159t-148.5 -424q0 -163 77 -261t243 -145l-50 -311h-555z" />
<glyph unicode="&#x3c0;" horiz-adv-x="1177" d="M123 913l20 125h1059l-20 -125h-156l-145 -913h-156l145 913h-434l-145 -913h-156l146 913h-158z" />
<glyph unicode="&#x401;" horiz-adv-x="1107" d="M125 0l225 1417h729l-22 -135h-565l-78 -496h538l-22 -135h-539l-82 -516h596l-20 -135h-760zM451 1700q0 44 30 73t76 29q47 0 77 -29.5t30 -76.5t-30 -77t-77 -30t-76.5 31t-29.5 80zM827 1700q0 44 30.5 73t76.5 29q47 0 76.5 -29.5t29.5 -76.5t-29.5 -77t-76.5 -30 t-77 31t-30 80z" />
<glyph unicode="&#x402;" horiz-adv-x="1507" d="M150 1282l20 135h1049l-21 -135h-524l-86 -549q122 106 221 151.5t209 45.5q140 0 215.5 -69.5t75.5 -198.5q0 -87 -31 -277l-14 -102q-35 -227 -77.5 -356t-105.5 -201q-71 -80 -166 -120t-227 -46l21 131q65 7 111 20.5t85 41.5t65.5 67t50 103t40.5 143.5t35 193.5 l26 164q23 150 23 211q0 160 -164 160q-94 0 -193.5 -53t-226.5 -171l-90 -571h-164l205 1282h-362z" />
<glyph unicode="&#x403;" horiz-adv-x="1009" d="M125 0l225 1417h754l-23 -135h-589l-203 -1282h-164zM598 1546l289 299h211l-338 -299h-162z" />
<glyph unicode="&#x404;" horiz-adv-x="1177" d="M147 500q0 203 54.5 392.5t150.5 321.5q164 224 457 224q179 0 358 -84l-57 -127q-143 76 -297 76q-140 0 -229 -64t-156 -213q-51 -111 -74 -233h631l-22 -136h-631q-10 -83 -10 -153q0 -389 325 -389q156 0 336 98l49 -127q-88 -51 -197 -78.5t-214 -27.5 q-232 0 -353 132.5t-121 387.5z" />
<glyph unicode="&#x405;" horiz-adv-x="1089" d="M76 47l43 146q178 -78 330 -78q138 0 228.5 85.5t90.5 215.5q0 82 -47 133t-193 127q-108 57 -157 89t-84 71q-72 78 -72 194q0 180 132.5 294t342.5 114q163 0 338 -68l-53 -141q-145 74 -283 74q-131 0 -217 -72t-86 -182q0 -76 48 -127.5t179 -114.5 q109 -52 160 -85.5t88 -74.5q78 -87 78 -217q0 -198 -142.5 -324t-365.5 -126q-176 0 -358 67z" />
<glyph unicode="&#x406;" horiz-adv-x="557" d="M115 0l225 1417h162l-223 -1417h-164z" />
<glyph unicode="&#x407;" horiz-adv-x="557" d="M115 0l225 1417h162l-223 -1417h-164zM164 1700q0 44 30 73t76 29q47 0 77 -29.5t30 -76.5t-30 -77t-77 -30t-76.5 31t-29.5 80zM541 1700q0 44 30 73t76 29q47 0 77 -29.5t30 -76.5t-30 -77t-77 -30t-76.5 31t-29.5 80z" />
<glyph unicode="&#x408;" horiz-adv-x="765" d="M-72 27l37 137q83 -49 180 -49q136 0 187 92q23 37 40 106t42 222l139 882h164l-158 -991q-25 -155 -51.5 -229t-75.5 -121q-92 -96 -272 -96q-136 0 -232 47z" />
<glyph unicode="&#x409;" horiz-adv-x="1863" d="M-14 0l22 137q49 5 79 11t57.5 22t43 36.5t31 62t25.5 90t24 128.5l148 930h807l-84 -532h69q168 0 238.5 -11.5t130.5 -48.5q149 -93 149 -309q0 -150 -53.5 -265.5t-152.5 -178.5q-66 -41 -140.5 -56.5t-212.5 -15.5h-331l202 1282h-485l-127 -803q-20 -145 -47 -232 t-79 -143t-124 -77.5t-190 -26.5zM1020 133h106q116 0 184 14.5t115 49.5q59 43 93 125.5t34 181.5q0 178 -127 225q-27 9 -92 16t-129 7h-86z" />
<glyph unicode="&#x40a;" horiz-adv-x="1935" d="M137 0l225 1417h162l-90 -573h578l90 573h164l-90 -573h118q168 0 238 -11t129 -47q151 -89 151 -301q0 -142 -52 -249.5t-150 -165.5q-67 -40 -140 -55t-210 -15h-381l112 709h-577l-113 -709h-164zM1063 135h156q113 0 181 13.5t116 44.5q57 38 89.5 113t32.5 167 q0 169 -127 213q-27 9 -92.5 16t-130.5 7h-133z" />
<glyph unicode="&#x40b;" horiz-adv-x="1519" d="M152 1282l20 135h1049l-21 -135h-524l-86 -549q125 106 226 151.5t214 45.5q146 0 224.5 -71t78.5 -202q0 -90 -28 -272l-60 -385h-164l66 424q22 126 22 203q0 168 -176 168q-97 0 -198.5 -53t-231.5 -171l-90 -571h-164l205 1282h-362z" />
<glyph unicode="&#x40c;" horiz-adv-x="1234" d="M127 0l225 1417h162l-100 -643h143q114 0 178 78q31 37 48.5 69.5t90.5 192.5q82 177 156.5 242t196.5 65q4 0 90 -4l-29 -133q-29 2 -61 2q-42 0 -66 -7.5t-52.5 -40.5t-55 -84t-74.5 -155q-67 -145 -119 -198.5t-162 -93.5q92 -31 151.5 -97t115.5 -198l161 -412h-184 l-151 389q-73 191 -148 244q-45 29 -133 29h-115l-104 -662h-164zM696 1546l289 299h211l-338 -299h-162z" />
<glyph unicode="&#x40e;" d="M150 -6l40 133q46 -12 82 -12q60 0 100 20.5t77 69.5q14 19 55 84l-307 1128h174l168 -669q26 -100 69 -289q140 264 150 282l370 676h175l-607 -1079q-78 -143 -107 -186t-71 -82q-100 -90 -250 -90q-63 0 -118 14zM483 1759q0 27 4 58h136v-33q0 -76 33.5 -118 t95.5 -42q69 0 117 49.5t71 143.5h137q-15 -74 -33.5 -117t-50.5 -80q-98 -107 -243 -107q-120 0 -193.5 68t-73.5 178z" />
<glyph unicode="&#x40f;" horiz-adv-x="1343" d="M127 0l225 1417h162l-203 -1282h600l203 1282h164l-225 -1417h-375l-80 -344h-133l27 344h-365z" />
<glyph unicode="&#x410;" horiz-adv-x="1300" d="M-27 0l713 1417h205l268 -1417h-166l-90 496h-508l-248 -496h-174zM463 631h414l-64 373q-33 198 -41 266q-50 -112 -53 -119q-19 -42 -72 -147z" />
<glyph unicode="&#x411;" horiz-adv-x="1150" d="M125 0l225 1417h727l-20 -135h-565l-64 -397h70q168 0 238 -11.5t130 -48.5q150 -93 150 -309q0 -150 -54.5 -266t-152.5 -178q-67 -42 -140.5 -57t-211.5 -15h-332zM309 133h107q116 0 184 14.5t115 49.5q59 43 93 125.5t34 181.5q0 178 -127 225q-67 23 -221 23h-86z " />
<glyph unicode="&#x412;" horiz-adv-x="1150" d="M119 0l225 1417h193q150 0 228.5 -10.5t141.5 -38.5q75 -35 116.5 -108.5t41.5 -174.5q0 -158 -83 -247.5t-255 -118.5q152 -19 220.5 -86t68.5 -197q0 -121 -52.5 -217.5t-146.5 -150.5q-74 -42 -150.5 -55t-252.5 -13h-295zM303 133h70q140 0 207 8.5t114 32.5 q69 34 108.5 106t39.5 164q0 120 -83.5 165.5t-301.5 45.5h-70zM406 782h69q125 0 196 14t117 48q48 35 75.5 96t27.5 131q0 150 -125 191q-65 22 -211 22h-70z" />
<glyph unicode="&#x413;" horiz-adv-x="1009" d="M125 0l225 1417h754l-23 -135h-589l-203 -1282h-164z" />
<glyph unicode="&#x414;" horiz-adv-x="1296" d="M-150 -344l76 479h133q88 106 178 400t154 688l31 194h786l-202 -1282h139l-76 -479h-135l29 344h-895l-80 -344h-138zM231 135h611l182 1147h-461l-14 -92q-133 -759 -318 -1055z" />
<glyph unicode="&#x415;" horiz-adv-x="1107" d="M125 0l225 1417h729l-22 -135h-565l-78 -496h538l-22 -135h-539l-82 -516h596l-20 -135h-760z" />
<glyph unicode="&#x416;" horiz-adv-x="1720" d="M-27 0l291 453q94 135 165.5 191t178.5 79q-58 26 -88 60t-50 97t-42 195q-22 125 -55 168t-105 43q-36 0 -65 -2l14 133q43 4 80 4q138 0 199 -88q20 -28 35 -75t38 -144q37 -166 50 -211.5t36 -75.5q38 -53 144 -53h22l103 643h159l-102 -643h47q61 0 103.5 18.5 t76.5 59.5q30 38 48 72t90 190q82 177 156.5 242t197.5 65q4 0 90 -4l-29 -133q-29 2 -61 2q-42 0 -66 -7.5t-53 -40.5t-55.5 -84t-75.5 -155q-67 -145 -118.5 -198.5t-160.5 -93.5q88 -31 146 -97.5t110 -197.5l156 -412h-184l-146 389q-73 192 -141 244q-45 29 -129 29 h-20l-105 -662h-160l105 662h-41q-103 0 -173 -55.5t-173 -217.5l-246 -389h-197z" />
<glyph unicode="&#x417;" horiz-adv-x="1126" d="M29 53l55 131q190 -73 358 -73q166 0 263.5 85t97.5 232q0 132 -92.5 195t-286.5 63q-45 0 -115 -6l23 135q59 -4 123 -4q204 0 324 78.5t120 212.5q0 98 -66.5 151.5t-189.5 53.5q-149 0 -348 -80l-35 125q208 86 389 86q198 0 308 -86t110 -240q0 -138 -88 -232 t-246 -126q103 -35 146 -74q46 -40 72 -106t26 -144q0 -94 -35.5 -179.5t-99.5 -146.5q-130 -124 -381 -124q-222 0 -432 73z" />
<glyph unicode="&#x418;" horiz-adv-x="1402" d="M127 0l225 1417h162l-166 -1057l807 949l16 108h164l-225 -1417h-162l168 1065l-807 -948l-18 -117h-164z" />
<glyph unicode="&#x419;" horiz-adv-x="1402" d="M127 0l225 1417h162l-166 -1057l807 949l16 108h164l-225 -1417h-162l168 1065l-807 -948l-18 -117h-164zM596 1759q0 27 4 58h135v-33q0 -76 33.5 -118t95.5 -42q69 0 117.5 49.5t71.5 143.5h137q-15 -74 -33.5 -117t-50.5 -80q-98 -107 -244 -107q-120 0 -193 68 t-73 178z" />
<glyph unicode="&#x41a;" horiz-adv-x="1234" d="M127 0l225 1417h162l-100 -643h143q114 0 178 78q31 37 48.5 69.5t90.5 192.5q82 177 156.5 242t196.5 65q4 0 90 -4l-29 -133q-29 2 -61 2q-42 0 -66 -7.5t-52.5 -40.5t-55 -84t-74.5 -155q-67 -145 -119 -198.5t-162 -93.5q92 -31 151.5 -97t115.5 -198l161 -412h-184 l-151 389q-73 191 -148 244q-45 29 -133 29h-115l-104 -662h-164z" />
<glyph unicode="&#x41b;" horiz-adv-x="1282" d="M-43 0l23 137q49 5 79 11t57.5 22t43 36.5t31 62t25.5 90t24 128.5l147 930h827l-223 -1417h-164l203 1282h-506l-127 -803q-20 -145 -47 -232t-79 -143t-124 -77.5t-190 -26.5z" />
<glyph unicode="&#x41c;" horiz-adv-x="1769" d="M133 0l225 1417h222l202 -993q12 -59 30.5 -148.5t23.5 -117.5q9 20 25.5 53.5t46.5 93.5t53 105l516 1007h221l-225 -1417h-160l184 1165q-85 -185 -168 -346l-426 -819h-192l-176 809q-22 102 -64 356l-184 -1165h-154z" />
<glyph unicode="&#x41d;" horiz-adv-x="1402" d="M127 0l225 1417h162l-98 -624h657l98 624h164l-225 -1417h-162l103 657h-656l-104 -657h-164z" />
<glyph unicode="&#x41e;" horiz-adv-x="1499" d="M158 575q0 152 48 303t136 277q101 144 233 213.5t304 69.5q288 0 424 -211q100 -165 100 -383q0 -154 -48 -306.5t-136 -275.5q-200 -282 -529 -282q-295 0 -428 204q-49 76 -76.5 179t-27.5 212zM332 545q0 -200 96.5 -315t263.5 -115q247 0 398 235q64 99 101.5 239.5 t37.5 280.5q0 199 -96.5 316t-260.5 117q-250 0 -399 -236q-64 -100 -102.5 -242t-38.5 -280z" />
<glyph unicode="&#x41f;" horiz-adv-x="1390" d="M127 0l225 1417h971l-223 -1417h-164l203 1282h-645l-203 -1282h-164z" />
<glyph unicode="&#x420;" horiz-adv-x="1067" d="M123 0l225 1417h246q235 0 342 -65q68 -41 104.5 -115.5t36.5 -171.5q0 -123 -49.5 -224t-138.5 -161q-127 -82 -383 -82h-125l-94 -598h-164zM403 733h62q130 0 207.5 18.5t124.5 59.5q49 41 77.5 107.5t28.5 140.5q0 123 -72.5 173t-252.5 50h-89z" />
<glyph unicode="&#x421;" horiz-adv-x="1185" d="M154 586q0 348 206 598q211 254 529 254q172 0 323 -62l-43 -135q-138 62 -272 62q-265 0 -432 -248q-137 -199 -137 -473q0 -236 114 -353q50 -55 125.5 -84.5t159.5 -29.5q125 0 274 67l43 -135q-155 -67 -331 -67q-267 0 -413 158.5t-146 447.5z" />
<glyph unicode="&#x422;" horiz-adv-x="1079" d="M174 1282l21 135h972l-20 -135h-408l-202 -1282h-164l202 1282h-401z" />
<glyph unicode="&#x423;" d="M150 -6l40 133q46 -12 82 -12q60 0 100 20.5t77 69.5q14 19 55 84l-307 1128h174l168 -669q26 -100 69 -289q140 264 150 282l370 676h175l-607 -1079q-78 -143 -107 -186t-71 -82q-100 -90 -250 -90q-63 0 -118 14z" />
<glyph unicode="&#x424;" horiz-adv-x="1685" d="M164 659q0 163 78 305.5t213 225.5q178 106 436 117l27 172h153l-29 -181q258 -31 398.5 -172t140.5 -368q0 -163 -78 -305.5t-213 -225.5q-176 -105 -436 -116l-27 -172h-153l28 180q-257 31 -397.5 172t-140.5 368zM332 653q0 -173 99 -277t290 -132l149 934 q-212 -18 -342 -111q-91 -65 -143.5 -176t-52.5 -238zM874 240q210 15 343 110q91 65 143.5 176t52.5 238q0 351 -391 410z" />
<glyph unicode="&#x425;" horiz-adv-x="1284" d="M-10 0l596 737l-324 680h182l265 -555l456 555h193l-578 -702l340 -715h-182l-276 582l-476 -582h-196z" />
<glyph unicode="&#x426;" horiz-adv-x="1363" d="M129 0l225 1417h162l-203 -1282h600l203 1282h164l-203 -1282h140l-76 -479h-137l28 344h-903z" />
<glyph unicode="&#x427;" horiz-adv-x="1296" d="M209 637q0 96 29 281l79 499h164l-90 -561q-18 -113 -18 -201q0 -172 198 -172q95 0 186.5 47t192.5 148l117 739h162l-223 -1417h-164l82 522q-99 -90 -195.5 -132t-204.5 -42q-148 0 -231.5 77t-83.5 212z" />
<glyph unicode="&#x428;" horiz-adv-x="1966" d="M135 0l225 1417h162l-203 -1282h521l202 1282h164l-202 -1282h520l202 1282h164l-225 -1417h-1530z" />
<glyph unicode="&#x429;" horiz-adv-x="1986" d="M137 0l225 1417h162l-202 -1282h520l202 1282h164l-202 -1282h520l203 1282h163l-202 -1282h139l-76 -479h-137l29 344h-1508z" />
<glyph unicode="&#x42a;" horiz-adv-x="1124" d="M106 1282l21 135h393l-84 -532h70q168 0 237.5 -11.5t128.5 -48.5q150 -93 150 -309q0 -151 -53.5 -266t-153.5 -178q-66 -42 -139.5 -57t-210.5 -15h-332l203 1282h-230zM317 133h107q115 0 183.5 14.5t113.5 49.5q59 43 93 125.5t34 181.5q0 178 -125 225q-27 9 -92 16 t-129 7h-86z" />
<glyph unicode="&#x42b;" horiz-adv-x="1622" d="M131 0l225 1417h162l-84 -532h70q168 0 238 -11.5t130 -48.5q150 -93 150 -309q0 -150 -54.5 -266t-152.5 -178q-67 -42 -140.5 -57t-211.5 -15h-332zM315 133h107q116 0 184 14.5t115 49.5q59 43 93 125.5t34 181.5q0 178 -127 225q-67 23 -221 23h-86zM1163 0l226 1417 h163l-225 -1417h-164z" />
<glyph unicode="&#x42c;" horiz-adv-x="1118" d="M125 0l225 1417h162l-84 -532h70q168 0 238 -11.5t130 -48.5q150 -93 150 -309q0 -150 -54.5 -266t-152.5 -178q-67 -42 -140.5 -57t-211.5 -15h-332zM309 133h107q116 0 184 14.5t115 49.5q59 43 93 125.5t34 181.5q0 178 -127 225q-67 23 -221 23h-86z" />
<glyph unicode="&#x42d;" horiz-adv-x="1177" d="M33 80l65 131q179 -96 355 -96q183 0 291.5 134t148.5 408h-635l21 136h630q6 79 6 112q0 203 -75.5 300.5t-233.5 97.5q-78 0 -150.5 -18t-168.5 -62l-49 127q186 88 370 88q482 0 482 -564q0 -192 -44.5 -365.5t-123.5 -291.5q-76 -115 -197.5 -176t-275.5 -61 q-224 0 -416 100z" />
<glyph unicode="&#x42e;" horiz-adv-x="1994" d="M137 0l225 1417h162l-98 -624h328q69 304 241 474.5t410 170.5q275 0 399 -213q94 -157 94 -381q0 -154 -45.5 -306t-128.5 -276q-191 -282 -499 -282q-272 0 -398 206q-96 161 -96 396q0 44 4 75h-329l-105 -657h-164zM905 551q0 -206 85.5 -321t238.5 -115 q111 0 205 60t161 175q60 101 94.5 240.5t34.5 277.5q0 204 -85.5 319.5t-237.5 115.5q-110 0 -204 -60.5t-161 -175.5q-60 -99 -95.5 -240.5t-35.5 -275.5z" />
<glyph unicode="&#x42f;" horiz-adv-x="1187" d="M-29 0l238 430q82 147 123 189.5t127 68.5q-242 61 -242 309q0 116 56.5 212.5t154.5 148.5q112 59 328 59h366l-225 -1417h-164l101 629h-101q-66 0 -107 -6t-77.5 -20.5t-67 -48t-60 -78.5t-71.5 -122l-192 -354h-187zM391 991q0 -159 148 -207q61 -20 186 -20h131 l82 518h-180q-159 0 -230 -39q-63 -32 -100 -100t-37 -152z" />
<glyph unicode="&#x430;" horiz-adv-x="1173" d="M115 403q0 127 36.5 249t102.5 216q135 191 342 191q197 0 289 -164l26 143h152q0 -3 -3.5 -22t-12.5 -64.5t-17 -91.5q-6 -38 -19.5 -118.5t-19.5 -120.5l-47 -289q-25 -160 -43 -332h-147l18 145q-76 -90 -147.5 -127.5t-165.5 -37.5q-160 0 -252 112.5t-92 310.5z M279 395q0 -134 56.5 -212.5t153.5 -78.5q157 0 295 197l70 438q-62 195 -238 195q-158 0 -260 -193q-77 -148 -77 -346z" />
<glyph unicode="&#x431;" horiz-adv-x="1140" d="M129 399q0 189 53 445.5t119 388.5q81 160 231 207q55 18 109 26t195 19q124 9 247 26l-4 -129q-73 -14 -356 -36q-116 -8 -185.5 -53t-113 -141.5t-74.5 -272.5q91 101 164 140.5t168 39.5q158 0 252 -116.5t94 -313.5q0 -286 -141.5 -467.5t-362.5 -181.5 q-183 0 -289 112t-106 307zM293 393q0 -133 64.5 -211t174.5 -78q72 0 133.5 38.5t104.5 109.5q43 77 68.5 179t25.5 204q0 144 -55 221.5t-156 77.5q-169 0 -327 -234l-19 -112q-14 -89 -14 -195z" />
<glyph unicode="&#x432;" horiz-adv-x="1116" d="M119 0l164 1038h383q338 0 338 -250q0 -93 -47 -152t-152 -97q82 -34 120 -86.5t38 -133.5q0 -74 -31 -139t-86 -106q-51 -40 -115.5 -57t-161.5 -17h-450zM293 121h239q148 0 205 49q29 24 45.5 65.5t16.5 86.5q0 153 -203 153h-246zM369 596h243q109 0 168.5 47 t59.5 135q0 74 -45.5 107t-147.5 33h-227z" />
<glyph unicode="&#x433;" horiz-adv-x="876" d="M117 0l164 1038h620l-20 -125h-463l-146 -913h-155z" />
<glyph unicode="&#x434;" horiz-adv-x="1105" d="M-129 -303l68 428h92q203 256 297 825l14 88h645l-143 -913h114l-67 -428h-127l29 303h-727l-68 -303h-127zM193 125h495l125 788h-344l-8 -43q-54 -274 -111 -432.5t-157 -312.5z" />
<glyph unicode="&#x435;" horiz-adv-x="1101" d="M115 408q0 132 41 258.5t114 218.5q133 174 365 174q362 0 362 -383q0 -76 -18 -187h-694q-6 -55 -6 -92q0 -138 70 -215.5t196 -77.5q141 0 293 101l41 -127q-163 -98 -340 -98q-200 0 -312 113t-112 315zM307 614h527q4 37 4 78q0 117 -55 179.5t-158 62.5 q-120 0 -204.5 -85t-113.5 -235z" />
<glyph unicode="&#x436;" horiz-adv-x="1544" d="M10 0l197 295q85 126 145 177t146 71q-70 31 -98 73t-50 148q-25 110 -40 133t-64 23q-9 0 -56 -7l11 125q55 6 80 6q49 0 76.5 -7.5t51 -33.5t38.5 -67.5t34 -118.5q16 -62 24 -92t21.5 -60.5t22 -40.5t29.5 -19t39.5 -10t56.5 -1h35l69 444h152l-70 -444h82 q74 0 111 28.5t77 116.5q50 108 79.5 162t62.5 89t63 43.5t82 8.5q28 0 90 -4l-28 -125q-10 1 -28 3t-26 2q-24 0 -34.5 -2t-26.5 -20t-29 -43.5t-43 -88.5q-54 -117 -90.5 -157t-128.5 -81q57 -20 97 -71.5t83 -159.5l117 -295h-170l-121 324q-35 93 -72 128t-100 35h-63 l-78 -487h-152l76 487h-74q-69 0 -112.5 -32.5t-108.5 -130.5l-211 -324h-174z" />
<glyph unicode="&#x437;" horiz-adv-x="962" d="M16 59l62 127q139 -82 295 -82q126 0 200 60t74 160q0 88 -69 125.5t-232 37.5q-18 0 -96 -4l20 127q43 -4 111 -4q161 0 246.5 49.5t85.5 141.5q0 137 -203 137q-134 0 -311 -76l-33 125q172 76 360 76q166 0 256 -66t90 -188q0 -185 -200 -254q139 -50 139 -215 q0 -74 -30.5 -144t-82.5 -116q-107 -96 -317 -96q-102 0 -184 17.5t-181 61.5z" />
<glyph unicode="&#x438;" horiz-adv-x="1191" d="M119 0l164 1038h155l-114 -721l577 603l19 118h155l-166 -1038h-155l116 725l-577 -602l-19 -123h-155z" />
<glyph unicode="&#x439;" horiz-adv-x="1191" d="M119 0l164 1038h155l-114 -721l577 603l19 118h155l-166 -1038h-155l116 725l-577 -602l-19 -123h-155zM446 1417q0 22 5 47h135v-30q0 -78 33 -120t96 -42q140 0 188 192h139q-14 -71 -31 -113t-48 -77q-94 -113 -248 -113q-123 0 -196 69.5t-73 186.5z" />
<glyph unicode="&#x43a;" horiz-adv-x="1091" d="M119 0l164 1038h151l-69 -444h114q74 0 112 29t79 116q40 87 65.5 135.5t50 86t49 53t51.5 22t68 6.5q26 0 84 -4l-28 -125q-3 0 -17.5 2.5t-21.5 2.5q-41 0 -58 -20.5t-71 -133.5q-54 -117 -91 -157t-130 -81q57 -20 98.5 -72.5t83.5 -160.5l115 -293h-168l-125 313 q-35 91 -72 124.5t-100 33.5h-109l-74 -471h-151z" />
<glyph unicode="&#x43b;" horiz-adv-x="1095" d="M-35 0l21 129q40 2 65 6.5t48 18.5t36 33t26.5 57.5t23 83t22.5 118.5l94 592h676l-164 -1038h-156l144 913h-371l-80 -503q-18 -125 -43 -200t-70 -123.5t-108 -66.5t-164 -20z" />
<glyph unicode="&#x43c;" horiz-adv-x="1497" d="M123 0l164 1038h192l191 -770q6 -21 24 -102q18 36 56 102l426 770h198l-164 -1038h-151l129 817q-63 -131 -129 -250l-320 -567h-139l-149 575q-41 173 -50 244l-131 -819h-147z" />
<glyph unicode="&#x43d;" horiz-adv-x="1198" d="M119 0l164 1038h155l-69 -444h485l72 444h155l-166 -1038h-155l76 469h-488l-74 -469h-155z" />
<glyph unicode="&#x43e;" horiz-adv-x="1181" d="M115 416q0 248 135 432q155 211 412 211q181 0 293 -120.5t112 -315.5q0 -120 -35.5 -233.5t-99.5 -199.5q-154 -210 -406 -210q-186 0 -298.5 119.5t-112.5 316.5zM279 412q0 -143 67 -225.5t184 -82.5q103 0 188.5 69t135 189.5t49.5 264.5q0 141 -67 224t-181 83 q-105 0 -191.5 -68.5t-135.5 -188.5t-49 -265z" />
<glyph unicode="&#x43f;" horiz-adv-x="1177" d="M119 0l164 1038h778l-164 -1038h-156l144 913h-465l-146 -913h-155z" />
<glyph unicode="&#x440;" horiz-adv-x="1173" d="M47 -440l168 1058q36 244 39 269q6 49 18 151h148l-19 -149q73 89 148.5 129.5t167.5 40.5q154 0 248 -115t94 -303q0 -184 -65 -335.5t-178.5 -238.5t-250.5 -87q-178 0 -270 165l-92 -585h-156zM319 301q31 -95 90.5 -146t139.5 -51q173 0 274 209q33 71 52.5 160 t19.5 170q0 138 -54.5 214.5t-152.5 76.5q-173 0 -299 -195z" />
<glyph unicode="&#x441;" horiz-adv-x="968" d="M125 416q0 257 139 444q147 199 387 199q144 0 277 -68l-54 -121q-63 35 -111.5 49.5t-105.5 14.5q-182 0 -290 -195q-78 -138 -78 -317q0 -154 64.5 -236t185.5 -82q60 0 115 18.5t126 61.5l54 -118q-146 -86 -310 -86q-193 0 -296 112.5t-103 323.5z" />
<glyph unicode="&#x442;" horiz-adv-x="837" d="M98 913l21 125h764l-19 -125h-305l-145 -913h-156l145 913h-305z" />
<glyph unicode="&#x443;" horiz-adv-x="1026" d="M-102 -432l45 125q62 -29 106 -29q86 0 153.5 72t155.5 258l-229 1044h162l129 -612q35 -167 47 -238l102 207l338 643h152l-588 -1126q-115 -221 -198.5 -297t-211.5 -76q-83 0 -163 29z" />
<glyph unicode="&#x444;" horiz-adv-x="1662" d="M121 418q0 175 57 322.5t156 233t217 85.5q177 0 272 -146l92 584h142l-94 -584q119 146 266 146q140 0 227.5 -123.5t87.5 -319.5q0 -124 -30.5 -242.5t-86.5 -207.5q-116 -186 -315 -186q-93 0 -155 35t-117 120l-90 -575h-142l92 575q-69 -87 -126.5 -121t-135.5 -34 q-146 0 -231.5 118.5t-85.5 319.5zM285 401q0 -140 49 -218.5t137 -78.5q68 0 124.5 43t131.5 152l70 444q-71 191 -222 191q-144 0 -227 -201q-29 -68 -46 -158.5t-17 -173.5zM866 299q50 -105 102.5 -150t125.5 -45q75 0 135 53t98 154q23 63 38 151t15 163q0 145 -49 227 t-135 82q-72 0 -134 -45t-126 -146z" />
<glyph unicode="&#x445;" horiz-adv-x="1030" d="M-27 0l461 537l-260 501h170l199 -391l336 391h180l-449 -516l271 -522h-170l-209 406l-346 -406h-183z" />
<glyph unicode="&#x446;" horiz-adv-x="1165" d="M119 0l164 1038h155l-143 -913h453l145 913h156l-146 -913h117l-68 -428h-129l29 303h-733z" />
<glyph unicode="&#x447;" horiz-adv-x="1155" d="M188 506q0 67 21 207l53 325h156l-62 -385q-12 -65 -12 -125q0 -116 148 -116q74 0 148 33.5t167 109.5l76 483h155l-164 -1038h-155l65 422q-90 -75 -162 -105t-165 -30q-129 0 -199 56.5t-70 162.5z" />
<glyph unicode="&#x448;" horiz-adv-x="1699" d="M127 0l164 1038h155l-143 -913h408l145 913h156l-146 -913h410l143 913h156l-164 -1038h-1284z" />
<glyph unicode="&#x449;" horiz-adv-x="1699" d="M127 0l164 1038h155l-143 -913h408l145 913h156l-146 -913h410l143 913h156l-143 -913h114l-67 -428h-129l28 303h-1251z" />
<glyph unicode="&#x44a;" horiz-adv-x="1146" d="M72 913l20 125h443l-56 -354h135q140 0 195 -9t102 -40q113 -70 113 -232q0 -102 -33.5 -187t-93.5 -136q-57 -49 -122 -64.5t-212 -15.5h-348l145 913h-288zM389 125h148q95 0 140 7.5t79 27.5q48 31 76 94t28 141q0 120 -94 150q-44 16 -184 16h-123z" />
<glyph unicode="&#x44b;" horiz-adv-x="1482" d="M117 0l164 1038h155l-55 -354h135q140 0 194.5 -9t102.5 -38q111 -72 111 -231q0 -106 -32.5 -190.5t-92.5 -135.5q-57 -49 -122 -64.5t-212 -15.5h-348zM293 125h145q95 0 140 7.5t79 27.5q48 29 75.5 92.5t27.5 144.5q0 118 -92 148q-44 16 -185 16h-123zM1038 0 l164 1038h156l-164 -1038h-156z" />
<glyph unicode="&#x44c;" horiz-adv-x="1050" d="M117 0l164 1038h155l-55 -354h135q140 0 195 -9t102 -40q113 -70 113 -232q0 -103 -33 -187.5t-94 -135.5q-57 -49 -122 -64.5t-212 -15.5h-348zM293 125h145q95 0 140 7.5t79 27.5q48 31 76.5 94.5t28.5 140.5q0 120 -94 150q-44 16 -185 16h-123z" />
<glyph unicode="&#x44d;" horiz-adv-x="1001" d="M10 70l62 125q137 -91 276 -91q147 0 240 95t127 278h-516l20 125h510v25q0 307 -254 307q-121 0 -264 -80l-59 111q89 51 166.5 72.5t170.5 21.5q196 0 298 -115t102 -336q0 -292 -144.5 -460t-394.5 -168q-194 0 -340 90z" />
<glyph unicode="&#x44e;" horiz-adv-x="1665" d="M125 0l164 1038h155l-69 -444h278q49 214 185.5 339.5t318.5 125.5q178 0 285.5 -119t107.5 -317q0 -180 -68 -327.5t-187.5 -231.5t-264.5 -84q-180 0 -287.5 119.5t-107.5 320.5q0 18 2 49h-283l-73 -469h-156zM799 416q0 -146 62.5 -229t172.5 -83q97 0 178 69.5 t127.5 190t46.5 263.5q0 142 -63 224.5t-172 82.5q-83 0 -155.5 -50.5t-121.5 -144.5q-35 -67 -55 -154t-20 -169z" />
<glyph unicode="&#x44f;" horiz-adv-x="1110" d="M-27 0l197 309q55 84 84 114.5t70 49.5q-160 68 -160 246q0 88 43 158t121 110q99 51 297 51h366l-164 -1038h-155l65 420h-143q-116 0 -166 -30.5t-123 -147.5l-151 -242h-181zM328 707q0 -86 60.5 -124t197.5 -38h170l59 368h-207q-122 0 -178 -24q-48 -23 -75 -71 t-27 -111z" />
<glyph unicode="&#x451;" horiz-adv-x="1101" d="M115 408q0 132 41 258.5t114 218.5q133 174 365 174q362 0 362 -383q0 -76 -18 -187h-694q-6 -55 -6 -92q0 -138 70 -215.5t196 -77.5q141 0 293 101l41 -127q-163 -98 -340 -98q-200 0 -312 113t-112 315zM307 614h527q4 37 4 78q0 117 -55 179.5t-158 62.5 q-120 0 -204.5 -85t-113.5 -235zM403 1352q0 44 30.5 73t76.5 29q47 0 76.5 -29.5t29.5 -76.5t-29.5 -77t-76.5 -30t-77 31t-30 80zM780 1352q0 44 30.5 73t76.5 29q47 0 76.5 -29.5t29.5 -76.5t-29.5 -77t-76.5 -30t-77 31t-30 80z" />
<glyph unicode="&#x452;" horiz-adv-x="1214" d="M119 0l194 1227h-137l19 125h139l22 145h156l-23 -145h287l-18 -125h-289l-53 -334q94 87 179.5 126.5t180.5 39.5q127 0 202 -73t75 -198q0 -68 -21 -204l-47 -293q-35 -232 -76 -361t-102 -202q-136 -156 -389 -168l20 131q65 7 111 20.5t85 41.5t65.5 67t50 103 t40.5 143.5t35 193.5l54 328q16 101 16 180t-43 122.5t-121 43.5q-83 0 -174.5 -52.5t-165.5 -142.5l-117 -739h-155z" />
<glyph unicode="&#x453;" horiz-adv-x="876" d="M117 0l164 1038h620l-20 -125h-463l-146 -913h-155zM461 1198l289 299h211l-338 -299h-162z" />
<glyph unicode="&#x454;" horiz-adv-x="1001" d="M111 418q0 125 37 247t100 209q71 95 164.5 140t222.5 45q92 0 169 -20.5t163 -67.5l-72 -121q-71 45 -131.5 64.5t-130.5 19.5q-133 0 -214.5 -81t-119.5 -251h510l-18 -125h-512q-5 -56 -5 -84q0 -143 65.5 -216t192.5 -73q78 0 147 22.5t150 74.5l56 -125 q-86 -51 -166.5 -73.5t-177.5 -22.5q-207 0 -318.5 113t-111.5 325z" />
<glyph unicode="&#x455;" horiz-adv-x="886" d="M47 51l66 125q128 -72 233 -72q95 0 161 57t66 140q0 61 -33.5 94t-146.5 80q-124 54 -177.5 117.5t-53.5 157.5q0 140 101 224.5t269 84.5q150 0 289 -78l-65 -123q-103 76 -224 76q-95 0 -152.5 -48t-57.5 -128q0 -54 31 -85t130 -75q138 -60 194 -124t56 -161 q0 -146 -109.5 -239.5t-279.5 -93.5q-158 0 -297 71z" />
<glyph unicode="&#x456;" horiz-adv-x="536" d="M109 0l163 1038h156l-164 -1038h-155zM299 1407q0 50 31 80.5t82 30.5q47 0 77.5 -31.5t30.5 -79.5q0 -50 -30.5 -80.5t-79.5 -30.5q-50 0 -80.5 31t-30.5 80z" />
<glyph unicode="&#x457;" horiz-adv-x="536" d="M92 1352q0 44 30.5 73t76.5 29q47 0 76.5 -29.5t29.5 -76.5t-29.5 -77t-76.5 -30t-77 31t-30 80zM109 0l163 1038h156l-164 -1038h-155zM469 1352q0 44 30 73t76 29q47 0 77 -29.5t30 -76.5t-30 -77t-77 -30t-76.5 31t-29.5 80z" />
<glyph unicode="&#x458;" horiz-adv-x="536" d="M-207 -436l29 121q53 -21 92 -21q71 0 112 49.5t56 153.5l186 1171h156l-170 -1077q-22 -132 -39.5 -197.5t-42.5 -103.5q-78 -121 -244 -121q-67 0 -135 25zM293 1407q0 50 31 80.5t82 30.5q47 0 77.5 -31.5t30.5 -79.5q0 -49 -31 -80t-80 -31q-47 0 -78.5 32t-31.5 79z " />
<glyph unicode="&#x459;" horiz-adv-x="1609" d="M-25 0l21 131q40 2 65.5 6.5t48 18.5t36 33t26.5 57.5t22.5 83.5t22.5 119l94 589h676l-55 -354h133q140 0 194.5 -9t104.5 -40q111 -70 111 -232q0 -102 -33 -187t-92 -136q-58 -49 -123 -64.5t-213 -15.5h-346l143 913h-371l-80 -503q-18 -125 -43 -200t-70 -123.5 t-108 -66.5t-164 -20zM842 125h147q93 0 138 7.5t79 27.5q49 31 77 94t28 141q0 120 -94 150q-41 16 -183 16h-123z" />
<glyph unicode="&#x45a;" horiz-adv-x="1689" d="M127 0l164 1038h155l-63 -403h457l65 403h156l-60 -372h144q143 0 196.5 -8.5t100.5 -39.5q112 -73 112 -229q0 -100 -32 -181t-92 -130q-57 -47 -122.5 -62.5t-211.5 -15.5h-357l82 510h-459l-79 -510h-156zM915 125h156q93 0 138 7t79 26q48 29 75.5 88.5t27.5 134.5 q0 118 -95 145q-50 15 -184 15h-131z" />
<glyph unicode="&#x45b;" horiz-adv-x="1214" d="M119 0l194 1227h-137l19 125h139l22 145h156l-23 -145h287l-18 -125h-289l-53 -334q94 87 179.5 126.5t180.5 39.5q127 0 203 -70.5t76 -189.5q0 -71 -19 -195l-96 -604h-156l99 625q12 62 12 143q0 79 -43 122.5t-121 43.5q-83 0 -174.5 -52.5t-165.5 -142.5l-117 -739 h-155z" />
<glyph unicode="&#x45c;" horiz-adv-x="1091" d="M119 0l164 1038h151l-69 -444h114q74 0 112 29t79 116q40 87 65.5 135.5t50 86t49 53t51.5 22t68 6.5q26 0 84 -4l-28 -125q-3 0 -17.5 2.5t-21.5 2.5q-41 0 -58 -20.5t-71 -133.5q-54 -117 -91 -157t-130 -81q57 -20 98.5 -72.5t83.5 -160.5l115 -293h-168l-125 313 q-35 91 -72 124.5t-100 33.5h-109l-74 -471h-151zM553 1198l289 299h211l-338 -299h-162z" />
<glyph unicode="&#x45e;" horiz-adv-x="1026" d="M-102 -432l45 125q62 -29 106 -29q86 0 153.5 72t155.5 258l-229 1044h162l129 -612q35 -167 47 -238l102 207l338 643h152l-588 -1126q-115 -221 -198.5 -297t-211.5 -76q-83 0 -163 29zM334 1417q0 27 4 47h135v-30q0 -78 33 -120t96 -42q69 0 117.5 49t71.5 143h139 q-13 -70 -31 -112.5t-49 -77.5q-94 -113 -248 -113q-123 0 -195.5 69.5t-72.5 186.5z" />
<glyph unicode="&#x45f;" horiz-adv-x="1165" d="M119 0l164 1038h155l-143 -913h455l143 913h156l-164 -1038h-301l-68 -303h-125l29 303h-301z" />
<glyph unicode="&#x490;" horiz-adv-x="1009" d="M125 0l225 1417h602l64 232h123l-58 -367h-589l-203 -1282h-164z" />
<glyph unicode="&#x491;" horiz-adv-x="864" d="M117 0l164 1038h479l51 209h123l-53 -334h-463l-146 -913h-155z" />
<glyph unicode="&#x4c0;" horiz-adv-x="557" d="M115 0l225 1417h162l-223 -1417h-164z" />
<glyph unicode="&#x1e84;" horiz-adv-x="1759" d="M233 1417h168l48 -956q6 -191 6 -293q39 123 104 293l359 956h204l64 -950q10 -159 10 -289q26 83 100 283l353 956h161l-534 -1417h-211l-61 946q-11 187 -11 295q-37 -111 -106 -295l-361 -946h-209zM756 1700q0 44 30 73t76 29q47 0 77 -29.5t30 -76.5t-30 -77 t-77 -30t-76.5 31t-29.5 80zM1133 1700q0 44 30 73t76 29q47 0 77 -29.5t30 -76.5t-30 -77t-77 -30t-76.5 31t-29.5 80z" />
<glyph unicode="&#x2000;" horiz-adv-x="933" />
<glyph unicode="&#x2001;" horiz-adv-x="1866" />
<glyph unicode="&#x2002;" horiz-adv-x="933" />
<glyph unicode="&#x2003;" horiz-adv-x="1866" />
<glyph unicode="&#x2004;" horiz-adv-x="622" />
<glyph unicode="&#x2005;" horiz-adv-x="466" />
<glyph unicode="&#x2006;" horiz-adv-x="311" />
<glyph unicode="&#x2007;" horiz-adv-x="589" />
<glyph unicode="&#x2008;" horiz-adv-x="233" />
<glyph unicode="&#x2009;" horiz-adv-x="373" />
<glyph unicode="&#x200a;" horiz-adv-x="103" />
<glyph unicode="&#x2010;" horiz-adv-x="636" d="M86 510l20 125h463l-20 -125h-463z" />
<glyph unicode="&#x2011;" horiz-adv-x="636" d="M86 510l20 125h463l-20 -125h-463z" />
<glyph unicode="&#x2012;" d="M82 510l20 125h1012l-20 -125h-1012z" />
<glyph unicode="&#x2013;" d="M82 510l20 125h1012l-20 -125h-1012z" />
<glyph unicode="&#x2014;" horiz-adv-x="2048" d="M-12 510l20 125h2071l-21 -125h-2070z" />
<glyph unicode="&#x2015;" horiz-adv-x="2048" d="M-12 510l20 125h2071l-21 -125h-2070z" />
<glyph unicode="&#x2017;" horiz-adv-x="1024" d="M-172 -451l16 109h1061l-16 -109h-1061zM-139 -244l16 109h1061l-16 -109h-1061z" />
<glyph unicode="&#x2018;" horiz-adv-x="344" d="M92 1038l248 459h143l-211 -459h-180z" />
<glyph unicode="&#x2019;" horiz-adv-x="344" d="M96 1038l211 459h180l-247 -459h-144z" />
<glyph unicode="&#x201a;" horiz-adv-x="344" d="M-125 -254l211 459h180l-248 -459h-143z" />
<glyph unicode="&#x201c;" horiz-adv-x="663" d="M98 1038l248 459h143l-210 -459h-181zM418 1038l248 459h143l-211 -459h-180z" />
<glyph unicode="&#x201d;" horiz-adv-x="663" d="M100 1038l211 459h181l-248 -459h-144zM420 1038l211 459h180l-248 -459h-143z" />
<glyph unicode="&#x201e;" horiz-adv-x="663" d="M-123 -254l211 459h180l-248 -459h-143zM197 -254l211 459h180l-248 -459h-143z" />
<glyph unicode="&#x2020;" d="M209 913l20 125h363l59 379h156l-59 -379h368l-20 -125h-367l-184 -1163h-156l184 1163h-364z" />
<glyph unicode="&#x2021;" d="M113 303l20 125h363l77 485h-364l20 125h363l61 379h156l-61 -379h368l-20 -125h-367l-78 -485h369l-21 -125h-366l-88 -553h-156l88 553h-364z" />
<glyph unicode="&#x2022;" horiz-adv-x="1024" d="M250 725q0 118 87.5 204.5t207.5 86.5q123 0 209 -86.5t86 -208.5t-86 -208.5t-209 -86.5t-209 87t-86 212z" />
<glyph unicode="&#x2026;" horiz-adv-x="1769" d="M111 98q0 48 33.5 81.5t82.5 33.5q51 0 84 -33t33 -84q0 -50 -33 -83t-84 -33t-83.5 33t-32.5 85zM700 98q0 48 34 81.5t83 33.5q51 0 84 -33t33 -84q0 -50 -33 -83t-84 -33t-84 33t-33 85zM1290 98q0 48 34 81.5t83 33.5q51 0 84 -33t33 -84q0 -50 -33 -83t-84 -33 t-84 33t-33 85z" />
<glyph unicode="&#x202f;" horiz-adv-x="373" />
<glyph unicode="&#x2030;" horiz-adv-x="2226" d="M106 901q0 78 19.5 174.5t48.5 165.5q80 189 279 189q241 0 241 -267q0 -85 -18.5 -181.5t-48.5 -166.5q-81 -188 -279 -188q-125 0 -183.5 66.5t-58.5 207.5zM236 903q0 -178 120 -178q46 0 86.5 33.5t63.5 91.5q26 59 42.5 149t16.5 166q0 80 -31.5 123t-89.5 43 q-46 0 -85 -33t-64 -92q-24 -56 -41.5 -146t-17.5 -157zM379 -41l700 1499h121l-700 -1499h-121zM883 262q0 78 19 174.5t48 165.5q80 189 279 189q241 0 241 -267q0 -85 -18.5 -181.5t-48.5 -166.5q-81 -188 -279 -188q-124 0 -182.5 66.5t-58.5 207.5zM1012 264 q0 -178 121 -178q46 0 86 33.5t63 91.5q26 59 42.5 149t16.5 166q0 80 -31 123t-89 43q-46 0 -85.5 -33t-64.5 -92q-24 -56 -41.5 -146t-17.5 -157zM1589 262q0 80 18.5 174t49.5 166q38 92 109 140.5t169 48.5q242 0 242 -269q0 -86 -18.5 -181.5t-47.5 -164.5 q-40 -97 -106 -142.5t-166 -45.5q-127 0 -188.5 67t-61.5 207zM1718 260q0 -174 121 -174q46 0 86.5 33.5t63.5 91.5q26 59 42.5 148t16.5 165q0 82 -31 125t-90 43q-46 0 -85 -32.5t-64 -92.5q-25 -57 -42.5 -147.5t-17.5 -159.5z" />
<glyph unicode="&#x2039;" horiz-adv-x="577" d="M66 512l378 426l101 -78l-297 -362l172 -342l-111 -72z" />
<glyph unicode="&#x203a;" horiz-adv-x="577" d="M31 162l295 360l-172 344l112 72l244 -428l-379 -426z" />
<glyph unicode="&#x203e;" horiz-adv-x="1024" d="M152 1595l20 125h1061l-21 -125h-1060z" />
<glyph unicode="&#x2044;" horiz-adv-x="163" d="M-340 -41l780 1499h121l-780 -1499h-121z" />
<glyph unicode="&#x205f;" horiz-adv-x="466" />
<glyph unicode="&#x20ac;" d="M35 535l55 108h154q6 57 22 141h-192l57 109h164q89 259 260.5 402t392.5 143q172 0 340 -82l-65 -125q-138 82 -275 82q-317 0 -481 -420h582l-58 -109h-559q-18 -74 -24 -141h512l-58 -108h-461q0 -210 88 -320.5t254 -110.5q152 0 328 89l35 -136q-193 -77 -361 -77 q-236 0 -370.5 147.5t-136.5 407.5h-203z" />
<glyph unicode="&#x2122;" horiz-adv-x="1597" d="M127 1323l14 94h576l-15 -94h-227l-108 -684h-125l108 684h-223zM668 639l123 778h161l140 -647l338 647h161l-123 -778h-120l55 340l20 131l23 117l10 63q-60 -151 -143 -307l-185 -344h-116l-74 309q-45 194 -57 338q-13 -103 -43 -307l-56 -340h-114z" />
<glyph unicode="&#x2202;" d="M135 389q0 168 65 307t178 218t249 79q111 0 198 -51q-51 147 -157.5 261.5t-259.5 187.5l69 120q201 -84 340 -251q105 -131 163 -292.5t58 -324.5q0 -299 -142.5 -481t-375.5 -182q-180 0 -282.5 109t-102.5 300zM299 385q0 -132 61.5 -206.5t171.5 -74.5 q168 0 263 179q36 65 57.5 150t21.5 161q0 132 -59 203t-168 71q-154 0 -251 -135t-97 -348z" />
<glyph unicode="&#x2206;" d="M-76 0l21 129l690 1288h196l279 -1288l-20 -129h-1166zM117 129h831l-237 1131z" />
<glyph unicode="&#x220f;" horiz-adv-x="1351" d="M39 -317l307 1937h1008l-307 -1937h-164l284 1802h-678l-286 -1802h-164z" />
<glyph unicode="&#x2211;" d="M-2 -317l25 157l593 838l-333 801l22 141h985l-22 -135h-811l340 -811l-602 -856h827l-23 -135h-1001z" />
<glyph unicode="&#x221a;" d="M147 637l21 125h274l72 -549l698 1530h531l-21 -125h-413l-750 -1618h-153l-89 637h-170z" />
<glyph unicode="&#x221e;" horiz-adv-x="1558" d="M111 467q0 163 100 269t254 106q209 0 328 -230q96 121 185.5 176.5t190.5 55.5q129 0 203 -72.5t74 -198.5q0 -166 -99.5 -272t-254.5 -106q-208 0 -328 229q-92 -119 -182 -174t-191 -55q-129 0 -204.5 73t-75.5 199zM240 481q0 -78 45.5 -127t117.5 -49q67 0 148 53.5 t147 141.5l13 18l-9 19q-38 91 -100 142.5t-133 51.5q-92 0 -160.5 -74.5t-68.5 -175.5zM846 518l8 -18q41 -93 101.5 -144t129.5 -51q92 0 162 75.5t70 176.5q0 78 -46 127t-118 49q-68 0 -147 -52.5t-146 -143.5z" />
<glyph unicode="&#x222b;" horiz-adv-x="737" d="M-61 -311l57 137q62 -23 90 -23q68 0 100 68q14 31 31 135l197 1239q26 171 37.5 213t42.5 84q68 98 213 98q67 0 149 -26l-57 -139q-57 24 -90 24q-70 0 -101 -67q-11 -23 -30 -138l-197 -1239q-21 -131 -38.5 -196.5t-41.5 -98.5q-70 -98 -211 -98q-71 0 -151 27z" />
<glyph unicode="&#x2248;" d="M53 319q93 116 161 161.5t146 45.5q47 0 99 -20.5t131 -71.5q74 -47 106 -61.5t66 -14.5q82 0 170 82l69 70l78 -80q-88 -108 -160.5 -157.5t-144.5 -49.5q-52 0 -101 19.5t-126 70.5q-72 47 -109 62.5t-78 15.5q-52 0 -95.5 -28t-131.5 -119zM98 606q95 117 162.5 162 t145.5 45q47 0 98.5 -20.5t130.5 -71.5q74 -47 106 -61.5t66 -14.5q82 0 170 82l70 70l77 -80q-88 -108 -160.5 -157.5t-144.5 -49.5q-51 0 -100 19.5t-127 70.5q-72 47 -108 62.5t-76 15.5q-53 0 -98 -29t-132 -119z" />
<glyph unicode="&#x2260;" d="M51 309l21 125h393l106 168h-473l19 125h530l180 291l103 -64l-142 -227h338l-18 -125h-395l-107 -168h475l-20 -125h-531l-180 -289l-100 64l139 225h-338z" />
<glyph unicode="&#x2264;" d="M2 0l21 125h1009l-20 -125h-1010zM96 590l17 104l1067 367l-23 -141l-874 -283l784 -285l-20 -129z" />
<glyph unicode="&#x2265;" d="M2 0l21 125h1009l-20 -125h-1010zM37 223l22 142l877 282l-786 285l20 129l952 -367l-16 -104z" />
<glyph unicode="&#x25ca;" d="M51 709l570 774l569 -774l-569 -777zM223 709l398 -539l397 539l-397 538z" />
<glyph unicode="&#xe000;" horiz-adv-x="1034" d="M0 0v1034h1034v-1034h-1034z" />
</font>
</defs>
</svg>
